<?xml version="1.0" standalone="no"?>
<!DOCTYPE svg PUBLIC "-//W3C//DTD SVG 1.1//EN" "http://www.w3.org/Graphics/SVG/1.1/DTD/svg11.dtd" >
<svg xmlns="http://www.w3.org/2000/svg" xmlns:xlink="http://www.w3.org/1999/xlink" version="1.1">
<metadata>
Created by FontForge 20201107 at Thu Sep  5 09:51:09 2024
 By 
Copyright (c) 2016 by THOMAS GILLETT. All rights reserved.
</metadata>
<defs>
<font id="Gordita-Black" horiz-adv-x="0" >
  <font-face 
    font-family="Gordita Black"
    font-weight="900"
    font-stretch="normal"
    units-per-em="2048"
    panose-1="0 0 0 0 0 0 0 0 0 0"
    ascent="1638"
    descent="-410"
    x-height="1018"
    cap-height="1493"
    bbox="-717 -748 2970 2324"
    underline-thickness="94"
    underline-position="-190"
    unicode-range="U+000D-FB04"
  />
<missing-glyph horiz-adv-x="1523" 
d="M1430 0h-1258v1493h1258v-1493zM1290 1337h-971l971 -1181v1181z" />
    <glyph glyph-name="ff" unicode="ff" horiz-adv-x="1630" 
d="M1608 1532v-281q-43 11 -103 11q-80 0 -116.5 -40.5t-36.5 -123.5v-80h247v-297h-247v-721h-361v721h-395v-721h-360v721h-187v297h187v86q0 201 104 323q113 132 330 132q106 0 182 -27v-281q-43 11 -104 11q-80 0 -116 -40.5t-36 -123.5v-80h395v86q0 204 111 330
q113 125 323 125q107 0 183 -27z" />
    <glyph glyph-name="fi" unicode="fi" horiz-adv-x="1474" 
d="M1174 1155q-88 0 -150 62q-63 60 -63 147q0 92 63 152q61 61 150 61q87 0 151 -61q61 -61 61 -152q0 -87 -63 -147q-62 -62 -149 -62zM596 1098v-80h760v-1018h-365v721h-395v-721h-360v721h-187v297h187v86q0 201 104 323q113 132 330 132q106 0 182 -27v-281
q-43 11 -104 11q-80 0 -116 -40.5t-36 -123.5z" />
    <glyph glyph-name="fl" unicode="fl" horiz-adv-x="1476" 
d="M236 721h-187v297h187v86q0 201 104 323q113 132 330 132q106 0 182 -27v-281q-43 11 -104 11q-80 0 -116 -40.5t-36 -123.5v-80h395v536h367v-1554h-367v721h-395v-721h-360v721z" />
    <glyph glyph-name="ffi" unicode="ffi" horiz-adv-x="2295" 
d="M1929 1155q-87 0 -149 62q-64 61 -64 147q0 90 62 152q64 61 151 61q88 0 152 -61q61 -61 61 -152q0 -87 -63 -147q-62 -62 -150 -62zM991 1018v86q0 200 105 323q113 132 327 132q109 0 185 -27v-281q-43 11 -105 11q-80 0 -115.5 -40t-35.5 -124v-80h759v-1018h-364
v721h-395v-721h-361v721h-395v-721h-360v721h-187v297h187v86q0 201 104 323q113 132 330 132q106 0 182 -27v-281q-43 11 -104 11q-80 0 -116 -40.5t-36 -123.5v-80h395z" />
    <glyph glyph-name="ffl" unicode="ffl" horiz-adv-x="2295" 
d="M852 1532v-281q-43 11 -104 11q-79 0 -115.5 -40.5t-36.5 -123.5v-80h395v86q0 200 105 323q116 132 329 132q107 0 183 -27v-281q-43 11 -103 11q-82 0 -117.5 -40t-35.5 -124v-80h395v536h364v-1554h-364v721h-395v-721h-361v721h-395v-721h-360v721h-187v297h187v86
q0 205 110 330q113 125 324 125q106 0 182 -27z" />
    <glyph glyph-name=".notdef" horiz-adv-x="1523" 
d="M1430 0h-1258v1493h1258v-1493zM1290 1337h-971l971 -1181v1181z" />
    <glyph glyph-name=".null" 
 />
    <glyph glyph-name="nonmarkingreturn" horiz-adv-x="634" 
 />
    <glyph glyph-name="NULL" 
 />
    <glyph glyph-name="NULL" 
 />
    <glyph glyph-name="CR" unicode="&#xd;" horiz-adv-x="446" 
 />
    <glyph glyph-name="space" unicode=" " horiz-adv-x="446" 
 />
    <glyph glyph-name="exclam" unicode="!" horiz-adv-x="669" 
d="M500 508h-330l-31 764v221h389v-219zM129 184q0 86 59 148q61 61 148 61q86 0 147 -61q60 -63 60 -148t-60 -145q-62 -62 -147 -62q-86 0 -148 62q-59 59 -59 145z" />
    <glyph glyph-name="quotedbl" unicode="&#x22;" horiz-adv-x="1007" 
d="M457 1208l-115 -420h-149l-107 420q-8 40 -8 74q0 86 53 145q55 58 137 58q85 0 142 -60q55 -55 55 -143q0 -47 -8 -74zM924 1208l-115 -420h-150l-106 420q-8 27 -8 74q0 86 53 145q55 58 137 58q85 0 142 -60q55 -55 55 -143q0 -47 -8 -74z" />
    <glyph glyph-name="numbersign" unicode="#" horiz-adv-x="1576" 
d="M793 0l55 305h-275l-55 -305h-299l55 305h-198v309h256l49 271h-203v311h256l53 283h301l-53 -283l273 -2l51 285h301l-51 -285h190v-309h-246l-47 -271h191v-309h-250l-55 -305h-299zM911 610l47 279h-280l-51 -279h284z" />
    <glyph glyph-name="dollar" unicode="$" horiz-adv-x="1316" 
d="M1239 459q0 -175 -129 -307q-64 -66 -159.5 -107.5t-207.5 -50.5v-189h-141v189q-225 18 -366 143q-134 125 -168 324l331 80q26 -192 205 -232v275l-65 14q-189 38 -301 150q-115 115 -115 284q0 124 65 230q67 104 174 165q107 64 240 76v197h141v-197q109 -12 198 -53
t144 -102q106 -120 127 -267l-325 -90q-11 73 -49 123.5t-99 69.5v-269l66 -10q206 -38 319 -157q115 -124 115 -289zM602 940l2 -2v250q-52 -13 -82 -49.5t-30 -77.5q0 -94 110 -121zM739 559v-252q60 13 92.5 50.5t32.5 84.5q0 96 -125 117z" />
    <glyph glyph-name="percent" unicode="%" horiz-adv-x="1839" 
d="M788 1145q0 -147 -106 -256q-110 -107 -258 -107q-146 0 -256 107q-107 107 -107 256q0 151 107 258q107 104 256 104q151 0 258 -104q106 -109 106 -258zM582 0h-306l981 1493h302zM532 1145q0 48 -30.5 80t-77.5 32q-45 0 -76 -33t-31 -79q0 -45 31 -78t76 -33
q46 0 77 33t31 78zM1778 350q0 -146 -107 -256q-107 -104 -258 -104q-149 0 -256 104q-106 106 -106 256q0 152 106 258q110 107 256 107q148 0 258 -107q107 -110 107 -258zM1522 350q0 47 -31 80t-78 33q-45 0 -75.5 -33.5t-30.5 -79.5q0 -45 30.5 -76.5t75.5 -31.5
q47 0 78 31.5t31 76.5z" />
    <glyph glyph-name="ampersand" unicode="&#x26;" horiz-adv-x="1435" 
d="M1421 0h-395l-98 113q-188 -133 -361 -133q-97 0 -183 24.5t-156.5 73.5t-112 131t-41.5 188q0 219 258 389l-47 54q-55 63 -85 135t-30 135q0 166 127 287t317 121q112 0 217 -54q104 -53 164 -143q64 -91 64 -201q0 -218 -211 -340l-78 -45l186 -211q84 123 111 226
h299q-13 -99 -72 -209q-57 -114 -151 -228zM618 1231q-61 0 -98 -37q-41 -38 -41 -84q0 -49 53 -109l58 -63l98 59q68 41 68 113q0 45 -39 84q-40 37 -99 37zM588 266q77 0 160 51l-236 267q-117 -76 -117 -156q0 -45 18 -78.5t47.5 -50.5t61.5 -25t66 -8z" />
    <glyph glyph-name="quotesingle" unicode="'" horiz-adv-x="540" 
d="M457 1208l-115 -420h-149l-107 420q-8 40 -8 74q0 86 53 145q55 58 135 58q84 0 144 -60q55 -55 55 -143q0 -47 -8 -74z" />
    <glyph glyph-name="parenleft" unicode="(" horiz-adv-x="788" 
d="M381 717v-31q0 -252 96.5 -444t282.5 -314l-148 -194q-261 137 -397 379q-141 246 -141 573v33q0 325 141 571q138 247 397 379l148 -194q-186 -122 -282.5 -314t-96.5 -444z" />
    <glyph glyph-name="parenright" unicode=")" horiz-adv-x="788" 
d="M408 686v31q0 251 -96.5 442.5t-282.5 315.5l147 194q257 -132 399 -379q140 -250 140 -571v-33q0 -323 -140 -573q-139 -243 -399 -379l-147 194q186 124 282.5 315.5t96.5 442.5z" />
    <glyph glyph-name="asterisk" unicode="*" horiz-adv-x="964" 
d="M666 1034l141 -194l-180 -133l-146 196l-143 -196l-182 133l141 194l-229 76l69 211l230 -74v246h229v-246l229 74l72 -211z" />
    <glyph glyph-name="plus" unicode="+" horiz-adv-x="1165" 
d="M1096 545h-355v-361h-317v361h-352v303l352 2v354h317v-356h355v-303z" />
    <glyph glyph-name="comma" unicode="," horiz-adv-x="614" 
d="M113 -354v159q92 29 142 70.5t67 108.5q-14 -4 -50 -4q-82 0 -137 55q-53 56 -53 135q0 88 63 145q61 58 152 58q77 0 130.5 -40t76 -99t22.5 -130q0 -175 -110 -303q-113 -129 -303 -155z" />
    <glyph glyph-name="hyphen" unicode="-" horiz-adv-x="851" 
d="M113 469v303h626v-303h-626z" />
    <glyph glyph-name="period" unicode="." horiz-adv-x="604" 
d="M301 -20q-93 0 -156 63q-65 68 -65 156q0 96 63 159q69 66 158 66q94 0 160 -66q63 -66 63 -159q0 -87 -63 -156q-66 -63 -160 -63z" />
    <glyph glyph-name="slash" unicode="/" horiz-adv-x="1107" 
d="M377 -10h-324l682 1564h322z" />
    <glyph glyph-name="zero" unicode="0" horiz-adv-x="1462" 
d="M82 743q-3 179 58 342.5t177 274.5q76 75 184 116.5t232 41.5t232 -41.5t184 -114.5q77 -77 129 -170q102 -191 102 -440q2 -182 -58 -345t-173 -272q-79 -74 -187.5 -116t-234.5 -42q-125 0 -233 41.5t-183 114.5q-80 73 -127 168q-102 183 -102 442zM461 745
q-2 -82 19.5 -169t64.5 -152q67 -98 186 -98q72 0 128.5 40t84.5 107q57 132 57 272q0 122 -32 222q-23 65 -49 102q-30 46 -80 74t-109 28q-168 0 -235 -204q-35 -101 -35 -222z" />
    <glyph glyph-name="one" unicode="1" horiz-adv-x="976" 
d="M823 0h-374v1044l-283 -157l-170 309l520 297h307v-1493z" />
    <glyph glyph-name="two" unicode="2" horiz-adv-x="1327" 
d="M1229 0h-1145v72q0 198 88 344q88 144 305 268l182 104q110 61 150 119q41 52 41 117q0 63 -51 111q-49 49 -137 49q-60 0 -113 -27q-24 -12 -55 -43q-58 -65 -52 -190l-350 41q-1 137 45 246t129 175q167 132 393 132q127 0 234.5 -37.5t179.5 -104.5q71 -65 110.5 -154
t39.5 -188q0 -296 -344 -487l-166 -90q-88 -50 -131 -88q-27 -24 -39 -47v-5h686v-317z" />
    <glyph glyph-name="three" unicode="3" horiz-adv-x="1327" 
d="M655 -23q-136 0 -248 41.5t-184 114.5q-144 147 -162 344l351 55q3 -101 69 -170q62 -65 170 -65q99 0 156 57q57 54 57 135q0 34 -11.5 66.5t-35 62t-65.5 47t-97 17.5q-67 0 -131 -41l-166 244l377 293h-620v315h1083v-297l-332 -260q163 -34 271 -160
q102 -125 102 -287q0 -242 -180 -383q-79 -62 -184.5 -95.5t-219.5 -33.5z" />
    <glyph glyph-name="four" unicode="4" horiz-adv-x="1441" 
d="M1147 276v-276h-371v276h-725v373l660 844h436v-899h223v-318h-223zM776 1092l-389 -498h389v498z" />
    <glyph glyph-name="five" unicode="5" horiz-adv-x="1302" 
d="M117 733l155 760h891v-315h-624l-58 -279q104 82 281 82q113 0 209 -45.5t157 -128.5q93 -122 93 -305q0 -121 -49.5 -223t-135.5 -168q-176 -136 -403 -136q-106 0 -200.5 28t-160.5 77q-69 53 -110 110q-91 119 -101 256l340 56q15 -143 142 -189q51 -18 92 -18
q100 0 158 55q57 60 57 148q0 83 -59 139q-59 53 -152 53q-53 0 -105.5 -22t-87.5 -64l-8 -12z" />
    <glyph glyph-name="six" unicode="6" horiz-adv-x="1355" 
d="M82 678q0 188 61 356q61 165 179 283q207 201 512 201q115 0 221.5 -27.5t181.5 -71.5l-141 -293q-116 64 -271 64q-146 0 -252 -103q-104 -99 -129 -256h2q52 61 127 99t129 47q62 10 113 10q125 0 229.5 -59t167 -168t62.5 -246q0 -124 -46.5 -227t-129.5 -172
q-173 -140 -408 -140q-267 0 -426 162q-113 119 -151 287q-31 124 -31 254zM467 492q0 -86 65 -142q60 -57 154 -57t158 55q61 55 61 144q0 83 -59 139q-61 55 -160 55q-91 0 -154 -57q-65 -59 -65 -137z" />
    <glyph glyph-name="seven" unicode="7" horiz-adv-x="1232" 
d="M551 0h-414l641 1167h-725v326h1135v-311z" />
    <glyph glyph-name="eight" unicode="8" horiz-adv-x="1318" 
d="M659 -23q-122 -2 -243 38.5t-205 115.5q-127 111 -127 289q0 111 70 205q68 92 184 141v2q-109 44 -164 129q-57 83 -57 186q0 101 46 185.5t126 138.5q160 111 370 111q118 0 230.5 -42t195.5 -118q55 -52 86 -123.5t31 -149.5q0 -103 -55 -188q-59 -86 -168 -129v-2
q120 -51 186 -143q70 -95 70 -203q0 -129 -69.5 -225t-184.5 -148q-149 -70 -322 -70zM537 1159q-52 -46 -52 -108q0 -63 52 -109q52 -43 122 -43q71 0 123 43q49 46 49 109t-49 106q-51 45 -123 45q-70 0 -122 -43zM512 582q-57 -48 -57 -121q0 -71 57 -119q58 -49 147 -49
q90 0 148 49q55 49 55 119q0 72 -55 121q-58 49 -148 49q-89 0 -147 -49z" />
    <glyph glyph-name="nine" unicode="9" horiz-adv-x="1349" 
d="M1266 811q0 -424 -222 -643q-199 -193 -499 -193q-114 0 -238 31q-118 29 -190 74l127 291q124 -68 293 -68q145 0 251 100q107 101 125 263h-2q-76 -88 -180 -123q-101 -37 -192 -37q-88 0 -171 34t-147 95q-65 63 -102 152t-37 190q0 129 47.5 233.5t128 170.5
t185 101.5t221.5 35.5q261 0 419 -168q183 -192 183 -539zM877 1004q0 82 -62 141q-64 55 -156 55q-94 0 -155 -55q-64 -55 -64 -144q0 -81 62 -137q58 -55 157 -55q91 0 154 57q64 58 64 138z" />
    <glyph glyph-name="colon" unicode=":" horiz-adv-x="638" 
d="M319 596q-92 0 -155 66q-68 65 -68 155q0 92 66 158q64 67 157 67q94 0 158 -67q66 -66 66 -158q0 -89 -66 -155t-158 -66zM319 -20q-92 0 -155 63q-68 68 -68 156q0 93 66 159t157 66q92 0 158 -66t66 -159q0 -90 -66 -156q-66 -63 -158 -63z" />
    <glyph glyph-name="semicolon" unicode=";" horiz-adv-x="647" 
d="M324 596q-92 0 -158 66t-66 155q0 92 66 158q64 67 158 67q93 0 157 -67q64 -64 64 -158q0 -91 -64 -155q-63 -66 -157 -66zM131 -354v159q92 29 142 70.5t67 108.5q-16 -4 -51 -4q-83 0 -135 55q-54 54 -54 135q0 87 64 145q61 58 151 58q58 0 103.5 -23t72.5 -61.5
t40.5 -85.5t13.5 -99q0 -174 -111 -303q-113 -128 -303 -155z" />
    <glyph glyph-name="less" unicode="&#x3c;" horiz-adv-x="1208" 
d="M428 700l647 -262v-319l-1009 450v256l1009 453v-320z" />
    <glyph glyph-name="equal" unicode="=" horiz-adv-x="1204" 
d="M117 791v301h970v-301h-970zM117 305v297h970v-297h-970z" />
    <glyph glyph-name="greater" unicode="&#x3e;" horiz-adv-x="1208" 
d="M133 956v322l1010 -453v-256l-1010 -450v319l649 258z" />
    <glyph glyph-name="question" unicode="?" horiz-adv-x="1155" 
d="M737 516v-18h-336q-8 62 -8 65q0 113 111 228q10 10 28.5 29t33 33.5t28.5 27.5q111 107 111 188q0 57 -39 90q-44 35 -97 35q-84 0 -123 -57q-43 -58 -43 -148l-342 41v25q-4 104 36.5 193t115.5 149q149 121 367 121q201 0 346 -111q70 -53 109.5 -136.5t39.5 -183.5
q0 -69 -22 -137q-12 -32 -66 -110q-35 -42 -45 -52q-10 -9 -19 -18t-17 -17.5t-11 -11.5q-1 0 -53 -49q-51 -48 -74 -84q-25 -40 -31 -92zM358 184q0 86 62 148q61 61 145 61q89 0 150 -61q59 -62 59 -148t-59 -145q-62 -62 -150 -62q-83 0 -145 62q-62 59 -62 145z" />
    <glyph glyph-name="at" unicode="@" horiz-adv-x="1650" 
d="M1016 971h225l-82 -479q-3 -15 0 -54q3 -21 19 -35t41 -14q77 0 147 94q70 91 70 230q0 145 -72 260q-69 118 -199 186q-131 70 -293 70q-164 0 -317 -86q-145 -86 -233 -234q-86 -151 -86 -321q0 -253 163 -430q78 -85 198.5 -134t262.5 -49q94 0 207 35q110 37 193 99
l79 -119q-80 -71 -217 -117q-143 -45 -262 -45q-168 0 -313 59q-153 64 -248 162q-101 103 -158 243.5t-57 295.5q0 157 63 305q66 151 170 252q103 103 250 166q143 61 303 61q197 0 363 -84q164 -86 258 -235t94 -338q0 -109 -32.5 -205t-88.5 -160q-56 -65 -128.5 -101
t-151.5 -36q-65 0 -129 31q-63 31 -86 78q-39 -51 -101 -80q-70 -31 -127 -31q-65 0 -124.5 29t-100.5 77q-86 99 -86 222q0 180 113 311q114 129 278 129q55 0 107 -27q49 -22 71 -71zM965 631q0 59 -33 94t-90 35q-72 0 -125 -62q-51 -60 -51 -139q3 -55 36 -94
q35 -41 89 -41q68 0 122 63q52 64 52 144z" />
    <glyph glyph-name="A" unicode="A" horiz-adv-x="1540" 
d="M1157 0l-102 274h-576l-100 -274h-393l573 1493h424l573 -1493h-399zM766 1069l-178 -475h358z" />
    <glyph glyph-name="B" unicode="B" horiz-adv-x="1411" 
d="M1341 422q0 -106 -44 -189t-119 -132.5t-169 -75t-200 -25.5h-655v1493h647q111 0 211.5 -36.5t165.5 -102.5q100 -105 100 -256q0 -108 -63 -190.5t-175 -129.5v-6q139 -21 222 -119q79 -94 79 -231zM903 1038q0 65 -44.5 99t-127.5 34h-211v-270h215q81 0 124.5 36
t43.5 101zM967 465q0 67 -49 104q-46 35 -121 35h-277v-280h277q77 0 123.5 37.5t46.5 103.5z" />
    <glyph glyph-name="C" unicode="C" horiz-adv-x="1607" 
d="M840 -23q-153 0 -301 60q-140 58 -244 162q-101 98 -164 243q-59 145 -59 306q0 162 57 296q59 142 160 246q100 103 248 166q148 62 313 62q127 0 239 -34t191 -91q70 -48 137 -125q104 -124 142 -271l-351 -108q-10 48 -46 106t-93 101q-94 69 -223 69
q-167 0 -279 -121q-110 -122 -110 -294q0 -176 108 -293q108 -123 281 -123q79 0 147.5 27t112.5 71q82 82 108 178l355 -110q-30 -133 -142 -264q-67 -77 -139 -127q-83 -60 -200.5 -96t-247.5 -36z" />
    <glyph glyph-name="D" unicode="D" horiz-adv-x="1558" 
d="M649 0h-495v1493h495q177 1 327.5 -46t264.5 -137t179 -233.5t65 -324.5q0 -178 -64.5 -323.5t-181.5 -238.5q-235 -190 -590 -190zM651 1147h-121v-799h119q197 0 323 105.5t126 296.5q0 94 -35 171.5t-96 125.5q-124 100 -316 100z" />
    <glyph glyph-name="E" unicode="E" horiz-adv-x="1304" 
d="M154 0v1493h1044v-334h-672v-244h611v-321h-611v-258h676v-336h-1048z" />
    <glyph glyph-name="F" unicode="F" horiz-adv-x="1269" 
d="M1192 1151h-664v-270h600v-330h-600v-551h-374v1493h1038v-342z" />
    <glyph glyph-name="G" unicode="G" horiz-adv-x="1628" 
d="M741 817h824v-147q0 -141 -51 -268.5t-144 -221.5q-92 -96 -226.5 -149.5t-291.5 -53.5q-219 0 -399 101q-177 98 -279 274q-102 173 -102 396q0 153 61 296q64 143 164 246q103 100 250 166q148 62 305 62q236 0 405 -105q81 -55 134 -113q105 -113 145 -251l-367 -97
q-15 68 -88 144q-38 37 -99.5 59.5t-133.5 22.5q-167 0 -285 -121q-112 -118 -112 -307q0 -186 112 -310q113 -125 289 -125q114 0 205 58q93 57 114 141h-430v303z" />
    <glyph glyph-name="H" unicode="H" horiz-adv-x="1613" 
d="M1083 0v582h-553v-582h-376v1493h376v-563h553v563h377v-1493h-377z" />
    <glyph glyph-name="I" unicode="I" horiz-adv-x="686" 
d="M154 0v1493h378v-1493h-378z" />
    <glyph glyph-name="J" unicode="J" horiz-adv-x="1245" 
d="M582 -20q-235 -5 -384.5 134.5t-148.5 374.5v164h363v-151q0 -82 44 -127t115 -45q69 0 111.5 46t42.5 120v997h379v-993q0 -239 -148 -381q-142 -139 -374 -139z" />
    <glyph glyph-name="K" unicode="K" horiz-adv-x="1456" 
d="M1004 0l-472 707v-707h-378v1493h378v-641l461 641h443l-512 -709l549 -784h-469z" />
    <glyph glyph-name="L" unicode="L" horiz-adv-x="1183" 
d="M1157 0h-1003v1493h376v-1151h627v-342z" />
    <glyph glyph-name="M" unicode="M" horiz-adv-x="2007" 
d="M1485 0v950h-2l-365 -950h-231l-369 938h-4v-938h-360v1493h483l367 -915l350 915h499v-1493h-368z" />
    <glyph glyph-name="N" unicode="N" horiz-adv-x="1648" 
d="M1079 0l-549 885h-2v-885h-374v1493h421l543 -872h2v872h375v-1493h-416z" />
    <glyph glyph-name="O" unicode="O" horiz-adv-x="1699" 
d="M70 748q0 214 106 389q104 176 285 280q180 101 393 101q214 0 391 -101q178 -100 281 -276q104 -174 104 -389q0 -160 -61 -303q-67 -150 -166 -246q-110 -107 -250 -164q-145 -62 -303 -62q-216 0 -391 103q-176 96 -285 276q-104 177 -104 392zM455 750
q0 -172 114 -295q116 -125 281 -125q167 0 283 125q114 126 114 295q2 108 -50 204.5t-145.5 155.5t-201.5 57q-111 0 -203 -59q-91 -58 -141 -154q-51 -92 -51 -204z" />
    <glyph glyph-name="P" unicode="P" horiz-adv-x="1343" 
d="M530 514v-514h-376v1493h583q248 0 400 -119q159 -124 159 -366q0 -121 -44.5 -217.5t-125.5 -155.5q-160 -121 -409 -121h-187zM707 1163h-177v-327h179q103 0 157 40.5t54 116.5q0 170 -213 170z" />
    <glyph glyph-name="Q" unicode="Q" horiz-adv-x="1703" 
d="M1653 195l-205 -234l-164 148q-196 -132 -434 -132q-216 0 -391 103q-176 96 -285 276q-104 177 -104 392q0 214 106 389q104 176 285 280q180 101 393 101q214 0 391 -101q178 -100 281 -276q104 -174 104 -389q0 -231 -127 -426zM506 954q-51 -92 -51 -204
q0 -111 51 -207q50 -96 141 -154q91 -61 203 -61q80 0 154 30l-205 181l205 235l213 -192q32 74 32 168q2 107 -50.5 204t-146.5 156t-202 57q-111 0 -203 -59q-91 -58 -141 -154z" />
    <glyph glyph-name="R" unicode="R" horiz-adv-x="1415" 
d="M1360 0h-402l-274 524h-154v-524h-376v1493h612q254 0 408 -121q151 -124 151 -358q0 -157 -71 -264t-203 -162zM530 1167v-321h207q103 0 157 39t54 114q0 78 -53.5 123t-159.5 45h-205z" />
    <glyph glyph-name="S" unicode="S" horiz-adv-x="1323" 
d="M680 -20q-273 0 -428 129q-157 130 -197 348l338 80q10 -82 53.5 -139t106.5 -81q61 -22 129 -22q93 0 139 43q45 45 45 100q0 95 -127 119l-207 39q-191 41 -305 152q-114 117 -114 288q0 101 44.5 192.5t121.5 155.5q75 63 176 98.5t209 35.5q213 0 350 -95
q61 -43 106 -100q83 -107 99 -236l-330 -94q-14 97 -73 153t-154 56q-81 0 -127 -43q-48 -45 -48 -94q0 -102 111 -123l215 -41q208 -40 322 -160q112 -118 112 -288q0 -185 -149 -328q-72 -67 -181.5 -106t-236.5 -39z" />
    <glyph glyph-name="T" unicode="T" horiz-adv-x="1290" 
d="M834 1151v-1151h-377v1151h-422v342h1220v-342h-421z" />
    <glyph glyph-name="U" unicode="U" horiz-adv-x="1523" 
d="M1004 1493h380v-899q0 -288 -157 -453q-154 -161 -469 -161q-324 0 -473 172q-146 165 -146 438v903h379v-897q0 -119 62 -193q61 -73 182 -73q136 0 192 82q50 73 50 176v905z" />
    <glyph glyph-name="V" unicode="V" horiz-adv-x="1505" 
d="M950 0h-397l-535 1493h414l326 -987l325 987h406z" />
    <glyph glyph-name="W" unicode="W" horiz-adv-x="2283" 
d="M1143 1010h-4l-305 -1010h-373l-438 1493h393l252 -944h6l287 944h362l295 -946h4l258 946h381l-440 -1493h-379z" />
    <glyph glyph-name="X" unicode="X" horiz-adv-x="1462" 
d="M1038 0l-309 473l-311 -473h-428l522 764l-496 729h435l286 -440l285 440h422l-490 -727l519 -766h-435z" />
    <glyph glyph-name="Y" unicode="Y" horiz-adv-x="1464" 
d="M922 575v-575h-379v575l-533 918h426l299 -535l303 535h416z" />
    <glyph glyph-name="Z" unicode="Z" horiz-adv-x="1339" 
d="M1249 336v-336h-1175v317l688 844h-656v332h1143v-315l-692 -842h692z" />
    <glyph glyph-name="bracketleft" unicode="[" horiz-adv-x="872" 
d="M156 -246v1899h655v-260h-354v-1381h354v-258h-655z" />
    <glyph glyph-name="backslash" unicode="\" horiz-adv-x="1107" 
d="M51 1554h322l682 -1564h-322z" />
    <glyph glyph-name="bracketright" unicode="]" horiz-adv-x="872" 
d="M61 -246v258h355v1381h-355v260h656v-1899h-656z" />
    <glyph glyph-name="asciicircum" unicode="^" horiz-adv-x="1249" 
d="M852 860l-227 377l-224 -377h-335l411 633h297l410 -633h-332z" />
    <glyph glyph-name="underscore" unicode="_" horiz-adv-x="1110" 
d="M0 -365v271h1110v-271h-1110z" />
    <glyph glyph-name="grave" unicode="`" horiz-adv-x="647" 
d="M410 1561l213 -373h-275l-323 373h385z" />
    <glyph glyph-name="a" unicode="a" horiz-adv-x="1142" 
d="M541 764q-57 0 -99.5 -31t-52.5 -80l-303 66q13 81 60.5 146.5t115.5 103.5q140 73 291 73q287 0 416 -186q65 -100 65 -233v-459q0 -101 8 -164h-346q-8 41 -8 119l-4 2q-120 -141 -307 -141q-127 0 -221 88q-90 84 -90 213q0 198 221 278q117 43 262 43h53
q34 0 54 16.5t20 45.5q0 43 -36.5 71.5t-98.5 28.5zM520 231q69 0 112.5 40t43.5 106v31h-127q-43 0 -84 -23q-37 -24 -37 -68q0 -35 27.5 -60.5t64.5 -25.5z" />
    <glyph glyph-name="b" unicode="b" horiz-adv-x="1320" 
d="M1255 510q0 -100 -34.5 -195.5t-96.5 -171.5q-63 -75 -155.5 -119t-196.5 -44q-177 0 -287 143h-6v-123h-360v1554h362v-657h4q52 67 129 104t164 37q138 0 248 -73q106 -70 170 -195q59 -121 59 -260zM885 512q0 80 -60 143q-62 62 -143 62q-84 0 -143 -62
q-60 -60 -60 -143q0 -87 60 -147q59 -62 143 -62q81 0 143 62q60 63 60 147z" />
    <glyph glyph-name="c" unicode="c" horiz-adv-x="1169" 
d="M621 -23q-149 0 -281 66q-129 69 -201 190q-76 119 -76 277q0 110 45.5 210t122.5 171q78 70 181.5 110.5t212.5 40.5q245 0 393 -161q76 -86 100 -195l-319 -96q-20 58 -67 91.5t-109 33.5q-84 0 -138 -60q-55 -58 -55 -143q0 -86 53 -145q51 -60 142 -60q58 0 106.5 34
t71.5 91l321 -96q-46 -169 -185.5 -265.5t-317.5 -93.5z" />
    <glyph glyph-name="d" unicode="d" horiz-adv-x="1320" 
d="M541 -20q-132 0 -244 71q-113 75 -170 195q-61 122 -61 266q0 112 39 211t108 168q66 69 154.5 108t181.5 39q52 0 121 -20q91 -22 161 -117h9v653h360v-1554h-358v125h-8q-115 -145 -293 -145zM782 367q60 60 60 145q0 83 -60 143q-62 62 -143 62q-84 0 -143 -62
q-60 -57 -60 -143q0 -88 60 -145q59 -62 143 -62q81 0 143 62z" />
    <glyph glyph-name="e" unicode="e" horiz-adv-x="1189" 
d="M1122 418h-706q15 -75 73 -115q55 -43 134 -43q55 0 101.5 27t76.5 75l299 -104q-63 -139 -189.5 -210t-296.5 -71q-149 0 -274 70q-128 68 -201 191q-76 122 -76 274q0 144 74 268q75 122 199 193q125 67 270 67t264 -67q122 -65 189 -185q67 -119 67 -264
q0 -77 -4 -106zM600 764q-62 0 -115 -41q-49 -41 -65 -105h354q-9 67 -56 106.5t-118 39.5z" />
    <glyph glyph-name="f" unicode="f" horiz-adv-x="872" 
d="M852 1532v-281q-43 11 -104 11q-80 0 -116 -40.5t-36 -123.5v-80h246v-297h-246v-721h-360v721h-187v297h187v86q0 201 104 323q113 132 330 132q106 0 182 -27z" />
    <glyph glyph-name="g" unicode="g" horiz-adv-x="1310" 
d="M829 31v123h-6q-113 -146 -280 -146q-211 0 -342 146q-133 145 -133 364q0 112 38 210t105 163q67 67 153.5 104t180.5 37q173 0 282 -137h7v123h358v-967q0 -263 -162 -409q-166 -152 -426 -152q-114 0 -214 32.5t-167 86.5q-133 111 -157 248l321 96q14 -68 69.5 -110
t133.5 -42q115 0 177 57.5t62 172.5zM776 379q58 58 58 141q0 84 -58 142q-58 55 -141 55t-141 -58q-56 -56 -56 -141q0 -82 56 -141q58 -58 141 -58q84 0 141 60z" />
    <glyph glyph-name="h" unicode="h" horiz-adv-x="1239" 
d="M1130 0h-362v553q0 69 -37 111q-37 43 -102 43q-67 0 -107.5 -41.5t-40.5 -112.5v-553h-362v1554h362v-655h2q55 68 132.5 103.5t158.5 35.5q78 0 140 -25t101.5 -66.5t66 -97t37.5 -113.5t11 -120v-616z" />
    <glyph glyph-name="i" unicode="i" horiz-adv-x="604" 
d="M301 1155q-85 0 -147 62q-64 61 -64 145q0 90 64 151q62 62 147 62q88 0 150 -62q61 -64 61 -151q0 -84 -61 -145q-62 -62 -150 -62zM483 0h-364v1018h364v-1018z" />
    <glyph glyph-name="j" unicode="j" horiz-adv-x="618" 
d="M317 1155q-85 0 -147 62q-64 61 -64 145q0 90 64 151q62 62 147 62q90 0 152 -62q61 -64 61 -151q0 -84 -61 -145q-62 -62 -152 -62zM133 1018h367v-1108q0 -184 -103 -299q-104 -113 -301 -113q-73 0 -119 10q-54 9 -71 19v285q53 -11 88 -11q139 0 139 119v1098z" />
    <glyph glyph-name="k" unicode="k" horiz-adv-x="1218" 
d="M795 0l-306 496h-8v-496h-362v1554h362v-958l307 422h418l-342 -473l355 -545h-424z" />
    <glyph glyph-name="l" unicode="l" horiz-adv-x="604" 
d="M119 0v1554h366v-1554h-366z" />
    <glyph glyph-name="m" unicode="m" horiz-adv-x="1869" 
d="M1120 0h-360v555q0 62 -35 109q-34 43 -98 43q-69 0 -107.5 -40.5t-38.5 -113.5v-553h-362v1018h360v-127h2q54 72 131 109.5t160 37.5q199 0 291 -157q142 157 344 157q224 0 309 -188q45 -104 45 -234v-616h-362v557q0 65 -35 107.5t-96 42.5q-71 0 -109.5 -39.5
t-38.5 -112.5v-555z" />
    <glyph glyph-name="n" unicode="n" horiz-adv-x="1239" 
d="M1130 0h-362v551q0 71 -37 113q-37 43 -102 43q-67 0 -107.5 -41.5t-40.5 -114.5v-551h-362v1018h360v-127h2q53 72 132 109.5t161 37.5q78 0 140 -25t101.5 -66.5t66 -97t37.5 -113.5t11 -120v-616z" />
    <glyph glyph-name="o" unicode="o" horiz-adv-x="1249" 
d="M63 508q0 110 46.5 211.5t126.5 171.5q77 70 180.5 109.5t212.5 39.5t211.5 -38.5t179.5 -106.5q77 -69 121.5 -169t44.5 -210q0 -112 -45 -213.5t-123 -173.5t-181.5 -112t-215.5 -40t-215 39t-179 109t-120 170.5t-44 212.5zM483 655q-55 -61 -55 -143q0 -85 57 -145
q55 -64 140 -64q83 0 141 64q55 61 55 145q0 82 -55 143q-59 62 -141 62q-83 0 -142 -62z" />
    <glyph glyph-name="p" unicode="p" horiz-adv-x="1320" 
d="M772 -20q-178 0 -283 141h-8v-623h-362v1520h360v-123h6q51 67 129.5 105t163.5 38q138 0 248 -73q106 -70 170 -195q59 -121 59 -260q0 -100 -34.5 -195.5t-96.5 -171.5q-63 -75 -155.5 -119t-196.5 -44zM479 512q0 -87 60 -147q59 -62 143 -62q81 0 143 62
q60 63 60 147q0 80 -60 143q-62 62 -143 62q-84 0 -143 -62q-60 -60 -60 -143z" />
    <glyph glyph-name="q" unicode="q" horiz-adv-x="1320" 
d="M541 -20q-132 0 -244 71q-113 75 -170 195q-61 122 -61 266q0 112 39 211t108 168q66 69 154.5 108t181.5 39q52 0 121 -20q92 -27 164 -117h8v117h358v-1520h-360v625h-9q-110 -143 -290 -143zM782 367q60 60 60 145q0 83 -60 143q-62 62 -143 62q-84 0 -143 -62
q-60 -57 -60 -143q0 -88 60 -145q59 -62 143 -62q81 0 143 62z" />
    <glyph glyph-name="r" unicode="r" horiz-adv-x="870" 
d="M834 1020l-3 -350q-39 8 -88 8q-262 0 -262 -258v-420h-362v1018h360v-148h2q64 103 152 131q76 25 133 25q30 0 68 -6z" />
    <glyph glyph-name="s" unicode="s" horiz-adv-x="1015" 
d="M504 1042q101 0 185.5 -27t135.5 -73q99 -88 105 -188l-295 -56q-14 90 -119 90q-44 0 -68 -19.5t-24 -45.5q0 -44 57 -53l144 -31q125 -23 223 -96q102 -83 102 -217q0 -135 -110 -242q-117 -107 -328 -107q-96 0 -177 21.5t-130 56.5q-52 32 -82 78q-59 75 -66 156
l293 57q6 -51 46 -80.5t100 -29.5q53 0 79.5 20.5t26.5 48.5q0 48 -92 66l-111 22q-135 28 -215 92q-98 76 -98 211q0 143 121 246q124 100 297 100z" />
    <glyph glyph-name="t" unicode="t" horiz-adv-x="901" 
d="M813 293v-281q-74 -28 -192 -28q-181 0 -287 100q-109 97 -109 285v348h-192v301h200v330h355v-330h235v-301h-235v-311q0 -119 131 -119q23 0 94 6z" />
    <glyph glyph-name="u" unicode="u" horiz-adv-x="1239" 
d="M109 1018h362v-551q0 -69 39 -111q38 -47 100 -47q68 0 108 42.5t40 115.5v551h362v-1018h-360v127h-2q-54 -73 -131 -110t-162 -37q-94 0 -165.5 37.5t-111.5 100t-59.5 134t-19.5 149.5v617z" />
    <glyph glyph-name="v" unicode="v" horiz-adv-x="1208" 
d="M784 0h-360l-410 1018h381l211 -588h2l209 588h377z" />
    <glyph glyph-name="w" unicode="w" horiz-adv-x="1736" 
d="M686 0h-340l-323 1018h360l158 -547h2l178 547h295l182 -551h2l170 551h346l-327 -1018h-345l-176 545h-2z" />
    <glyph glyph-name="x" unicode="x" horiz-adv-x="1200" 
d="M786 0l-188 274l-188 -274h-402l381 514l-375 504h406l184 -266l184 266h400l-377 -506l383 -512h-408z" />
    <glyph glyph-name="y" unicode="y" horiz-adv-x="1226" 
d="M594 -502h-387l244 600l-445 920h397l234 -520h2l192 520h383z" />
    <glyph glyph-name="z" unicode="z" horiz-adv-x="1069" 
d="M80 0v287l426 432h-410v299h887v-268l-446 -453h450v-297h-907z" />
    <glyph glyph-name="braceleft" unicode="{" horiz-adv-x="892" 
d="M547 432l-15 -141q-11 -97 -6.5 -159t45.5 -91t134 -29h124v-258h-153q-133 0 -219 21.5t-146 72.5q-117 102 -90 363l19 188q9 96 -35 129q-46 32 -162 35v287q115 0 162 33q44 28 35 129l-19 188q-27 262 90 361q60 50 146.5 71t218.5 21h153v-260h-124
q-93 1 -134 -26.5t-45.5 -88.5t6.5 -158l15 -141q24 -226 -230 -270v-7q129 -20 185 -90t45 -180z" />
    <glyph glyph-name="bar" unicode="|" horiz-adv-x="608" 
d="M156 -221v1921h297v-1921h-297z" />
    <glyph glyph-name="braceright" unicode="}" horiz-adv-x="892" 
d="M360 291l-14 141q-11 110 44.5 180t184.5 90v7q-253 44 -229 270l14 141q11 97 6.5 158t-45 88.5t-133.5 26.5h-127v260h156q132 0 218.5 -21t146.5 -71q117 -99 90 -361l-19 -188q-12 -99 37 -129q44 -33 160 -33v-287q-117 -3 -160 -35q-49 -34 -37 -129l19 -188
q27 -261 -90 -363q-60 -51 -146 -72.5t-219 -21.5h-156v258h127q93 0 133.5 29t45 91t-6.5 159z" />
    <glyph glyph-name="asciitilde" unicode="~" horiz-adv-x="1263" 
d="M836 387q-61 0 -117 23q-52 20 -105 51q-48 33 -90 51q-48 25 -80 25q-84 0 -157 -117l-215 178q72 126 155.5 191t196.5 65q59 0 123 -25q46 -15 108 -51q53 -33 88 -51q45 -25 72 -25q85 0 158 113l217 -174q-48 -82 -94 -133t-111 -86q-68 -35 -149 -35z" />
    <glyph glyph-name="uni00A0" unicode="&#xa0;" horiz-adv-x="446" 
 />
    <glyph glyph-name="exclamdown" unicode="&#xa1;" horiz-adv-x="641" 
d="M526 834q0 -86 -59 -148q-61 -61 -148 -61q-86 0 -147 61t-61 148q0 86 61 147t147 61q87 0 148 -61q59 -62 59 -147zM125 -256l31 766h329l31 -764v-221h-391v219z" />
    <glyph glyph-name="cent" unicode="&#xa2;" horiz-adv-x="1208" 
d="M821 428l318 -100q-30 -98 -98.5 -175.5t-157.5 -117.5q-88 -40 -189 -49v-181h-137v183q-208 21 -344 166q-137 143 -137 356q0 100 37.5 192.5t103.5 161.5q143 143 340 170v180h137v-178q212 -23 344 -166q71 -77 95 -176l-318 -100q-36 99 -125 119v-406
q87 21 131 121zM440 512q0 -70 31.5 -123t89.5 -74v390q-56 -22 -88.5 -74t-32.5 -119z" />
    <glyph glyph-name="sterling" unicode="&#xa3;" horiz-adv-x="1355" 
d="M963 510l325 -21q0 -212 -129 -350q-127 -139 -332 -139h-729v285q95 43 158 118q72 78 72 168q0 19 -4 47h-215v244h141q-33 112 -33 187q0 131 70 243q73 111 186 168q122 58 254 58q123 0 223 -40t162 -108q118 -136 121 -307l-352 -55q-1 89 -43.5 139.5t-114.5 50.5
q-66 0 -107 -41q-43 -46 -43 -113q0 -51 45 -182h355v-244h-293v-16q0 -82 -39.5 -156.5t-108.5 -121.5h244q79 0 133 51q54 54 54 135z" />
    <glyph glyph-name="currency" unicode="&#xa4;" horiz-adv-x="1275" 
d="M178 516q0 118 53 213l-157 162l192 192l164 -168q100 50 207 50q118 0 207 -50l166 166l190 -190l-158 -162q56 -92 56 -213q0 -111 -56 -217l160 -158l-190 -192l-166 166q-94 -47 -209 -47q-113 0 -207 47l-166 -166l-190 194l159 160q-55 91 -55 213zM457 514
q0 -77 51 -125q49 -49 127 -49q80 0 129 49q51 48 51 125q0 81 -51 129q-47 47 -129 47q-80 0 -127 -47q-51 -48 -51 -129z" />
    <glyph glyph-name="yen" unicode="&#xa5;" horiz-adv-x="1507" 
d="M942 496h412v-217h-412v-279h-377v279h-407v217h407v116h-407v217h317l-416 664h433l266 -479l268 479h422l-416 -664h322v-217h-412v-116z" />
    <glyph glyph-name="brokenbar" unicode="&#xa6;" horiz-adv-x="604" 
d="M154 1700h297v-746h-297v746zM154 522h297v-743h-297v743z" />
    <glyph glyph-name="section" unicode="&#xa7;" horiz-adv-x="1269" 
d="M748 322q0 50 -107 77l-188 43q-381 92 -381 285q0 173 192 240q-102 85 -102 207q0 112 67 188q70 79 177 119q107 37 237 37q328 0 487 -218l-217 -174q-111 123 -278 123q-39 2 -75.5 -17t-37.5 -56q0 -53 107 -80l194 -45q375 -85 375 -285q0 -167 -192 -234
q46 -37 73 -91t27 -113q0 -86 -41 -156t-111 -111q-136 -84 -327 -84q-163 0 -289 57.5t-203 164.5l217 174q109 -127 283 -127q39 0 76 19t37 57zM788 637q45 0 76 19.5t31 56.5q0 27 -34 50t-83 34l-184 45q-66 16 -115 16q-46 0 -76 -19t-30 -57q0 -27 32 -49.5t84 -34.5
l181 -45q69 -16 118 -16z" />
    <glyph glyph-name="dieresis" unicode="&#xa8;" horiz-adv-x="960" 
d="M416 1364q0 -81 -54 -135q-53 -53 -137 -53q-83 0 -133 53q-55 55 -55 135q0 82 55 137q53 53 133 53q81 0 137 -53q54 -54 54 -137zM911 1364q0 -82 -53 -135t-137 -53q-82 0 -135 53q-54 57 -54 135q0 81 56 137q53 53 133 53q81 0 137 -53q53 -56 53 -137z" />
    <glyph glyph-name="copyright" unicode="&#xa9;" horiz-adv-x="1685" 
d="M1139 41q-139 -60 -296 -60t-296 60q-144 60 -246 162q-105 105 -164 243q-61 143 -61 302t61 299q60 141 164 245q101 101 246 164q142 62 295 62q157 0 299 -62q137 -57 245 -162q105 -105 162 -243q62 -145 62 -299q0 -157 -62 -299q-62 -145 -166 -246
q-101 -104 -243 -166zM842 1389q-127 0 -244 -50t-201 -137q-80 -77 -133 -203q-49 -119 -49 -247q0 -129 49 -248t135 -205q90 -90 201 -137q114 -51 242 -51q125 0 240.5 48t201.5 134t135 205.5t49 249.5q0 175 -82 321q-83 147 -229 234q-145 86 -315 86zM1018 680
l285 -86q-44 -153 -162 -234q-125 -84 -281 -84q-136 0 -249 60.5t-181 169.5q-68 112 -68 246q0 129 70 241q66 105 182 168q113 58 246 58q156 0 281 -82q125 -87 155 -232l-282 -86q-17 52 -58.5 82.5t-95.5 30.5q-73 0 -123 -53q-49 -55 -49 -129q0 -75 49 -127
q48 -54 123 -54q54 0 96 30t62 81z" />
    <glyph glyph-name="ordfeminine" unicode="&#xaa;" horiz-adv-x="1048" 
d="M657 831h-4q-72 -106 -204 -106q-143 0 -236 109q-96 105 -96 262q-3 154 100.5 261.5t237.5 104.5q43 0 104 -22q56 -24 94 -80h4v88h250v-711h-250v94zM616 993q41 41 41 103q0 59 -41 100q-40 43 -100 43q-57 0 -100 -43q-41 -44 -41 -100q0 -59 41 -103
q43 -43 100 -43q60 0 100 43zM125 573h782v-223h-782v223z" />
    <glyph glyph-name="guillemotleft" unicode="&#xab;" horiz-adv-x="1325" 
d="M676 836l-268 -261l268 -264l-184 -176l-445 438l445 441zM1239 836l-266 -261l266 -264l-182 -176l-445 438l445 441z" />
    <glyph glyph-name="logicalnot" unicode="&#xac;" horiz-adv-x="1380" 
d="M1257 440h-337v348h-840v297h1177v-645z" />
    <glyph glyph-name="uni00AD" unicode="&#xad;" horiz-adv-x="851" 
d="M113 469v303h626v-303h-626z" />
    <glyph glyph-name="registered" unicode="&#xae;" horiz-adv-x="1220" 
d="M1065 1260q70 -128 70 -265q0 -138 -70 -262q-70 -119 -191 -190q-126 -72 -264 -72q-139 0 -262 72q-118 68 -190 190q-70 119 -70 262t70 265q72 122 190 190q124 70 262 70q136 0 264 -70q121 -71 191 -190zM897 705q119 122 119 292q0 171 -119 293
q-118 121 -287 121q-167 0 -288 -121q-119 -125 -119 -293q0 -167 119 -292q121 -121 288 -121q169 0 287 121zM547 696h-152v600h248q103 0 163 -50t60 -142q0 -126 -110 -172l121 -236h-162l-107 211h-61v-211zM547 1034h84q84 0 84 64q0 67 -84 67h-84v-131z" />
    <glyph glyph-name="degree" unicode="&#xb0;" horiz-adv-x="884" 
d="M440 752q-154 0 -264 110t-110 268q0 155 110 265t264 110q159 0 269 -110t110 -265q0 -158 -110 -268t-269 -110zM440 1274q-58 0 -102 -41q-41 -44 -41 -103q0 -61 43 -104q40 -43 100 -43q63 0 103 43q43 43 43 104q0 58 -43 101q-46 43 -103 43z" />
    <glyph glyph-name="plusminus" unicode="&#xb1;" horiz-adv-x="1257" 
d="M117 1030h354v299h315v-299h355v-303h-355v-301h-315v301h-354v303zM117 279h1024v-308h-1024v308z" />
    <glyph glyph-name="uni00B2" unicode="&#xb2;" horiz-adv-x="915" 
d="M813 811h-717v63q0 118 56 201q54 87 186 158l104 57q99 52 99 109q0 27 -22.5 46t-61.5 19q-17 0 -32 -5t-32 -18t-27 -43t-10 -73l-256 29q1 85 31.5 153.5t83.5 108.5q100 80 242 80q160 0 254 -82q98 -82 98 -209q0 -177 -213 -289l-96 -51q-15 -8 -28 -15t-20 -11.5
t-8 -4.5h369v-223z" />
    <glyph glyph-name="uni00B3" unicode="&#xb3;" horiz-adv-x="886" 
d="M434 1024q43 0 70.5 21t27.5 59q0 31 -28.5 51.5t-65.5 20.5q-30 0 -84 -21l-100 156l182 133h-344v233h701v-204l-187 -138q80 -26 139 -94q58 -64 58 -147q0 -96 -53 -164q-48 -68 -134 -105q-74 -32 -174 -32q-139 0 -239 69q-103 74 -129 203l233 72q11 -48 46 -80.5
t81 -32.5z" />
    <glyph glyph-name="acute" unicode="&#xb4;" horiz-adv-x="651" 
d="M33 1188l213 373h385l-324 -373h-274z" />
    <glyph glyph-name="uni00B5" unicode="&#xb5;" horiz-adv-x="1290" 
d="M791 125h-5q-33 -59 -86 -100q-53 -39 -106 -39q-68 0 -107 45v-344h-348v1331h363v-541q0 -74 37 -119q40 -49 102 -49q70 0 108.5 46t38.5 122v541h363v-1018h-360v125z" />
    <glyph glyph-name="paragraph" unicode="&#xb6;" horiz-adv-x="1120" 
d="M586 659h-68q-121 -2 -228.5 55t-170.5 154.5t-60 208.5q-3 111 60 208.5t170.5 154t228.5 53.5h432v-1493h-364v659z" />
    <glyph glyph-name="middot" unicode="&#xb7;" horiz-adv-x="616" 
d="M307 381q-90 0 -155 65q-68 68 -68 156q0 92 68 160q65 65 155 65q92 0 160 -65q63 -66 63 -160t-65 -156q-65 -65 -158 -65z" />
    <glyph glyph-name="uni00B9" unicode="&#xb9;" horiz-adv-x="768" 
d="M645 1677v-866h-303v559l-209 -117l-119 209l377 215h254z" />
    <glyph glyph-name="ordmasculine" unicode="&#xba;" horiz-adv-x="1005" 
d="M113 1094q0 155 116 262q118 106 275 106q158 0 274 -104q113 -104 113 -260q0 -158 -115 -267q-115 -106 -276 -106q-162 0 -275 104q-112 106 -112 265zM406 1196q-39 -42 -39 -100q0 -61 39 -103q38 -41 96 -41q60 0 98 41q39 48 39 103t-39 100q-41 41 -98 41
q-58 0 -96 -41zM125 573h756v-223h-756v223z" />
    <glyph glyph-name="guillemotright" unicode="&#xbb;" horiz-adv-x="1325" 
d="M354 573l-268 263l184 178l445 -441l-445 -438l-184 176zM918 573l-267 263l183 178l444 -441l-444 -438l-183 176z" />
    <glyph glyph-name="onequarter" unicode="&#xbc;" horiz-adv-x="2097" 
d="M170 1069l-119 211l379 213h252v-864h-303v559zM1661 1493l-977 -1493h-324l979 1493h322zM1604 137h-461v281l391 446h358v-506h125v-221h-125v-137h-288v137zM1604 612l-218 -254h218v254z" />
    <glyph glyph-name="onehalf" unicode="&#xbd;" horiz-adv-x="2058" 
d="M170 1069l-119 211l379 213h252v-864h-303v559zM1659 1493l-977 -1493h-324l981 1493h320zM1249 0v63q0 115 56 201q58 90 186 158l106 57q99 53 99 109q0 25 -23.5 45t-62.5 20q-16 0 -30.5 -5t-31.5 -18t-27.5 -43t-11.5 -73l-254 29q0 84 30.5 151.5t82.5 108.5
q102 82 242 82q155 0 256 -84q96 -81 96 -207q0 -179 -213 -289l-96 -51q-47 -24 -54 -31h367v-223h-717z" />
    <glyph glyph-name="threequarters" unicode="&#xbe;" horiz-adv-x="2129" 
d="M428 840q43 0 70.5 21t27.5 59q0 32 -28.5 52.5t-65.5 20.5q-32 0 -84 -20l-102 153l184 136h-342v231h700v-203l-186 -139q78 -23 137 -92q58 -67 58 -148q0 -71 -30.5 -130t-82.5 -95q-107 -78 -248 -78q-135 0 -239 72q-103 71 -127 203l231 71q11 -49 46 -81.5
t81 -32.5zM1710 1493l-979 -1493h-321l979 1493h321zM1651 137h-461v281l391 446h358v-506h125v-221h-125v-137h-288v137zM1651 612l-217 -254h217v254z" />
    <glyph glyph-name="questiondown" unicode="&#xbf;" horiz-adv-x="1134" 
d="M782 834q0 -86 -59 -148q-61 -61 -148 -61t-145 61q-61 61 -61 148q0 86 61 147q58 61 145 61t148 -61q59 -62 59 -147zM406 520h333q9 -43 9 -67q0 -115 -111 -226q-10 -10 -28.5 -29t-33 -33.5t-28.5 -27.5q-111 -107 -111 -188q0 -52 41 -90q41 -35 96 -35
q81 0 123 57q41 55 41 148l344 -41v-25q0 -141 -73 -248q-67 -103 -189 -161q-120 -54 -256 -54q-204 0 -346 111q-72 55 -111.5 137t-39.5 182q0 64 24 138q12 37 66 110q8 14 45 51l45 47q16 15 53 50q49 43 72 82q24 43 32 94z" />
    <glyph glyph-name="Agrave" unicode="&#xc0;" horiz-adv-x="1540" 
d="M709 1999l213 -375h-275l-323 375h385zM559 1493h424l573 -1493h-399l-102 274h-576l-100 -274h-393zM946 594l-180 475l-178 -475h358z" />
    <glyph glyph-name="Aacute" unicode="&#xc1;" horiz-adv-x="1540" 
d="M631 1624l211 375h387l-326 -375h-272zM559 1493h424l573 -1493h-399l-102 274h-576l-100 -274h-393zM946 594l-180 475l-178 -475h358z" />
    <glyph glyph-name="Acircumflex" unicode="&#xc2;" horiz-adv-x="1540" 
d="M604 1987h336l238 -359h-289l-117 193l-117 -193h-293zM559 1493h424l573 -1493h-399l-102 274h-576l-100 -274h-393zM946 594l-180 475l-178 -475h358z" />
    <glyph glyph-name="Atilde" unicode="&#xc3;" horiz-adv-x="1540" 
d="M559 1493h424l573 -1493h-399l-102 274h-576l-100 -274h-393zM932 1628q-76 0 -168 51q-67 35 -68 35q-39 17 -63 17q-58 0 -64 -101h-190l-2 53q0 129 55 205q60 78 178 78q75 0 164 -51q11 -5 26 -13t25 -12.5t17 -7.5q40 -16 61 -16q55 0 70 63l4 33h184l2 -57
q3 -124 -53 -201q-58 -76 -178 -76zM946 594l-180 475l-178 -475h358z" />
    <glyph glyph-name="Adieresis" unicode="&#xc4;" horiz-adv-x="1540" 
d="M702 1839q0 -82 -53 -135q-55 -55 -137 -55q-81 0 -133 55q-55 55 -55 135q0 82 55 137q54 54 133 54q80 0 137 -54q53 -53 53 -137zM1217 1839q0 -78 -54 -135q-55 -55 -137 -55q-80 0 -135 55q-53 56 -53 135q0 81 53 137q57 54 135 54q80 0 137 -54q54 -57 54 -137z
M559 1493h424l573 -1493h-399l-102 274h-576l-100 -274h-393zM946 594l-180 475l-178 -475h358z" />
    <glyph glyph-name="Aring" unicode="&#xc5;" horiz-adv-x="1540" 
d="M379 0h-393l540 1409q-59 77 -59 170q0 119 90 203q87 84 211 84t211 -84q88 -82 88 -203q0 -92 -53 -166l542 -1413h-399l-102 274h-576zM846 1657q-36 31 -78 31q-47 0 -78 -31q-33 -33 -33 -80t33 -76q29 -33 78 -33q45 0 78 33q31 31 31 76q0 44 -31 80zM766 1069
l-178 -475h358z" />
    <glyph glyph-name="AE" unicode="&#xc6;" horiz-adv-x="2048" 
d="M1942 1159h-662v-244h600v-321h-600v-258h666v-336h-1031v236h-436l-106 -236h-396l701 1493h1264v-334zM897 1165l-272 -610h290v610h-18z" />
    <glyph glyph-name="Ccedilla" unicode="&#xc7;" horiz-adv-x="1607" 
d="M995 -193q0 -158 -96 -233q-101 -72 -264 -72q-76 0 -139 17v200q49 -8 100 -8q81 0 122.5 47t41.5 133q0 44 -17 93q-189 21 -344 127t-239 270q-88 166 -88 367q0 162 57 296q59 142 160 246q100 103 248 166q148 62 313 62q127 0 239 -34t191 -91q70 -48 137 -125
q104 -124 142 -271l-351 -108q-10 48 -46 106t-93 101q-94 69 -223 69q-167 0 -279 -121q-110 -122 -110 -294q0 -176 108 -293q108 -123 281 -123q79 0 147.5 27t112.5 71q82 82 108 178l355 -110q-32 -128 -121 -240q-55 -68 -117 -121q-70 -58 -166.5 -99t-203.5 -54
q34 -81 34 -179z" />
    <glyph glyph-name="Egrave" unicode="&#xc8;" horiz-adv-x="1306" 
d="M674 1999l211 -375h-273l-325 375h387zM528 915h611v-321h-611v-258h676v-336h-1050v1493h1044v-334h-670v-244z" />
    <glyph glyph-name="Eacute" unicode="&#xc9;" horiz-adv-x="1306" 
d="M473 1624l213 375h385l-323 -375h-275zM528 915h611v-321h-611v-258h676v-336h-1050v1493h1044v-334h-670v-244z" />
    <glyph glyph-name="Ecircumflex" unicode="&#xca;" horiz-adv-x="1306" 
d="M512 1987h336l237 -359h-288l-117 193l-117 -193h-291zM528 915h611v-321h-611v-258h676v-336h-1050v1493h1044v-334h-670v-244z" />
    <glyph glyph-name="Edieresis" unicode="&#xcb;" horiz-adv-x="1304" 
d="M606 1839q0 -79 -53 -135q-55 -55 -137 -55q-80 0 -135 55q-54 57 -54 135q0 80 54 137q57 54 135 54q80 0 137 -54q53 -56 53 -137zM1120 1839q0 -80 -55 -135q-52 -55 -135 -55t-135 55q-54 54 -54 135q0 83 54 137q57 54 135 54q81 0 135 -54q55 -55 55 -137zM526 915
h611v-321h-611v-258h676v-336h-1048v1493h1044v-334h-672v-244z" />
    <glyph glyph-name="Igrave" unicode="&#xcc;" horiz-adv-x="686" 
d="M270 1999l213 -375h-272l-326 375h385zM154 1493h378v-1493h-378v1493z" />
    <glyph glyph-name="Iacute" unicode="&#xcd;" horiz-adv-x="686" 
d="M203 1626l211 375h385l-324 -375h-272zM154 1493h378v-1493h-378v1493z" />
    <glyph glyph-name="Icircumflex" unicode="&#xce;" horiz-adv-x="686" 
d="M174 1987h336l240 -359h-289l-119 193l-115 -193h-293zM154 1493h378v-1493h-378v1493z" />
    <glyph glyph-name="Idieresis" unicode="&#xcf;" horiz-adv-x="686" 
d="M289 1839q0 -82 -53 -135q-55 -55 -136 -55q-82 0 -137 55q-53 56 -53 135q0 82 55 137q54 54 135 54q79 0 136 -54q53 -53 53 -137zM778 1839q0 -80 -55 -135t-135 -55q-83 0 -135 55q-54 54 -54 135q0 83 54 137q57 54 135 54t135 -54q55 -55 55 -137zM154 1493h378
v-1493h-378v1493z" />
    <glyph glyph-name="Eth" unicode="&#xd0;" horiz-adv-x="1619" 
d="M215 1493h496q365 0 596 -186q114 -94 176.5 -236.5t62.5 -318.5q0 -149 -46 -275t-128 -215q-75 -84 -186 -147q-208 -115 -481 -115h-490v594h-174v317h174v582zM588 346h131q200 0 319 107q121 106 121 297q0 181 -119 288q-118 109 -319 109h-133v-236h270v-317h-270
v-248z" />
    <glyph glyph-name="Ntilde" unicode="&#xd1;" horiz-adv-x="1648" 
d="M154 1493h424l542 -872h2v872h373v-1493h-414l-549 885h-2v-885h-376v1493zM987 1628q-76 0 -168 51q-12 6 -27 14t-24.5 13t-15.5 8q-39 17 -64 17q-60 0 -63 -101h-193v53q-3 125 55 205q60 78 179 78q74 0 163 -51q11 -5 26 -13t25 -12.5t17 -7.5q40 -16 61 -16
q56 0 68 63l6 33h185l2 -57q3 -122 -54 -201q-58 -76 -178 -76z" />
    <glyph glyph-name="Ograve" unicode="&#xd2;" horiz-adv-x="1701" 
d="M780 1999l213 -375h-274l-324 375h385zM72 748q0 212 104 389t287 280q180 101 391 101q214 0 391 -101q179 -99 283 -276q102 -170 102 -389q0 -160 -61 -303q-62 -145 -166 -246q-104 -104 -248 -164q-145 -62 -305 -62q-216 0 -391 103q-179 99 -283 276t-104 392z
M455 750q0 -169 114 -295q116 -125 283 -125q164 0 283 125q112 127 112 295q3 107 -49 204t-145 156t-201 57q-111 0 -203 -59q-89 -57 -143 -154q-51 -92 -51 -204z" />
    <glyph glyph-name="Oacute" unicode="&#xd3;" horiz-adv-x="1701" 
d="M711 1624l213 375h385l-326 -375h-272zM72 748q0 212 104 389t287 280q180 101 391 101q214 0 391 -101q179 -99 283 -276q102 -170 102 -389q0 -160 -61 -303q-62 -145 -166 -246q-104 -104 -248 -164q-145 -62 -305 -62q-216 0 -391 103q-179 99 -283 276t-104 392z
M455 750q0 -169 114 -295q116 -125 283 -125q164 0 283 125q112 127 112 295q3 107 -49 204t-145 156t-201 57q-111 0 -203 -59q-89 -57 -143 -154q-51 -92 -51 -204z" />
    <glyph glyph-name="Ocircumflex" unicode="&#xd4;" horiz-adv-x="1701" 
d="M684 1987h336l240 -359h-291l-117 193l-115 -193h-293zM72 748q0 212 104 389t287 280q180 101 391 101q214 0 391 -101q179 -99 283 -276q102 -170 102 -389q0 -160 -61 -303q-62 -145 -166 -246q-104 -104 -248 -164q-145 -62 -305 -62q-216 0 -391 103
q-179 99 -283 276t-104 392zM455 750q0 -169 114 -295q116 -125 283 -125q164 0 283 125q112 127 112 295q3 107 -49 204t-145 156t-201 57q-111 0 -203 -59q-89 -57 -143 -154q-51 -92 -51 -204z" />
    <glyph glyph-name="Otilde" unicode="&#xd5;" horiz-adv-x="1701" 
d="M72 748q0 212 104 389t287 280q180 101 391 101q214 0 391 -101q179 -99 283 -276q102 -170 102 -389q0 -160 -61 -303q-62 -145 -166 -246q-104 -104 -248 -164q-145 -62 -305 -62q-216 0 -391 103q-179 99 -283 276t-104 392zM455 750q0 -169 114 -295
q116 -125 283 -125q164 0 283 125q112 127 112 295q3 107 -49 204t-145 156t-201 57q-111 0 -203 -59q-89 -57 -143 -154q-51 -92 -51 -204zM1014 1628q-76 0 -168 51q-67 35 -68 35q-39 17 -63 17q-58 0 -64 -101h-190l-2 53q0 129 55 205q60 78 178 78q75 0 164 -51
q11 -5 26 -13t25 -12.5t17 -7.5q40 -16 61 -16q55 0 70 63l4 33h184l2 -57q3 -124 -53 -201q-58 -76 -178 -76z" />
    <glyph glyph-name="Odieresis" unicode="&#xd6;" horiz-adv-x="1699" 
d="M780 1839q0 -82 -53 -135q-55 -55 -135 -55q-83 0 -135 55q-56 56 -56 135q0 81 56 137q54 54 135 54q78 0 135 -54q53 -53 53 -137zM1294 1839q0 -82 -53 -135q-55 -55 -135 -55q-83 0 -135 55q-56 56 -56 135q0 81 56 137q54 54 135 54q78 0 135 -54q53 -53 53 -137z
M70 748q0 214 106 389q104 176 285 280q180 101 393 101q214 0 391 -101q178 -100 281 -276q104 -174 104 -389q0 -160 -61 -303q-67 -150 -166 -246q-110 -107 -250 -164q-145 -62 -303 -62q-216 0 -391 103q-176 96 -285 276q-104 177 -104 392zM455 750q0 -172 114 -295
q116 -125 281 -125q167 0 283 125q114 126 114 295q2 108 -50 204.5t-145.5 155.5t-201.5 57q-111 0 -203 -59q-91 -58 -141 -154q-51 -92 -51 -204z" />
    <glyph glyph-name="multiply" unicode="&#xd7;" horiz-adv-x="1206" 
d="M74 909l194 197l334 -336l336 336l195 -197l-334 -334l334 -333l-195 -197l-336 334l-334 -334l-194 197l334 333z" />
    <glyph glyph-name="Oslash" unicode="&#xd8;" horiz-adv-x="1703" 
d="M1630 1409l-166 -176q168 -207 168 -481q0 -160 -61 -303q-62 -145 -166 -246q-105 -105 -250 -164q-145 -62 -303 -62q-245 0 -440 134l-164 -174l-176 159l164 174q-164 209 -164 478q0 214 106 389q104 176 285 280q180 101 393 101q237 0 432 -125l168 178zM854 1171
q-116 0 -205 -57q-93 -57 -145 -156q-51 -97 -51 -206q0 -105 47 -201l540 575q-83 45 -186 45zM854 328q110 0 205 59q87 56 143 156q51 96 51 209q0 110 -49 204l-545 -577q83 -51 195 -51z" />
    <glyph glyph-name="Ugrave" unicode="&#xd9;" horiz-adv-x="1525" 
d="M700 1999l211 -375h-272l-324 375h385zM1006 588v905h380v-899q0 -288 -157 -453q-154 -161 -469 -161q-323 0 -475 172q-146 165 -146 438v903h381v-897q0 -119 62 -193q61 -73 182 -73q136 0 192 82q50 73 50 176z" />
    <glyph glyph-name="Uacute" unicode="&#xda;" horiz-adv-x="1525" 
d="M623 1624l211 375h385l-324 -375h-272zM1386 1493v-899q0 -288 -157 -453q-154 -161 -469 -161q-323 0 -475 172q-146 165 -146 438v903h381v-897q0 -119 62 -193q61 -73 182 -73q136 0 192 82q50 73 50 176v905h380z" />
    <glyph glyph-name="Ucircumflex" unicode="&#xdb;" horiz-adv-x="1525" 
d="M594 1987h336l239 -359h-288l-119 193l-115 -193h-291zM1006 588v905h380v-899q0 -288 -157 -453q-154 -161 -469 -161q-323 0 -475 172q-146 165 -146 438v903h381v-897q0 -119 62 -193q61 -73 182 -73q136 0 192 82q50 73 50 176z" />
    <glyph glyph-name="Udieresis" unicode="&#xdc;" horiz-adv-x="1523" 
d="M694 1839q0 -79 -53 -135q-55 -55 -137 -55q-80 0 -135 55q-54 57 -54 135q0 80 54 137q57 54 135 54q80 0 137 -54q53 -56 53 -137zM1208 1839q0 -79 -53 -135q-55 -55 -137 -55q-80 0 -135 55q-54 57 -54 135q0 80 54 137q57 54 135 54q80 0 137 -54q53 -56 53 -137z
M1384 1493v-899q0 -288 -157 -453q-154 -161 -469 -161q-324 0 -473 172q-146 165 -146 438v903h379v-897q0 -119 62 -193q61 -73 182 -73q136 0 192 82q50 73 50 176v905h380z" />
    <glyph glyph-name="Yacute" unicode="&#xdd;" horiz-adv-x="1464" 
d="M592 1624l213 375h385l-326 -375h-272zM436 1493l299 -535l303 535h416l-532 -918v-575h-379v575l-533 918h426z" />
    <glyph glyph-name="Thorn" unicode="&#xde;" horiz-adv-x="1341" 
d="M528 1247h209q244 0 400 -119q159 -124 159 -366q0 -122 -44.5 -219t-125.5 -156q-166 -119 -411 -119h-187v-268h-374v1493h374v-246zM528 590h181q103 0 157 40.5t54 117.5q0 170 -213 170h-179v-328z" />
    <glyph glyph-name="germandbls" unicode="&#xdf;" horiz-adv-x="1372" 
d="M1038 825l-28 -18q-31 -19 -42.5 -33.5t-11.5 -36.5q0 -23 16.5 -38t53.5 -29l53 -19q114 -43 175 -126t61 -197q0 -68 -25.5 -127t-67.5 -99.5t-96.5 -69.5t-111.5 -42.5t-113 -12.5q-129 0 -235 68q-55 35 -88.5 96.5t-36.5 141.5l258 43q0 -42 25.5 -64t66.5 -22
q35 0 59 24q25 25 25 49q0 33 -24 54t-83 45l-51 20q-227 88 -227 279q0 118 69 194q28 34 74 66l31 20q46 33 64 61t18 68q0 65 -51 94q-54 31 -121 31q-89 0 -144 -67t-55 -174v-1004h-356v1024q0 165 76 287q73 123 196 184q125 61 285 61q75 0 149.5 -15.5t143.5 -49
t121.5 -81t84 -116t31.5 -149.5q0 -116 -41.5 -191.5t-126.5 -128.5z" />
    <glyph glyph-name="agrave" unicode="&#xe0;" horiz-adv-x="1142" 
d="M481 1561l213 -373h-274l-326 373h387zM541 764q-57 0 -99.5 -31t-52.5 -80l-303 66q13 81 60.5 146.5t115.5 103.5q140 73 291 73q287 0 416 -186q65 -100 65 -233v-459q0 -101 8 -164h-346q-8 41 -8 119l-4 2q-120 -141 -307 -141q-127 0 -221 88q-90 84 -90 213
q0 198 221 278q117 43 262 43h53q34 0 54 16.5t20 45.5q0 43 -36.5 71.5t-98.5 28.5zM520 231q69 0 112.5 40t43.5 106v31h-127q-43 0 -84 -23q-37 -24 -37 -68q0 -35 27.5 -60.5t64.5 -25.5z" />
    <glyph glyph-name="aacute" unicode="&#xe1;" horiz-adv-x="1142" 
d="M412 1188l213 373h385l-324 -373h-274zM541 764q-57 0 -99.5 -31t-52.5 -80l-303 66q13 81 60.5 146.5t115.5 103.5q140 73 291 73q287 0 416 -186q65 -100 65 -233v-459q0 -101 8 -164h-346q-8 41 -8 119l-4 2q-120 -141 -307 -141q-127 0 -221 88q-90 84 -90 213
q0 198 221 278q117 43 262 43h53q34 0 54 16.5t20 45.5q0 43 -36.5 71.5t-98.5 28.5zM520 231q69 0 112.5 40t43.5 106v31h-127q-43 0 -84 -23q-37 -24 -37 -68q0 -35 27.5 -60.5t64.5 -25.5z" />
    <glyph glyph-name="acircumflex" unicode="&#xe2;" horiz-adv-x="1142" 
d="M391 1550h336l238 -360h-289l-117 192l-117 -192h-292zM541 764q-57 0 -99.5 -31t-52.5 -80l-303 66q13 81 60.5 146.5t115.5 103.5q140 73 291 73q287 0 416 -186q65 -100 65 -233v-459q0 -101 8 -164h-346q-8 41 -8 119l-4 2q-120 -141 -307 -141q-127 0 -221 88
q-90 84 -90 213q0 198 221 278q117 43 262 43h53q34 0 54 16.5t20 45.5q0 43 -36.5 71.5t-98.5 28.5zM520 231q69 0 112.5 40t43.5 106v31h-127q-43 0 -84 -23q-37 -24 -37 -68q0 -35 27.5 -60.5t64.5 -25.5z" />
    <glyph glyph-name="atilde" unicode="&#xe3;" horiz-adv-x="1142" 
d="M541 764q-57 0 -99.5 -31t-52.5 -80l-303 66q13 81 60.5 146.5t115.5 103.5q140 73 291 73q287 0 416 -186q65 -100 65 -233v-459q0 -101 8 -164h-346q-8 41 -8 119l-4 2q-120 -141 -307 -141q-127 0 -221 88q-90 84 -90 213q0 198 221 278q117 43 262 43h53
q34 0 54 16.5t20 45.5q0 43 -36.5 71.5t-98.5 28.5zM717 1190q-68 0 -170 51q-47 28 -66 35q-33 16 -63 16q-61 0 -64 -100h-192v55q-3 129 55 205t178 76q70 0 164 -49q22 -13 66 -35q43 -17 63 -17q56 0 68 64l4 33h184l2 -56q6 -125 -53 -202q-55 -76 -176 -76zM520 231
q69 0 112.5 40t43.5 106v31h-127q-43 0 -84 -23q-37 -24 -37 -68q0 -35 27.5 -60.5t64.5 -25.5z" />
    <glyph glyph-name="adieresis" unicode="&#xe4;" horiz-adv-x="1142" 
d="M498 1364q0 -79 -56 -135q-50 -53 -135 -53t-135 53q-53 53 -53 135q0 84 53 137q56 53 135 53q82 0 135 -53q56 -56 56 -137zM993 1364q0 -79 -53 -135q-53 -53 -137 -53q-85 0 -135 53q-54 57 -54 135q0 80 54 137q56 53 135 53t135 -53q55 -55 55 -137zM541 764
q-57 0 -99.5 -31t-52.5 -80l-303 66q13 81 60.5 146.5t115.5 103.5q140 73 291 73q287 0 416 -186q65 -100 65 -233v-459q0 -101 8 -164h-346q-8 41 -8 119l-4 2q-120 -141 -307 -141q-127 0 -221 88q-90 84 -90 213q0 198 221 278q117 43 262 43h53q34 0 54 16.5t20 45.5
q0 43 -36.5 71.5t-98.5 28.5zM520 231q69 0 112.5 40t43.5 106v31h-127q-43 0 -84 -23q-37 -24 -37 -68q0 -35 27.5 -60.5t64.5 -25.5z" />
    <glyph glyph-name="aring" unicode="&#xe5;" horiz-adv-x="1142" 
d="M1034 623v-459q0 -101 8 -164h-344q-10 52 -10 119l-2 2q-123 -141 -309 -141q-128 0 -219 88q-90 81 -90 213q0 198 219 278q119 43 262 43h55q34 0 53 16.5t19 45.5q0 43 -36.5 71.5t-98.5 28.5q-57 0 -99.5 -31t-52.5 -80l-303 66q35 185 219 270q-41 65 -41 144
q0 118 90 202q87 84 209 84q125 0 215 -84q88 -85 88 -202q0 -80 -45 -150q102 -50 157.5 -142.5t55.5 -217.5zM643 1210q-36 31 -80 31q-45 0 -76 -31q-32 -32 -32 -77q0 -50 32 -78q33 -33 76 -33q42 0 80 33q31 31 31 78q0 41 -31 77zM676 408h-125q-43 0 -84 -23
q-37 -22 -37 -68q0 -35 27 -60.5t65 -25.5q68 0 111 39.5t43 106.5v31z" />
    <glyph glyph-name="ae" unicode="&#xe6;" horiz-adv-x="1802" 
d="M1733 418h-705q9 -71 66 -113q54 -45 141 -45q24 0 47 6q17 2 43 15q58 30 88 81l297 -104q-127 -281 -493 -281q-125 0 -229 48t-175 135q-157 -183 -410 -183h-12q-134 0 -229 86q-96 90 -96 218q0 198 221 278q117 43 262 43h53q34 0 54 16.5t20 45.5q0 43 -36.5 71.5
t-98.5 28.5q-57 0 -99.5 -31t-52.5 -80l-303 66q13 81 60.5 146.5t115.5 103.5q140 73 291 73q212 0 344 -108q135 106 322 106q145 0 264 -67q119 -65 186 -185q70 -119 70 -264q0 -72 -4 -96zM1212 764q-67 0 -116 -43q-52 -46 -64 -103h354q-10 68 -57 107t-117 39z
M520 231q69 0 112.5 40t43.5 106v31h-127q-43 0 -84 -23q-37 -24 -37 -68q0 -35 27.5 -60.5t64.5 -25.5z" />
    <glyph glyph-name="ccedilla" unicode="&#xe7;" horiz-adv-x="1169" 
d="M776 -193q0 -158 -96 -233q-101 -72 -264 -72q-77 0 -140 17v200q49 -8 101 -8q81 0 122.5 47t41.5 133q0 42 -17 95q-200 30 -329 174q-132 141 -132 350q0 110 45.5 210t122.5 171q78 70 181.5 110.5t212.5 40.5q245 0 393 -161q76 -86 100 -195l-319 -96
q-20 58 -67 91.5t-109 33.5q-84 0 -138 -60q-55 -58 -55 -143q0 -86 53 -145q51 -60 142 -60q58 0 106.5 34t71.5 91l321 -96q-41 -143 -141 -230q-106 -93 -244 -116q37 -81 37 -183z" />
    <glyph glyph-name="egrave" unicode="&#xe8;" horiz-adv-x="1189" 
d="M532 1561l213 -373h-274l-326 373h387zM1122 418h-706q15 -75 73 -115q55 -43 134 -43q113 0 178 102l299 -104q-63 -139 -189.5 -210t-296.5 -71q-148 0 -276 70q-128 68 -201 191q-74 124 -74 274q0 144 74 268q75 122 199 193q125 67 270 67q108 0 204.5 -38.5
t166.5 -108.5q70 -68 109.5 -165t39.5 -204q0 -44 -4 -106zM600 764q-62 0 -115 -41q-49 -41 -65 -105h354q-10 67 -57.5 106.5t-116.5 39.5z" />
    <glyph glyph-name="eacute" unicode="&#xe9;" horiz-adv-x="1187" 
d="M444 1188l213 373h387l-325 -373h-275zM1122 418h-706q15 -74 71 -115q58 -43 136 -43q113 0 178 102l297 -104q-63 -140 -188.5 -210.5t-295.5 -70.5q-148 0 -276 70q-128 68 -201 191q-74 124 -74 274q0 144 74 268q75 122 199 193q125 67 270 67q108 0 204.5 -38.5
t166.5 -108.5q70 -68 109.5 -165t39.5 -204q0 -44 -4 -106zM600 764q-62 0 -115 -41q-49 -41 -65 -105h354q-10 67 -57.5 106.5t-116.5 39.5z" />
    <glyph glyph-name="ecircumflex" unicode="&#xea;" horiz-adv-x="1187" 
d="M442 1550h336l240 -360h-289l-117 192l-116 -192h-291zM1122 418h-706q15 -74 71 -115q58 -43 136 -43q113 0 178 102l297 -104q-63 -140 -188.5 -210.5t-295.5 -70.5q-148 0 -276 70q-128 68 -201 191q-74 124 -74 274q0 144 74 268q75 122 199 193q125 67 270 67
q108 0 204.5 -38.5t166.5 -108.5q70 -68 109.5 -165t39.5 -204q0 -44 -4 -106zM600 764q-62 0 -115 -41q-49 -41 -65 -105h354q-10 67 -57.5 106.5t-116.5 39.5z" />
    <glyph glyph-name="edieresis" unicode="&#xeb;" horiz-adv-x="1189" 
d="M549 1364q0 -80 -55 -135q-50 -53 -136 -53q-85 0 -135 53q-53 53 -53 135q0 84 53 137q56 53 135 53q83 0 136 -53q55 -55 55 -137zM1044 1364q0 -79 -53 -135q-53 -53 -137 -53q-85 0 -135 53q-53 56 -53 135q0 81 53 137q56 53 135 53t135 -53q55 -55 55 -137z
M1122 418h-704q12 -74 71 -115q55 -43 134 -43q55 0 102 27t78 75l297 -104q-63 -140 -188.5 -210.5t-295.5 -70.5q-151 0 -276 70q-128 68 -201 191q-76 122 -76 274q0 144 74 268q75 123 201 193q122 67 270 67q107 0 203.5 -39t165.5 -108q70 -68 109.5 -165t39.5 -204
q0 -77 -4 -106zM600 764q-60 0 -113 -41q-52 -43 -67 -105h354q-9 67 -56 106.5t-118 39.5z" />
    <glyph glyph-name="igrave" unicode="&#xec;" horiz-adv-x="606" 
d="M231 1561l213 -373h-272l-328 373h387zM119 0v1018h368v-1018h-368z" />
    <glyph glyph-name="iacute" unicode="&#xed;" horiz-adv-x="608" 
d="M162 1188l213 373h389l-328 -373h-274zM119 0v1018h370v-1018h-370z" />
    <glyph glyph-name="icircumflex" unicode="&#xee;" horiz-adv-x="608" 
d="M137 1550h334l242 -360h-291l-117 192l-117 -192h-292zM119 0v1018h370v-1018h-370z" />
    <glyph glyph-name="idieresis" unicode="&#xef;" horiz-adv-x="606" 
d="M250 1364q0 -82 -53 -135t-136 -53q-84 0 -137 53q-53 56 -53 135q0 82 55 137q53 53 135 53q80 0 136 -53q53 -53 53 -137zM737 1364q0 -80 -55 -135q-53 -53 -135 -53q-85 0 -135 53q-54 54 -54 135q0 83 54 137q56 53 135 53t135 -53q55 -55 55 -137zM119 0v1018h368
v-1018h-368z" />
    <glyph glyph-name="eth" unicode="&#xf0;" horiz-adv-x="1245" 
d="M1096 1284l-148 -57q219 -256 219 -631q0 -266 -141 -440q-68 -85 -174.5 -132t-237.5 -47q-147 0 -278 64q-124 60 -199 180q-76 118 -76 260q0 106 44 199.5t118 153.5q70 58 158.5 90t179.5 32q122 0 225 -63l2 6q-15 62 -52.5 119.5t-80.5 87.5l-286 -117l-76 174
l180 70q-95 44 -229 84l98 260q271 -69 457 -209l219 92zM612 289q94 0 152 61q55 61 55 142q0 83 -53 145q-58 61 -152 61q-88 0 -143 -61q-59 -62 -59 -143q0 -84 59 -146q59 -59 141 -59z" />
    <glyph glyph-name="ntilde" unicode="&#xf1;" horiz-adv-x="1241" 
d="M770 0v551q0 67 -37 113q-37 43 -102 43q-67 0 -107.5 -41.5t-40.5 -114.5v-551h-364v1018h362v-127h2q53 72 132 109.5t161 37.5q96 0 168 -37.5t111.5 -100.5t58.5 -134t19 -150v-616h-363zM788 1190q-68 0 -170 51q-47 27 -65 35q-31 16 -64 16q-60 0 -63 -100h-193
v55q-3 128 56 205q58 76 178 76q70 0 164 -49q27 -16 65 -35q43 -17 64 -17q55 0 67 64l4 33h185l2 -56q6 -125 -53 -202q-55 -76 -177 -76z" />
    <glyph glyph-name="ograve" unicode="&#xf2;" horiz-adv-x="1249" 
d="M555 1561l213 -373h-274l-326 373h387zM63 508q0 110 46.5 211.5t126.5 171.5q77 70 180.5 109.5t212.5 39.5t211.5 -38.5t179.5 -106.5q77 -69 121.5 -169t44.5 -210q0 -112 -45 -213.5t-123 -173.5t-181.5 -112t-215.5 -40t-215 39t-179 109t-120 170.5t-44 212.5z
M483 655q-55 -61 -55 -143q0 -85 57 -145q55 -64 140 -64q83 0 141 64q55 61 55 145q0 82 -55 143q-59 62 -141 62q-83 0 -142 -62z" />
    <glyph glyph-name="oacute" unicode="&#xf3;" horiz-adv-x="1249" 
d="M483 1188l213 373h387l-325 -373h-275zM63 508q0 110 46.5 211.5t126.5 171.5q77 70 180.5 109.5t212.5 39.5t211.5 -38.5t179.5 -106.5q77 -69 121.5 -169t44.5 -210q0 -112 -45 -213.5t-123 -173.5t-181.5 -112t-215.5 -40t-215 39t-179 109t-120 170.5t-44 212.5z
M483 655q-55 -61 -55 -143q0 -85 57 -145q55 -64 140 -64q83 0 141 64q55 61 55 145q0 82 -55 143q-59 62 -141 62q-83 0 -142 -62z" />
    <glyph glyph-name="ocircumflex" unicode="&#xf4;" horiz-adv-x="1249" 
d="M459 1550h334l239 -360h-289l-118 192l-115 -192h-293zM63 508q0 110 46.5 211.5t126.5 171.5q77 70 180.5 109.5t212.5 39.5t211.5 -38.5t179.5 -106.5q77 -69 121.5 -169t44.5 -210q0 -112 -45 -213.5t-123 -173.5t-181.5 -112t-215.5 -40t-215 39t-179 109t-120 170.5
t-44 212.5zM483 655q-55 -61 -55 -143q0 -85 57 -145q55 -64 140 -64q83 0 141 64q55 61 55 145q0 82 -55 143q-59 62 -141 62q-83 0 -142 -62z" />
    <glyph glyph-name="otilde" unicode="&#xf5;" horiz-adv-x="1249" 
d="M63 508q0 110 46.5 211.5t126.5 171.5q77 70 180.5 109.5t212.5 39.5t211.5 -38.5t179.5 -106.5q77 -69 121.5 -169t44.5 -210q0 -112 -45 -213.5t-123 -173.5t-181.5 -112t-215.5 -40t-215 39t-179 109t-120 170.5t-44 212.5zM788 1190q-73 0 -170 51q-31 18 -65 35
q-33 16 -66 16q-57 0 -63 -100h-191l-2 55q0 128 56 205q58 76 178 76q73 0 164 -49q29 -16 67 -35q43 -17 62 -17q57 0 69 64l4 33h185l2 -56q3 -129 -53 -202q-58 -76 -177 -76zM483 655q-55 -61 -55 -143q0 -85 57 -145q55 -64 140 -64q83 0 141 64q55 61 55 145
q0 82 -55 143q-59 62 -141 62q-83 0 -142 -62z" />
    <glyph glyph-name="odieresis" unicode="&#xf6;" horiz-adv-x="1249" 
d="M569 1364q0 -80 -55 -135q-50 -53 -135 -53t-135 53q-54 54 -54 135q0 83 54 137q56 53 135 53q82 0 135 -53q55 -55 55 -137zM1065 1364q0 -79 -53 -135q-53 -53 -138 -53t-135 53q-53 56 -53 135q0 81 53 137q56 53 135 53q80 0 136 -53q55 -55 55 -137zM63 508
q0 110 46.5 211.5t126.5 171.5q77 70 180.5 109.5t212.5 39.5t211.5 -38.5t179.5 -106.5q77 -69 121.5 -169t44.5 -210q0 -112 -45 -213.5t-123 -173.5t-181.5 -112t-215.5 -40t-215 39t-179 109t-120 170.5t-44 212.5zM483 655q-55 -61 -55 -143q0 -85 57 -145
q55 -64 140 -64q83 0 141 64q55 61 55 145q0 82 -55 143q-59 62 -141 62q-83 0 -142 -62z" />
    <glyph glyph-name="divide" unicode="&#xf7;" horiz-adv-x="1148" 
d="M762 1159q0 -76 -55 -131q-52 -55 -132 -55q-78 0 -133 55t-55 131q0 78 55 133q56 56 133 56q79 0 132 -56q55 -55 55 -133zM72 850h1005v-301h-1005v301zM707 104q-52 -55 -132 -55q-78 0 -133 55q-55 58 -55 134q0 78 55 133t133 55q80 0 132 -55q55 -58 55 -133
q0 -76 -55 -134z" />
    <glyph glyph-name="oslash" unicode="&#xf8;" horiz-adv-x="1251" 
d="M1186 987l-127 -131q129 -144 129 -340q0 -112 -45 -213.5t-123 -173.5t-181.5 -112t-215.5 -40q-176 0 -316 91l-133 -134l-108 105l122 129q-125 146 -125 344q0 146 80 270q80 123 209 191q128 67 277 67q170 0 313 -88l133 140zM428 512q0 -44 14 -82l260 270
q-43 17 -77 17q-84 0 -140 -62q-57 -60 -57 -143zM627 303q83 0 141 64q55 61 55 145q0 43 -16 82l-262 -272q43 -19 82 -19z" />
    <glyph glyph-name="ugrave" unicode="&#xf9;" horiz-adv-x="1239" 
d="M543 1561l213 -373h-273l-325 373h385zM109 1018h362v-551q0 -69 39 -111q38 -47 100 -47q68 0 108 42.5t40 115.5v551h362v-1018h-360v127h-2q-54 -73 -131 -110t-162 -37q-94 0 -165.5 37.5t-111.5 100t-59.5 134t-19.5 149.5v617z" />
    <glyph glyph-name="uacute" unicode="&#xfa;" horiz-adv-x="1241" 
d="M475 1188l213 373h385l-325 -373h-273zM109 1018h362v-551q0 -69 39 -111q38 -47 100 -47q68 0 108 42.5t40 115.5v551h362v-1018h-360v127h-2q-54 -73 -131 -110t-162 -37q-94 0 -165.5 37.5t-111.5 100t-59.5 134t-19.5 149.5v617z" />
    <glyph glyph-name="ucircumflex" unicode="&#xfb;" horiz-adv-x="1239" 
d="M449 1550h333l240 -360h-289l-119 192l-114 -192h-293zM109 1018h362v-551q0 -69 39 -111q38 -47 100 -47q68 0 108 42.5t40 115.5v551h362v-1018h-360v127h-2q-54 -73 -131 -110t-162 -37q-94 0 -165.5 37.5t-111.5 100t-59.5 134t-19.5 149.5v617z" />
    <glyph glyph-name="udieresis" unicode="&#xfc;" horiz-adv-x="1239" 
d="M557 1364q0 -80 -55 -135q-50 -53 -135 -53q-86 0 -136 53q-53 53 -53 135q0 84 53 137q56 53 136 53q82 0 135 -53q55 -55 55 -137zM1053 1364q0 -78 -54 -135q-53 -53 -137 -53q-85 0 -135 53q-53 56 -53 135q0 81 53 137q56 53 135 53q82 0 135 -53q56 -56 56 -137z
M109 1018h362v-551q0 -69 39 -111q38 -47 100 -47q68 0 108 42.5t40 115.5v551h362v-1018h-360v127h-2q-54 -73 -131 -110t-162 -37q-94 0 -165.5 37.5t-111.5 100t-59.5 134t-19.5 149.5v617z" />
    <glyph glyph-name="yacute" unicode="&#xfd;" horiz-adv-x="1226" 
d="M498 1188l213 373h385l-326 -373h-272zM637 498h2l192 520h383l-620 -1520h-387l244 600l-445 920h397z" />
    <glyph glyph-name="thorn" unicode="&#xfe;" horiz-adv-x="1316" 
d="M492 1554v-630q65 71 159 94q71 18 127 18q92 0 179.5 -39.5t152.5 -109.5t103 -167t38 -200q0 -144 -61 -266q-62 -127 -174 -199q-110 -73 -246 -73q-171 0 -278 110v-594h-373v2056h373zM885 514q0 83 -58 141q-57 60 -141 60q-85 0 -145 -60q-62 -62 -62 -147
q0 -83 58 -141q60 -60 141 -60q85 0 147 62q60 63 60 145z" />
    <glyph glyph-name="ydieresis" unicode="&#xff;" horiz-adv-x="1226" 
d="M561 1364q0 -79 -53 -135q-53 -53 -137 -53q-82 0 -135 53q-54 57 -54 135q0 80 54 137q56 53 135 53q81 0 137 -53q53 -56 53 -137zM1057 1364q0 -82 -53 -135t-138 -53q-82 0 -135 53q-53 56 -53 135q0 82 55 137q53 53 133 53q82 0 138 -53q53 -56 53 -137zM637 498h2
l192 520h383l-620 -1520h-387l244 600l-445 920h397z" />
    <glyph glyph-name="Amacron" unicode="&#x100;" horiz-adv-x="1540" 
d="M403 1915h736v-260h-736v260zM559 1493h424l573 -1493h-399l-102 274h-576l-100 -274h-393zM946 594l-180 475l-178 -475h358z" />
    <glyph glyph-name="amacron" unicode="&#x101;" horiz-adv-x="1142" 
d="M184 1458h738v-260h-738v260zM541 764q-57 0 -99.5 -31t-52.5 -80l-303 66q13 81 60.5 146.5t115.5 103.5q140 73 291 73q287 0 416 -186q65 -100 65 -233v-459q0 -101 8 -164h-346q-8 41 -8 119l-4 2q-120 -141 -307 -141q-127 0 -221 88q-90 84 -90 213q0 198 221 278
q117 43 262 43h53q34 0 54 16.5t20 45.5q0 43 -36.5 71.5t-98.5 28.5zM520 231q69 0 112.5 40t43.5 106v31h-127q-43 0 -84 -23q-37 -24 -37 -68q0 -35 27.5 -60.5t64.5 -25.5z" />
    <glyph glyph-name="Abreve" unicode="&#x102;" horiz-adv-x="1540" 
d="M918 2007h247q-15 -165 -125 -266q-109 -103 -270 -103t-270 103q-111 105 -123 266h248q9 -67 47 -106t98 -39q61 0 100 39t48 106zM559 1493h424l573 -1493h-399l-102 274h-576l-100 -274h-393zM946 594l-180 475l-178 -475h358z" />
    <glyph glyph-name="abreve" unicode="&#x103;" horiz-adv-x="1142" 
d="M700 1550h248q-15 -165 -125 -266q-111 -102 -270 -102t-270 102q-112 103 -127 266h252q9 -67 47 -106t98 -39q61 0 99.5 39t47.5 106zM541 764q-57 0 -99.5 -31t-52.5 -80l-303 66q13 81 60.5 146.5t115.5 103.5q140 73 291 73q287 0 416 -186q65 -100 65 -233v-459
q0 -101 8 -164h-346q-8 41 -8 119l-4 2q-120 -141 -307 -141q-127 0 -221 88q-90 84 -90 213q0 198 221 278q117 43 262 43h53q34 0 54 16.5t20 45.5q0 43 -36.5 71.5t-98.5 28.5zM520 231q69 0 112.5 40t43.5 106v31h-127q-43 0 -84 -23q-37 -24 -37 -68q0 -35 27.5 -60.5
t64.5 -25.5z" />
    <glyph glyph-name="Aogonek" unicode="&#x104;" horiz-adv-x="1542" 
d="M983 1493l573 -1493q-110 -58 -176 -131q-43 -49 -43 -86q0 -43 39 -62q42 -22 82 -22q34 0 90 12v-190q-64 -27 -178 -27q-183 0 -266 92q-49 52 -49 125q0 149 211 289h-109l-100 274h-576l-100 -274h-395l573 1493h424zM950 594l-180 475l-178 -475h358z" />
    <glyph glyph-name="aogonek" unicode="&#x105;" horiz-adv-x="1144" 
d="M543 764q-57 0 -99.5 -30.5t-54.5 -80.5l-303 66q13 81 61 146.5t117 103.5q137 73 291 73q287 0 416 -186q63 -97 63 -233v-459q0 -86 10 -164q-81 -41 -145 -100q-74 -62 -74 -117q0 -45 39 -62q39 -22 82 -22q28 0 90 12v-190q-67 -27 -180 -27q-61 0 -115 12.5
t-99.5 37.5t-72 68t-26.5 99q0 151 211 289h-56q-8 41 -8 119l-4 2q-123 -141 -307 -141q-130 0 -221 88q-92 83 -92 213q0 198 221 278q119 43 264 43h53q34 0 54 16.5t20 45.5q0 43 -36.5 71.5t-98.5 28.5zM524 231q68 0 111 39.5t43 106.5v31h-125q-43 0 -84 -23
q-37 -24 -37 -68q0 -35 27.5 -60.5t64.5 -25.5z" />
    <glyph glyph-name="Cacute" unicode="&#x106;" horiz-adv-x="1607" 
d="M707 1624l213 375h385l-324 -375h-274zM842 -23q-156 0 -301 60q-145 59 -246 160q-104 104 -164 245q-59 145 -59 306q0 162 57 296q57 138 162 246q97 103 248 166q145 62 313 62q126 0 238.5 -34t189.5 -91q77 -53 137 -125q102 -122 144 -271l-353 -108
q-10 48 -46 106t-93 101q-90 69 -223 69q-167 0 -279 -121q-110 -122 -110 -294q0 -173 108 -293q108 -123 281 -123q79 0 148.5 27t113.5 71q84 87 109 178l352 -110q-31 -137 -139 -264q-62 -71 -142 -127q-83 -60 -200 -96t-246 -36z" />
    <glyph glyph-name="cacute" unicode="&#x107;" horiz-adv-x="1171" 
d="M487 1188l213 373h385l-325 -373h-273zM623 -23q-152 0 -281 66q-130 68 -203 190q-76 119 -76 277q0 110 46 210t124 171q78 70 181 110.5t211 40.5q245 0 393 -161q75 -81 100 -195l-319 -96q-20 59 -66.5 92t-107.5 33q-86 0 -140 -60q-55 -61 -55 -143q0 -86 53 -145
q51 -60 142 -60q60 0 108.5 34t71.5 91l319 -96q-31 -112 -106 -195t-177 -124.5t-218 -39.5z" />
    <glyph glyph-name="Ccircumflex" unicode="&#x108;" horiz-adv-x="1613" 
d="M694 1987h336l240 -359h-291l-117 193l-114 -193h-293zM848 -23q-157 0 -305 60q-142 59 -246 160q-109 109 -164 245q-61 143 -61 306q0 164 59 299q59 142 162 245q97 100 250 164q145 62 315 62q126 0 238.5 -34t189.5 -91q70 -48 137 -125q102 -122 144 -271
l-353 -108q-10 48 -46 106t-93 101q-90 69 -223 69q-167 0 -279 -121q-110 -122 -110 -294q0 -173 108 -293q108 -123 281 -123q79 0 147.5 26.5t114.5 71.5q86 89 107 178l354 -110q-30 -134 -141 -264q-65 -75 -140 -127q-83 -60 -200 -96t-246 -36z" />
    <glyph glyph-name="ccircumflex" unicode="&#x109;" horiz-adv-x="1171" 
d="M455 1550h333l240 -360h-289l-116 192l-117 -192h-291zM623 -23q-152 0 -281 66q-130 68 -203 190q-76 119 -76 277q0 110 46 210t124 171q78 70 181 110.5t211 40.5q245 0 393 -161q75 -81 100 -195l-319 -96q-20 59 -66.5 92t-107.5 33q-86 0 -140 -60
q-55 -61 -55 -143q0 -86 53 -145q51 -60 142 -60q60 0 108.5 34t71.5 91l319 -96q-31 -112 -106 -195t-177 -124.5t-218 -39.5z" />
    <glyph glyph-name="Cdotaccent" unicode="&#x10a;" horiz-adv-x="1611" 
d="M860 1628q-84 0 -149 62q-64 64 -64 147q0 89 64 150q60 63 149 63q90 0 150 -63q61 -61 61 -150q0 -86 -61 -147q-62 -62 -150 -62zM846 -23q-155 0 -303 60q-145 59 -246 160q-105 102 -166 245q-59 145 -59 306q0 162 57 296q57 138 162 246q96 102 250 166
q145 62 315 62q126 0 238.5 -34t189.5 -91q77 -53 137 -125q102 -122 144 -271l-353 -108q-10 48 -46 106t-93 101q-90 69 -223 69q-167 0 -279 -121q-110 -122 -110 -294q0 -173 108 -293q108 -123 281 -123q79 0 148.5 27t113.5 71q86 89 107 178l354 -110
q-31 -137 -139 -264q-62 -71 -142 -127q-83 -60 -200 -96t-246 -36z" />
    <glyph glyph-name="cdotaccent" unicode="&#x10b;" horiz-adv-x="1171" 
d="M629 1155q-85 0 -150 62q-61 61 -61 145q0 90 61 151q62 62 150 62q87 0 149 -62q62 -65 62 -151q0 -83 -62 -145t-149 -62zM623 -23q-152 0 -281 66q-130 68 -203 190q-76 119 -76 277q0 111 45.5 211t124.5 170q78 70 181.5 110.5t212.5 40.5q245 0 393 -161
q76 -86 100 -195l-321 -96q-19 58 -65.5 91.5t-108.5 33.5q-87 0 -138 -60q-55 -58 -55 -143q0 -86 53 -145q51 -60 140 -60q60 0 108.5 34t71.5 91l321 -96q-46 -169 -185.5 -265.5t-317.5 -93.5z" />
    <glyph glyph-name="Ccaron" unicode="&#x10c;" horiz-adv-x="1613" 
d="M1028 1628h-334l-241 361h290l117 -193l117 193h291zM848 -23q-157 0 -305 60q-142 59 -246 160q-109 109 -164 245q-61 143 -61 306q0 164 59 299q59 142 162 245q97 100 250 164q145 62 315 62q126 0 238.5 -34t189.5 -91q70 -48 137 -125q102 -122 144 -271l-353 -108
q-10 48 -46 106t-93 101q-90 69 -223 69q-167 0 -279 -121q-110 -122 -110 -294q0 -173 108 -293q108 -123 281 -123q79 0 147.5 26.5t114.5 71.5q86 89 107 178l354 -110q-30 -134 -141 -264q-65 -75 -140 -127q-83 -60 -200 -96t-246 -36z" />
    <glyph glyph-name="ccaron" unicode="&#x10d;" horiz-adv-x="1171" 
d="M797 1190h-336l-238 360h289l117 -192l116 192h291zM623 -23q-152 0 -281 66q-130 68 -203 190q-76 119 -76 277q0 111 45.5 211t124.5 170q78 70 181.5 110.5t212.5 40.5q245 0 393 -161q76 -86 100 -195l-321 -96q-19 58 -65.5 91.5t-108.5 33.5q-87 0 -138 -60
q-55 -58 -55 -143q0 -86 53 -145q51 -60 140 -60q60 0 108.5 34t71.5 91l321 -96q-46 -169 -185.5 -265.5t-317.5 -93.5z" />
    <glyph glyph-name="Dcaron" unicode="&#x10e;" horiz-adv-x="1558" 
d="M815 1628h-336l-239 361h290l117 -193l115 193h293zM651 0h-497v1493h495q141 1 266 -28t230 -89.5t180.5 -147.5t117.5 -208.5t42 -267.5q0 -178 -64 -323t-180 -239q-238 -190 -590 -190zM657 1147h-120v-799h118q127 0 227.5 44.5t161 137t60.5 220.5q0 94 -35 171.5
t-96 125.5q-124 100 -316 100z" />
    <glyph glyph-name="dcaron" unicode="&#x10f;" horiz-adv-x="1357" 
d="M541 -20q-132 0 -244 71q-113 75 -170 195q-61 122 -61 266q0 112 39 211t108 168q66 69 154.5 108t181.5 39q52 0 121 -20q91 -22 161 -117h9v653h360v-1554h-358v125h-8q-115 -145 -293 -145zM1305 1108v446h374l-102 -446h-272zM782 367q60 60 60 145q0 83 -60 143
q-62 62 -143 62q-84 0 -143 -62q-60 -57 -60 -143q0 -88 60 -145q59 -62 143 -62q81 0 143 62z" />
    <glyph glyph-name="Dcroat" unicode="&#x110;" horiz-adv-x="1619" 
d="M215 1493h496q365 0 596 -186q114 -94 176.5 -236.5t62.5 -318.5q0 -149 -46 -275t-128 -215q-75 -84 -186 -147q-208 -115 -481 -115h-490v594h-174v317h174v582zM588 346h131q200 0 319 107q121 106 121 297q0 181 -119 288q-118 109 -319 109h-133v-236h270v-317h-270
v-248z" />
    <glyph glyph-name="dslash" unicode="&#x111;" horiz-adv-x="1320" 
d="M842 125h-8q-115 -145 -293 -145q-132 0 -244 71q-113 75 -170 195q-61 122 -61 266q0 112 39 211t108 168q67 70 154.5 108.5t181.5 38.5q52 0 121 -20q89 -23 159 -117h9v258h-289v242h289v151h362v-151h141v-242h-141v-1159h-358v125zM496 367q59 -62 143 -62
q81 0 143 62q60 63 60 145q0 83 -60 143q-62 62 -143 62q-83 0 -145 -62q-60 -60 -60 -143t62 -145z" />
    <glyph glyph-name="Emacron" unicode="&#x112;" horiz-adv-x="1304" 
d="M311 1915h736v-260h-736v260zM528 915h609v-321h-609v-258h676v-336h-1050v1493h1044v-334h-670v-244z" />
    <glyph glyph-name="emacron" unicode="&#x113;" horiz-adv-x="1189" 
d="M229 1458h736v-260h-736v260zM1122 418h-704q12 -74 71 -115q55 -43 134 -43q55 0 102 27t78 75l297 -104q-63 -139 -189.5 -210t-296.5 -71q-149 0 -274 70q-128 68 -201 191q-76 122 -76 274q0 144 74 268q75 123 201 193q122 67 270 67q107 0 203.5 -39t165.5 -108
q70 -68 109.5 -165t39.5 -204q0 -77 -4 -106zM600 764q-62 0 -115 -41q-49 -41 -65 -105h354q-9 67 -56 106.5t-118 39.5z" />
    <glyph glyph-name="Edotaccent" unicode="&#x116;" horiz-adv-x="1304" 
d="M680 1628q-85 0 -150 62q-63 63 -63 147q0 90 63 150q60 63 150 63q89 0 149 -63q62 -62 62 -150q0 -85 -62 -147t-149 -62zM528 915h609v-321h-609v-258h676v-336h-1050v1493h1044v-334h-670v-244z" />
    <glyph glyph-name="edotaccent" unicode="&#x117;" horiz-adv-x="1189" 
d="M606 1155q-84 0 -149 62q-62 62 -62 145q0 89 62 151t149 62q88 0 150 -62q61 -64 61 -151q0 -84 -61 -145q-62 -62 -150 -62zM1122 418h-704q12 -74 71 -115q55 -43 134 -43q55 0 102 27t78 75l297 -104q-63 -139 -189.5 -210t-296.5 -71q-149 0 -274 70
q-128 68 -201 191q-76 122 -76 274q0 144 74 268q75 123 201 193q122 67 270 67q107 0 203.5 -39t165.5 -108q70 -68 109.5 -165t39.5 -204q0 -77 -4 -106zM600 764q-62 0 -115 -41q-49 -41 -65 -105h354q-9 67 -56 106.5t-118 39.5z" />
    <glyph glyph-name="Eogonek" unicode="&#x118;" horiz-adv-x="1304" 
d="M1204 336v-336q-106 -54 -176 -131q-43 -49 -43 -86q0 -43 39 -62q39 -22 82 -22q30 0 92 12v-190q-70 -27 -180 -27q-183 0 -268 92q-48 54 -48 125q0 149 211 289h-759v1493h1044v-334h-670v-244h609v-321h-609v-258h676z" />
    <glyph glyph-name="eogonek" unicode="&#x119;" horiz-adv-x="1189" 
d="M575 -217q0 -45 39 -62q39 -22 82 -22q32 0 90 12v-190q-67 -27 -180 -27q-183 0 -266 92q-47 50 -47 125q0 143 196 281q-185 41 -305 182q-121 142 -121 338q0 144 74 268q75 123 201 193q122 67 270 67q107 0 203.5 -39t165.5 -108q70 -68 109.5 -165t39.5 -204
q0 -77 -4 -106h-704q12 -74 71 -115q55 -43 134 -43q55 0 102 27t78 75l297 -104q-45 -102 -120 -163.5t-189 -94.5q-59 -17 -138 -90q-78 -69 -78 -127zM600 764q-62 0 -115 -41q-49 -41 -65 -105h354q-9 67 -56 106.5t-118 39.5z" />
    <glyph glyph-name="Ecaron" unicode="&#x11a;" horiz-adv-x="1304" 
d="M848 1628h-336l-240 361h291l117 -193l115 193h290zM528 915h609v-321h-609v-258h676v-336h-1050v1493h1044v-334h-670v-244z" />
    <glyph glyph-name="ecaron" unicode="&#x11b;" horiz-adv-x="1189" 
d="M774 1190h-336l-239 360h290l117 -192l115 192h293zM1122 418h-704q12 -74 71 -115q55 -43 134 -43q55 0 102 27t78 75l297 -104q-63 -139 -189.5 -210t-296.5 -71q-149 0 -274 70q-128 68 -201 191q-76 122 -76 274q0 144 74 268q75 123 201 193q122 67 270 67
q107 0 203.5 -39t165.5 -108q70 -68 109.5 -165t39.5 -204q0 -77 -4 -106zM600 764q-62 0 -115 -41q-49 -41 -65 -105h354q-9 67 -56 106.5t-118 39.5z" />
    <glyph glyph-name="Gcircumflex" unicode="&#x11c;" horiz-adv-x="1632" 
d="M690 1987h334l240 -359h-289l-117 193l-117 -193h-290zM1176 514h-428v303h821v-147q0 -141 -51 -268.5t-144 -221.5q-92 -95 -226 -149t-290 -54q-221 0 -401 101q-183 101 -283 274q-104 177 -104 396q0 155 63 296q62 139 166 246q99 99 252 166q145 62 305 62
q117 0 223 -28.5t183 -76.5q78 -53 133 -113q105 -113 145 -251l-364 -97q-19 72 -91 144q-38 37 -99.5 59.5t-133.5 22.5q-168 0 -283 -121q-114 -117 -114 -307q0 -186 112 -310q116 -125 291 -125q111 0 205 58q92 56 113 141z" />
    <glyph glyph-name="gcircumflex" unicode="&#x11d;" horiz-adv-x="1310" 
d="M461 1550h336l237 -360h-289l-116 192l-117 -192h-291zM829 154h-6q-113 -146 -280 -146q-211 0 -342 146q-133 145 -133 364q0 112 38 210t105 163q67 67 153.5 104t180.5 37q173 0 282 -137h7v123h358v-967q0 -263 -162 -409q-166 -152 -426 -152q-114 0 -214 32.5
t-167 86.5q-133 111 -157 248l321 96q14 -68 69.5 -110t133.5 -42q115 0 177 57.5t62 172.5v123zM776 379q58 58 58 141q0 84 -58 142q-58 55 -141 55t-141 -58q-56 -56 -56 -141q0 -82 56 -141q58 -58 141 -58q84 0 141 60z" />
    <glyph glyph-name="Gbreve" unicode="&#x11e;" horiz-adv-x="1630" 
d="M1004 2007h245q-15 -164 -123 -266q-109 -103 -270 -103t-270 103q-110 104 -125 266h250q9 -67 47 -106t98 -39q61 0 100 39t48 106zM1174 514h-429v303h822v-147q0 -141 -51 -268.5t-144 -221.5q-92 -95 -226 -149t-290 -54q-221 0 -401 101q-180 100 -281 274
q-104 177 -104 396q0 155 63 296q62 139 166 246q100 100 250 166q145 62 305 62q117 0 223 -28.5t183 -76.5q74 -48 133 -113q109 -118 145 -251l-364 -97q-19 71 -89 144q-89 82 -235 82q-168 0 -283 -121q-114 -120 -114 -307q0 -186 112 -310q116 -125 291 -125
q111 0 205 58q92 56 113 141z" />
    <glyph glyph-name="gbreve" unicode="&#x11f;" horiz-adv-x="1310" 
d="M776 1550h246q-15 -164 -123 -266q-111 -102 -272 -102t-269 102q-110 104 -122 266h245q9 -67 47 -106t99 -39t100.5 39t48.5 106zM829 154h-6q-113 -146 -280 -146q-211 0 -342 146q-133 145 -133 364q0 112 38 210t105 163q67 67 153.5 104t180.5 37q173 0 282 -137h7
v123h358v-967q0 -263 -162 -409q-166 -152 -426 -152q-114 0 -214 32.5t-167 86.5q-133 111 -157 248l321 96q14 -68 69.5 -110t133.5 -42q115 0 177 57.5t62 172.5v123zM776 379q58 58 58 141q0 84 -58 142q-58 55 -141 55t-141 -58q-56 -56 -56 -141q0 -82 56 -141
q58 -58 141 -58q84 0 141 60z" />
    <glyph glyph-name="Gdotaccent" unicode="&#x120;" horiz-adv-x="1628" 
d="M854 1628q-84 0 -149 62q-64 64 -64 147q0 89 64 150q60 63 149 63q90 0 150 -63q61 -61 61 -150q0 -86 -61 -147q-62 -62 -150 -62zM1565 817v-147q0 -141 -51 -268.5t-144 -221.5q-92 -96 -226.5 -149.5t-291.5 -53.5q-219 0 -399 101q-177 98 -279 274
q-102 173 -102 396q0 153 61 296q64 143 164 246q103 100 250 166q148 62 305 62q236 0 405 -105q81 -55 134 -113q105 -113 145 -251l-367 -97q-15 68 -88 144q-38 37 -99.5 59.5t-133.5 22.5q-167 0 -285 -121q-112 -118 -112 -307q0 -186 112 -310q113 -125 289 -125
q114 0 205 58q93 57 114 141h-430v303h824z" />
    <glyph glyph-name="gdotaccent" unicode="&#x121;" horiz-adv-x="1310" 
d="M629 1155q-86 0 -148 62q-63 60 -63 145q0 91 63 151q62 62 148 62q87 0 149 -62q62 -65 62 -151q0 -83 -62 -145t-149 -62zM829 154h-6q-113 -146 -280 -146q-211 0 -342 146q-133 145 -133 364q0 112 38 210t105 163q67 67 153.5 104t180.5 37q173 0 282 -137h7v123
h358v-967q0 -263 -162 -409q-166 -152 -426 -152q-114 0 -214 32.5t-167 86.5q-133 111 -157 248l321 96q14 -68 69.5 -110t133.5 -42q115 0 177 57.5t62 172.5v123zM776 379q58 58 58 141q0 84 -58 142q-58 55 -141 55t-141 -58q-56 -56 -56 -141q0 -82 56 -141
q58 -58 141 -58q84 0 141 60z" />
    <glyph glyph-name="Gcommaaccent" unicode="&#x122;" horiz-adv-x="1628" 
d="M1565 817v-147q0 -141 -51 -268.5t-144 -221.5q-92 -96 -226.5 -149.5t-291.5 -53.5q-219 0 -399 101q-177 98 -279 274q-102 173 -102 396q0 153 61 296q64 143 164 246q103 100 250 166q148 62 305 62q236 0 405 -105q81 -55 134 -113q105 -113 145 -251l-367 -97
q-15 68 -88 144q-38 37 -99.5 59.5t-133.5 22.5q-167 0 -285 -121q-112 -118 -112 -307q0 -186 112 -310q113 -125 289 -125q114 0 205 58q93 57 114 141h-430v303h824zM657 -748v123q83 17 130.5 48t60.5 90q-36 -9 -53 -9q-74 0 -119 45t-45 119t55 123q54 51 129 51
q96 0 148 -67q51 -63 51 -164q0 -157 -99 -248q-101 -96 -258 -111z" />
    <glyph glyph-name="gcommaaccent" unicode="&#x123;" horiz-adv-x="1310" 
d="M829 154h-6q-113 -146 -280 -146q-211 0 -342 146q-133 145 -133 364q0 112 38 210t105 163q67 67 153.5 104t180.5 37q173 0 282 -137h7v123h358v-967q0 -263 -162 -409q-166 -152 -426 -152q-114 0 -214 32.5t-167 86.5q-133 111 -157 248l321 96q14 -68 69.5 -110
t133.5 -42q115 0 177 57.5t62 172.5v123zM776 379q58 58 58 141q0 84 -58 142q-58 55 -141 55t-141 -58q-56 -56 -56 -141q0 -82 56 -141q58 -58 141 -58q84 0 141 60zM772 1765v-125q-166 -27 -190 -135q21 8 53 8q72 0 119 -47q45 -45 45 -116t-54 -125q-55 -49 -131 -49
q-95 0 -145 65q-53 65 -53 164q0 159 98 250q103 95 258 110z" />
    <glyph glyph-name="Hbar" unicode="&#x126;" horiz-adv-x="1703" 
d="M1128 573h-555v-573h-374v1090h-168v251h168v152h374v-152h555v152h377v-152h166v-251h-166v-1090h-377v573zM1128 1090h-555v-170h555v170z" />
    <glyph glyph-name="hbar" unicode="&#x127;" horiz-adv-x="1239" 
d="M774 1038q78 0 140 -25t101.5 -66.5t66 -97t37.5 -113.5t11 -120v-616h-362v553q0 65 -37 111q-37 43 -102 43q-67 0 -107.5 -41.5t-40.5 -112.5v-553h-362v1159h-139v242h139v151h362v-151h289v-242h-289v-260h2q55 68 132.5 103.5t158.5 35.5z" />
    <glyph glyph-name="Itilde" unicode="&#x128;" horiz-adv-x="686" 
d="M154 1493h378v-1493h-378v1493zM506 1628q-78 0 -170 51q-13 7 -35.5 19.5t-30.5 15.5q-42 17 -65 17q-59 0 -62 -101h-192l-2 53q0 130 57 205q57 78 178 78q72 0 164 -51q57 -30 66 -33q40 -16 63 -16q56 0 68 63l4 33h184l2 -57q3 -128 -53 -201q-55 -76 -176 -76z
" />
    <glyph glyph-name="itilde" unicode="&#x129;" horiz-adv-x="604" 
d="M119 0v1018h364v-1018h-364zM465 1190q-73 0 -170 51q-44 26 -66 35q-33 16 -65 16q-59 0 -62 -100h-192l-2 55q0 130 57 205q55 76 178 76q70 0 164 -49q22 -13 66 -35q43 -17 63 -17q26 0 44 16.5t24 47.5l4 33h184l2 -56q3 -129 -53 -202q-55 -76 -176 -76z" />
    <glyph glyph-name="Imacron" unicode="&#x12a;" horiz-adv-x="686" 
d="M2 1915h682v-260h-682v260zM154 1493h378v-1493h-378v1493z" />
    <glyph glyph-name="imacron" unicode="&#x12b;" horiz-adv-x="604" 
d="M-25 1458h652v-260h-652v260zM119 0v1018h364v-1018h-364z" />
    <glyph glyph-name="Ibreve" unicode="&#x12c;" horiz-adv-x="686" 
d="M492 2007h245q-15 -165 -125 -266q-106 -103 -270 -103q-161 0 -270 103q-108 105 -123 266h248q9 -67 47 -106t98 -39q61 0 101 39t49 106zM154 1493h378v-1493h-378v1493z" />
    <glyph glyph-name="ibreve" unicode="&#x12d;" horiz-adv-x="604" 
d="M451 1550h245q-15 -164 -123 -266q-111 -102 -270 -102q-161 0 -272 102q-111 108 -123 266h250q9 -67 47 -106t98 -39q61 0 100 39t48 106zM119 0v1018h366v-1018h-366z" />
    <glyph glyph-name="Iogonek" unicode="&#x12e;" horiz-adv-x="686" 
d="M532 1493v-1493q-111 -56 -176 -131q-43 -49 -43 -86q0 -45 39 -62q39 -22 82 -22q30 0 92 12v-190q-105 -27 -202 -27q-109 0 -197 49q-96 59 -96 168q0 148 211 289h-88v1493h378z" />
    <glyph glyph-name="iogonek" unicode="&#x12f;" horiz-adv-x="604" 
d="M301 1155q-85 0 -147 62q-64 61 -64 145q0 90 64 151q62 62 147 62q88 0 150 -62q61 -64 61 -151q0 -84 -61 -145q-62 -62 -150 -62zM483 1018v-1018q-111 -58 -174 -131q-43 -49 -43 -86q0 -45 39 -62q39 -22 82 -22q31 0 90 12v-190q-68 -27 -180 -27q-183 0 -266 92
q-47 53 -47 125q0 151 211 289h-76v1018h364z" />
    <glyph glyph-name="Idot" unicode="&#x130;" horiz-adv-x="686" 
d="M344 1628q-87 0 -149 62q-64 64 -64 147q0 89 64 150q60 63 149 63q90 0 150 -63q61 -61 61 -150q0 -86 -61 -147q-62 -62 -150 -62zM154 1493h378v-1493h-378v1493z" />
    <glyph glyph-name="dotlessi" unicode="&#x131;" horiz-adv-x="604" 
d="M119 0v1018h364v-1018h-364z" />
    <glyph glyph-name="IJ" unicode="&#x132;" horiz-adv-x="1347" 
d="M680 -20q-236 -5 -389 135t-152 374v70h381v-57q0 -87 42 -129.5t114 -42.5q69 0 110 45.5t41 120.5v997h379v-993q0 -240 -147 -381q-142 -139 -379 -139zM520 1493v-739h-381v739h381z" />
    <glyph glyph-name="Kcommaaccent" unicode="&#x136;" horiz-adv-x="1456" 
d="M532 1493v-641l461 641h443l-512 -709l549 -784h-469l-472 707v-707h-378v1493h378zM563 -748v123q82 16 129.5 47.5t61.5 90.5q-36 -9 -56 -9q-71 0 -116 45q-47 47 -47 119q0 75 57 123q51 51 129 51q95 0 147 -67q52 -68 52 -164q0 -157 -101 -248q-101 -96 -256 -111
z" />
    <glyph glyph-name="kcommaaccent" unicode="&#x137;" horiz-adv-x="1218" 
d="M119 1554h362v-958l307 422h418l-342 -473l355 -545h-424l-306 496h-8v-496h-362v1554zM455 -748v123q82 16 129 47.5t61 90.5q-36 -9 -53 -9q-74 0 -119 45t-45 119t55 123q54 51 129 51q96 0 148 -67q51 -63 51 -164q0 -157 -98 -248q-104 -96 -258 -111z" />
    <glyph glyph-name="Lacute" unicode="&#x139;" horiz-adv-x="1185" 
d="M221 1624l211 375h387l-325 -375h-273zM1159 342v-342h-1005v1493h378v-1151h627z" />
    <glyph glyph-name="lacute" unicode="&#x13a;" horiz-adv-x="604" 
d="M164 1681l211 375h385l-324 -375h-272zM119 1554h366v-1554h-366v1554z" />
    <glyph glyph-name="Lcommaaccent" unicode="&#x13b;" horiz-adv-x="1183" 
d="M1157 342v-342h-1003v1493h376v-1151h627zM487 -748v123q83 16 130.5 47.5t60.5 90.5q-32 -9 -53 -9q-72 0 -117 45q-47 47 -47 119q0 74 55 123q54 51 129 51q96 0 148 -67q51 -63 51 -164q0 -157 -99 -248q-101 -96 -258 -111z" />
    <glyph glyph-name="lcommaaccent" unicode="&#x13c;" horiz-adv-x="604" 
d="M119 1554h366v-1554h-366v1554zM133 -748v123q83 16 131 47.5t62 90.5q-36 -9 -56 -9q-71 0 -116 45q-48 48 -48 119q0 74 58 123q51 51 129 51q95 0 147 -67q52 -68 52 -164q0 -157 -101 -248q-101 -96 -258 -111z" />
    <glyph glyph-name="Lcaron" unicode="&#x13d;" horiz-adv-x="1206" 
d="M784 1090v446h373l-102 -446h-271zM1157 342v-342h-1003v1493h376v-1151h627z" />
    <glyph glyph-name="lcaron" unicode="&#x13e;" horiz-adv-x="641" 
d="M119 1554h366v-1554h-366v1554zM588 1108v446h375l-103 -446h-272z" />
    <glyph glyph-name="Ldot" unicode="&#x13f;" horiz-adv-x="1202" 
d="M1157 342v-342h-1003v1493h376v-1151h627zM944 565q-85 0 -147 62q-64 61 -64 147q0 89 64 150q61 61 147 61q91 0 152 -61q61 -64 61 -150t-61 -147q-62 -62 -152 -62z" />
    <glyph glyph-name="ldot" unicode="&#x140;" horiz-adv-x="956" 
d="M119 1554h366v-1554h-366v1554zM780 389q-84 0 -149 62q-62 62 -62 145q0 90 62 152q61 61 149 61q89 0 150 -61q61 -64 61 -152q0 -84 -61 -145q-62 -62 -150 -62z" />
    <glyph glyph-name="Lslash" unicode="&#x141;" horiz-adv-x="1294" 
d="M264 840v653h377v-483l391 176v-334l-391 -176v-334h629v-342h-1006v508l-196 -88v332z" />
    <glyph glyph-name="lslash" unicode="&#x142;" horiz-adv-x="884" 
d="M631 940l194 96v-329l-194 -95v-612h-367v430l-194 -96v332l194 94v794h367v-614z" />
    <glyph glyph-name="Nacute" unicode="&#x143;" horiz-adv-x="1648" 
d="M713 1624l211 375h387l-326 -375h-272zM154 1493h424l542 -872h2v872h373v-1493h-414l-549 885h-2v-885h-376v1493z" />
    <glyph glyph-name="nacute" unicode="&#x144;" horiz-adv-x="1241" 
d="M328 1188l211 373h385l-324 -373h-272zM770 0v551q0 67 -37 113q-40 43 -102 43q-68 0 -109 -41.5t-41 -114.5v-551h-362v1018h362v-127h2q53 72 131.5 109.5t161.5 37.5q96 0 168 -37.5t111.5 -100.5t58.5 -134t19 -150v-616h-363z" />
    <glyph glyph-name="Ncommaaccent" unicode="&#x145;" horiz-adv-x="1648" 
d="M154 1493h421l543 -872h2v872h375v-1493h-416l-549 885h-2v-885h-374v1493zM655 -748v123q83 16 131 47.5t62 90.5q-36 -9 -55 -9q-72 0 -117 45q-47 47 -47 119q0 75 57 123q51 51 129 51q96 0 148 -67q51 -66 51 -164q0 -157 -101 -248q-101 -96 -258 -111z" />
    <glyph glyph-name="ncommaaccent" unicode="&#x146;" horiz-adv-x="1239" 
d="M768 0v551q0 71 -37 113q-37 43 -102 43q-67 0 -107.5 -41.5t-40.5 -114.5v-551h-362v1018h360v-127h2q53 72 132 109.5t161 37.5q78 0 140 -25t101.5 -66.5t66 -97t37.5 -113.5t11 -120v-616h-362zM455 -748v123q82 16 129 47.5t61 90.5q-36 -9 -53 -9q-74 0 -119 45
t-45 119t55 123q54 51 129 51q96 0 148 -67q51 -63 51 -164q0 -157 -98 -248q-104 -96 -258 -111z" />
    <glyph glyph-name="Ncaron" unicode="&#x147;" horiz-adv-x="1648" 
d="M1049 1628h-336l-240 361h291l117 -193l114 193h293zM154 1493h424l542 -872h2v872h373v-1493h-414l-549 885h-2v-885h-376v1493z" />
    <glyph glyph-name="ncaron" unicode="&#x148;" horiz-adv-x="1241" 
d="M793 1190h-334l-240 360h289l117 -192l116 192h291zM1133 616v-616h-363v551q0 67 -37 113q-40 43 -102 43q-68 0 -109 -41.5t-41 -114.5v-551h-362v1018h362v-127h2q53 72 131.5 109.5t161.5 37.5q96 0 168 -37.5t111.5 -100.5t58.5 -134t19 -150z" />
    <glyph glyph-name="Eng" unicode="&#x14a;" horiz-adv-x="1648" 
d="M1133 -2l-603 911h-2v-909h-374v1493h421l543 -831h2v831h375v-1610q0 -184 -109 -284q-107 -101 -288 -101q-108 0 -193 29v280q94 -4 96 -4q132 0 132 119v76z" />
    <glyph glyph-name="eng" unicode="&#x14b;" horiz-adv-x="1239" 
d="M1130 616v-733q0 -187 -106 -284q-107 -101 -289 -101q-107 0 -192 29v280l94 -4q131 0 131 119v629q0 71 -37 113q-37 43 -102 43q-67 0 -107.5 -41.5t-40.5 -114.5v-551h-362v1018h360v-127h2q53 72 132 109.5t161 37.5q78 0 140 -25t101.5 -66.5t66 -97t37.5 -113.5
t11 -120z" />
    <glyph glyph-name="Omacron" unicode="&#x14c;" horiz-adv-x="1701" 
d="M485 1915h736v-260h-736v260zM72 748q0 212 104 389t287 280q180 101 391 101q214 0 391 -101q179 -99 283 -276q102 -170 102 -389q0 -160 -61 -303q-62 -145 -166 -246q-104 -104 -248 -164q-145 -62 -305 -62q-216 0 -391 103q-179 99 -283 276t-104 392zM455 750
q0 -169 114 -295q116 -125 283 -125q164 0 283 125q112 127 112 295q3 107 -49 204t-145 156t-201 57q-111 0 -203 -59q-89 -57 -143 -154q-51 -92 -51 -204z" />
    <glyph glyph-name="omacron" unicode="&#x14d;" horiz-adv-x="1249" 
d="M256 1458h737v-260h-737v260zM63 508q0 110 46.5 211.5t126.5 171.5q77 70 180.5 109.5t212.5 39.5t211.5 -38.5t179.5 -106.5q77 -69 121.5 -169t44.5 -210q0 -112 -45 -213.5t-123 -173.5t-181.5 -112t-215.5 -40t-215 39t-179 109t-120 170.5t-44 212.5zM483 655
q-55 -61 -55 -143q0 -85 57 -145q55 -64 140 -64q83 0 141 64q55 61 55 145q0 82 -55 143q-59 62 -141 62q-83 0 -142 -62z" />
    <glyph glyph-name="Ohungarumlaut" unicode="&#x150;" horiz-adv-x="1699" 
d="M481 1624l215 375h367l-318 -375h-264zM940 1624l213 375h367l-318 -375h-262zM70 748q0 214 106 389q104 176 285 280q180 101 393 101q214 0 391 -101q178 -100 281 -276q104 -174 104 -389q0 -160 -61 -303q-67 -150 -166 -246q-110 -107 -250 -164q-145 -62 -303 -62
q-216 0 -391 103q-176 96 -285 276q-104 177 -104 392zM455 750q0 -172 114 -295q116 -125 281 -125q167 0 283 125q114 126 114 295q2 108 -50 204.5t-145.5 155.5t-201.5 57q-111 0 -203 -59q-91 -58 -141 -154q-51 -92 -51 -204z" />
    <glyph glyph-name="ohungarumlaut" unicode="&#x151;" horiz-adv-x="1249" 
d="M258 1188l213 373h367l-316 -373h-264zM715 1188l213 373h366l-315 -373h-264zM63 508q0 110 46.5 211.5t126.5 171.5q77 70 180.5 109.5t212.5 39.5t211.5 -38.5t179.5 -106.5q77 -69 121.5 -169t44.5 -210q0 -112 -45 -213.5t-123 -173.5t-181.5 -112t-215.5 -40
t-215 39t-179 109t-120 170.5t-44 212.5zM483 655q-55 -61 -55 -143q0 -85 57 -145q55 -64 140 -64q83 0 141 64q55 61 55 145q0 82 -55 143q-59 62 -141 62q-83 0 -142 -62z" />
    <glyph glyph-name="OE" unicode="&#x152;" horiz-adv-x="2398" 
d="M1247 133h-6q-179 -156 -405 -156q-156 0 -301 60q-145 63 -244 162q-100 100 -162 245q-59 142 -59 304q0 153 63 301q65 145 170 247q101 98 248 162q145 60 293 60q224 0 399 -150h4v125h1045v-334h-674v-244h612v-321h-612v-258h680v-336h-1051v133zM506 954
q-39 -69 -48.5 -151t9 -159t66 -145.5t116.5 -109.5q95 -59 205 -59q113 0 205 59q91 59 145 156q80 144 37.5 313t-182.5 252q-94 57 -205 57q-110 0 -205 -59q-89 -57 -143 -154z" />
    <glyph glyph-name="oe" unicode="&#x153;" horiz-adv-x="1943" 
d="M1876 418h-709q15 -70 70 -113q51 -45 137 -45q29 0 70 12q63 15 112 90l297 -104q-32 -71 -83 -126t-105 -85q-64 -33 -111 -45q-89 -25 -178 -25q-113 0 -211.5 39.5t-171.5 110.5q-77 -71 -174.5 -110.5t-200.5 -39.5q-147 0 -274 68q-129 67 -205 193
q-78 125 -78 276q0 148 80 272q77 120 205 189q127 65 272 65q100 0 199 -39.5t176 -109.5q73 71 170 110t205 39q139 0 258 -67q116 -64 186 -185q70 -124 70 -264q0 -62 -6 -106zM1352 764q-65 0 -117 -43q-52 -46 -64 -103h361q-10 67 -60 106.5t-120 39.5zM481 655
q-55 -58 -55 -143q0 -86 55 -147q56 -62 137 -62q85 0 140 64q55 61 55 145q0 85 -55 143q-59 62 -140 62t-137 -62z" />
    <glyph glyph-name="Racute" unicode="&#x154;" horiz-adv-x="1415" 
d="M498 1624l213 375h385l-326 -375h-272zM154 1493h612q254 0 408 -121q151 -124 151 -358q0 -157 -71 -264t-203 -162l309 -588h-402l-274 524h-154v-524h-376v1493zM530 846h207q103 0 157 39t54 114q0 78 -53.5 123t-159.5 45h-205v-321z" />
    <glyph glyph-name="racute" unicode="&#x155;" horiz-adv-x="872" 
d="M270 1188l213 373h385l-325 -373h-273zM836 1020l-2 -350q-39 8 -89 8q-262 0 -262 -258v-420h-364v1018h362v-148h2q64 103 152 131q76 25 133 25q30 0 68 -6z" />
    <glyph glyph-name="Rcommaaccent" unicode="&#x156;" horiz-adv-x="1415" 
d="M154 0v1493h612q254 0 408 -121q151 -124 151 -358q0 -157 -71 -264t-203 -162l309 -588h-402l-274 524h-154v-524h-376zM530 846h207q103 0 157 39t54 114q0 78 -53.5 123t-159.5 45h-205v-321zM543 -748v123q83 16 130.5 47.5t61.5 90.5q-36 -9 -55 -9q-72 0 -117 45
q-47 47 -47 119q0 75 57 123q51 51 129 51q96 0 148 -67q51 -66 51 -164q0 -158 -100 -248q-101 -96 -258 -111z" />
    <glyph glyph-name="rcommaaccent" unicode="&#x157;" horiz-adv-x="870" 
d="M834 1020l-3 -350q-39 8 -88 8q-262 0 -262 -258v-420h-362v1018h360v-148h2q64 103 152 131q76 25 133 25q30 0 68 -6zM147 -748v123q82 16 129.5 47.5t61.5 90.5q-36 -9 -53 -9q-74 0 -119 45t-45 119t55 123q54 51 129 51q96 0 148 -67q51 -63 51 -164
q0 -157 -98 -248q-104 -96 -259 -111z" />
    <glyph glyph-name="Rcaron" unicode="&#x158;" horiz-adv-x="1415" 
d="M846 1628h-334l-240 361h289l117 -193l117 193h290zM154 1493h612q254 0 408 -121q151 -124 151 -358q0 -157 -71 -264t-203 -162l309 -588h-402l-274 524h-154v-524h-376v1493zM530 846h207q103 0 157 39t54 114q0 78 -53.5 123t-159.5 45h-205v-321z" />
    <glyph glyph-name="rcaron" unicode="&#x159;" horiz-adv-x="872" 
d="M645 1190h-334l-241 360h290l119 -192l115 192h291zM836 1020l-2 -350q-39 8 -89 8q-262 0 -262 -258v-420h-364v1018h362v-148h2q64 103 152 131q76 25 133 25q30 0 68 -6z" />
    <glyph glyph-name="Sacute" unicode="&#x15a;" horiz-adv-x="1325" 
d="M512 1624l211 375h385l-324 -375h-272zM682 -20q-276 0 -428 129q-159 129 -199 348l338 80q12 -82 55.5 -139t104.5 -81q61 -22 131 -22q91 0 137 43q47 47 47 100q0 95 -129 119l-204 39q-196 42 -306 152q-114 117 -114 288q0 101 44.5 192.5t121.5 155.5
q74 63 174.5 98.5t208.5 35.5q213 0 350 -95q61 -43 106 -100q82 -106 101 -236l-330 -94q-15 98 -74 153.5t-155 55.5q-81 0 -127 -43t-46 -94q0 -102 111 -123l213 -41q208 -40 322 -160q112 -115 112 -288q0 -90 -38.5 -175t-108.5 -153q-72 -67 -181.5 -106t-236.5 -39z
" />
    <glyph glyph-name="sacute" unicode="&#x15b;" horiz-adv-x="1019" 
d="M358 1188l213 373h385l-325 -373h-273zM508 1042q100 0 185 -27.5t136 -72.5q100 -94 103 -188l-293 -56q-8 47 -41 68.5t-80 21.5q-43 0 -67.5 -19.5t-24.5 -45.5q0 -44 57 -53l146 -31q127 -24 221 -96q102 -83 102 -217q0 -135 -110 -242q-55 -50 -140 -78.5
t-186 -28.5q-197 0 -311 78q-46 30 -82 78q-59 75 -66 156l297 57q4 -52 44.5 -81t101.5 -29q52 0 78 20.5t26 48.5q0 48 -92 66l-111 22q-131 28 -217 92q-98 76 -98 211q-2 93 56 174t156 127.5t210 44.5z" />
    <glyph glyph-name="Scircumflex" unicode="&#x15c;" horiz-adv-x="1325" 
d="M502 1987h336l239 -359h-289l-118 193l-115 -193h-291zM682 -20q-276 0 -428 129q-159 129 -199 348l338 80q12 -82 55.5 -139t104.5 -81q61 -22 131 -22q91 0 137 43q47 47 47 100q0 95 -129 119l-204 39q-196 42 -306 152q-114 117 -114 288q0 101 44.5 192.5
t121.5 155.5q74 63 174.5 98.5t208.5 35.5q213 0 350 -95q61 -43 106 -100q82 -106 101 -236l-330 -94q-15 98 -74 153.5t-155 55.5q-81 0 -127 -43t-46 -94q0 -102 111 -123l213 -41q208 -40 322 -160q112 -115 112 -288q0 -90 -38.5 -175t-108.5 -153q-72 -67 -181.5 -106
t-236.5 -39z" />
    <glyph glyph-name="scircumflex" unicode="&#x15d;" horiz-adv-x="1019" 
d="M348 1550h336l238 -360h-289l-117 192l-117 -192h-293zM508 1042q100 0 185 -27.5t136 -72.5q100 -94 103 -188l-293 -56q-8 47 -41 68.5t-80 21.5q-43 0 -67.5 -19.5t-24.5 -45.5q0 -44 57 -53l146 -31q127 -24 221 -96q102 -83 102 -217q0 -135 -110 -242
q-55 -50 -140 -78.5t-186 -28.5q-197 0 -311 78q-46 30 -82 78q-59 75 -66 156l297 57q4 -52 44.5 -81t101.5 -29q52 0 78 20.5t26 48.5q0 48 -92 66l-111 22q-131 28 -217 92q-98 76 -98 211q-2 93 56 174t156 127.5t210 44.5z" />
    <glyph glyph-name="Scedilla" unicode="&#x15e;" horiz-adv-x="1323" 
d="M1247 453q0 -163 -117 -295q-115 -130 -313 -168q35 -78 35 -183q0 -151 -89.5 -233t-270.5 -82q-73 0 -144 23v202l72 -6q94 -7 138 36.5t44 139.5q0 33 -10 95q-232 21 -367 147q-132 123 -170 328l336 80q18 -124 98 -183t193 -59q93 0 139 43q45 45 45 100
q0 95 -127 119l-207 39q-191 41 -305 152q-114 117 -114 288q0 101 44.5 192.5t121.5 155.5q75 63 176 98.5t209 35.5q213 0 350 -95q61 -43 106 -100q83 -107 99 -236l-330 -94q-14 97 -73 153t-154 56q-81 0 -127 -43q-48 -45 -48 -94q0 -102 111 -123l215 -41
q208 -40 322 -160q112 -118 112 -288z" />
    <glyph glyph-name="scedilla" unicode="&#x15f;" horiz-adv-x="1015" 
d="M950 326q0 -112 -78 -205q-73 -90 -217 -129q37 -75 37 -185q0 -151 -89.5 -233t-270.5 -82q-73 0 -144 23v202l72 -6q94 -9 138 34.5t44 141.5q0 47 -10 93q-160 18 -252 92q-42 36 -67 73q-49 73 -56 144l293 57q6 -52 46.5 -81t101.5 -29q52 0 78 20.5t26 48.5
q0 48 -92 66l-111 22q-128 27 -215 94q-98 72 -98 209q0 144 123 246q121 100 295 100q101 0 185.5 -27t135.5 -73q99 -88 105 -188l-293 -56q-8 47 -41 68.5t-80 21.5q-43 0 -67.5 -19.5t-24.5 -45.5q0 -41 57 -53l146 -31q123 -23 221 -96q102 -83 102 -217z" />
    <glyph glyph-name="Scaron" unicode="&#x160;" horiz-adv-x="1325" 
d="M838 1636h-336l-238 361h289l117 -195l116 195h291zM682 -20q-275 0 -430 129q-157 130 -197 348l338 80q12 -82 55.5 -139t104.5 -81q61 -22 131 -22q91 0 137 43q47 47 47 100q0 95 -129 119l-204 39q-196 42 -306 152q-116 116 -116 288q0 135 77 250q76 110 203 172
q129 60 271 60q213 0 350 -95q61 -43 106 -100q82 -106 101 -236l-330 -94q-15 98 -74 153.5t-155 55.5q-81 0 -127 -43t-46 -94q0 -102 111 -123l213 -41q208 -40 322 -160q112 -115 112 -288q0 -90 -38.5 -175t-108.5 -153q-72 -67 -181.5 -106t-236.5 -39z" />
    <glyph glyph-name="scaron" unicode="&#x161;" horiz-adv-x="1017" 
d="M672 1190h-334l-242 360h291l117 -192l117 192h290zM506 1042q101 0 185.5 -27t135.5 -73q99 -93 105 -188l-295 -56q-8 47 -41 68.5t-80 21.5q-43 0 -67.5 -19.5t-24.5 -45.5q0 -44 57 -53l146 -31q126 -23 223 -96q100 -84 100 -217q0 -138 -110 -242
q-55 -50 -140 -78.5t-186 -28.5q-98 0 -179 21.5t-130 56.5q-44 27 -82 78q-59 75 -66 156l295 57q4 -52 44.5 -81t101.5 -29q52 0 78 20.5t26 48.5q0 48 -92 66l-111 22q-132 28 -215 92q-98 76 -98 211q0 144 123 246q121 100 297 100z" />
    <glyph glyph-name="uni0162" unicode="&#x162;" horiz-adv-x="1290" 
d="M834 1151v-1151q40 -76 40 -193q0 -151 -90 -233t-270 -82q-76 0 -143 23v202l71 -6q183 -15 183 176q0 43 -17 113h-151v1151h-422v342h1220v-342h-421z" />
    <glyph glyph-name="uni0163" unicode="&#x163;" horiz-adv-x="909" 
d="M596 717v-311q0 -119 131 -119q23 0 94 6v-281q-79 -28 -170 -28q33 -70 33 -177q0 -151 -89.5 -233t-270.5 -82q-73 0 -144 23v202l72 -6q94 -7 138 36.5t44 139.5q0 27 -6 70q-12 60 -18 76h2q-87 44 -133 130.5t-46 205.5v348h-200v301h209v330h354v-330h235v-301
h-235z" />
    <glyph glyph-name="Tcaron" unicode="&#x164;" horiz-adv-x="1290" 
d="M813 1628h-336l-239 361h290l117 -193l115 193h293zM834 0h-375v1151h-424v342h1220v-342h-421v-1151z" />
    <glyph glyph-name="tcaron" unicode="&#x165;" horiz-adv-x="901" 
d="M694 1116v447h373l-102 -447h-271zM813 293v-281q-74 -28 -192 -28q-181 0 -287 100q-109 97 -109 285v348h-192v301h200v330h355v-330h235v-301h-235v-311q0 -119 131 -119q23 0 94 6z" />
    <glyph glyph-name="Tbar" unicode="&#x166;" horiz-adv-x="1316" 
d="M248 500v254h223v397h-422v342h1221v-342h-422v-397h223v-254h-223v-500h-377v500h-223z" />
    <glyph glyph-name="tbar" unicode="&#x167;" horiz-adv-x="905" 
d="M49 406v198h180v115h-190v299h201v330h354v-330h235v-299h-235v-115h178v-198h-178q0 -119 131 -119q24 0 94 6v-281q-74 -28 -192 -28q-183 0 -289 100q-109 100 -109 285v37h-180z" />
    <glyph glyph-name="Utilde" unicode="&#x168;" horiz-adv-x="1523" 
d="M1384 1493v-899q0 -288 -157 -453q-154 -161 -469 -161q-324 0 -473 172q-146 165 -146 438v903h379v-897q0 -119 62 -193q61 -73 182 -73q136 0 192 82q50 73 50 176v905h380zM924 1628q-76 0 -168 51q-67 35 -68 35q-39 17 -63 17q-61 0 -64 -101h-192v53q0 129 55 205
q60 78 178 78q75 0 164 -51q11 -5 26 -13t25 -12.5t17 -7.5q40 -16 61 -16q56 0 68 63l6 33h184l2 -57q3 -124 -53 -201q-58 -76 -178 -76z" />
    <glyph glyph-name="utilde" unicode="&#x169;" horiz-adv-x="1243" 
d="M475 1018v-551q0 -68 37 -111q41 -47 102 -47q68 0 108 42.5t40 115.5v551h362v-1018h-360v127h-2q-53 -72 -131.5 -109.5t-161.5 -37.5q-97 0 -169.5 37.5t-112.5 100t-59 133.5t-19 150v617h366zM778 1190q-71 0 -168 51q-41 24 -67 35q-31 16 -64 16q-57 0 -63 -100
h-191l-2 55q0 128 56 205q58 76 178 76q73 0 164 -49q29 -16 67 -35q43 -17 62 -17q53 0 69 64l4 33h185l2 -56q3 -124 -54 -202q-58 -76 -178 -76z" />
    <glyph glyph-name="Umacron" unicode="&#x16a;" horiz-adv-x="1523" 
d="M393 1915h735v-260h-735v260zM1384 1493v-899q0 -288 -157 -453q-154 -161 -469 -161q-324 0 -473 172q-146 165 -146 438v903h379v-897q0 -119 62 -193q61 -73 182 -73q136 0 192 82q50 73 50 176v905h380z" />
    <glyph glyph-name="umacron" unicode="&#x16b;" horiz-adv-x="1241" 
d="M248 1458h735v-260h-735v260zM109 1018h362v-551q0 -69 39 -111q38 -47 100 -47q68 0 108 42.5t40 115.5v551h362v-1018h-360v127h-2q-54 -73 -131 -110t-162 -37q-94 0 -165.5 37.5t-111.5 100t-59.5 134t-19.5 149.5v617z" />
    <glyph glyph-name="Uring" unicode="&#x16e;" horiz-adv-x="1525" 
d="M762 1616q-124 0 -211 84q-90 84 -90 203q0 118 90 202t211 84q122 0 213 -82q88 -85 88 -204q0 -124 -88 -203q-87 -84 -213 -84zM686 1980q-33 -33 -33 -77q0 -49 33 -78q29 -33 76 -33q49 0 78 33q32 28 32 78q0 45 -32 77q-31 31 -78 31q-45 0 -76 -31zM1386 1493
v-899q0 -288 -157 -453q-154 -161 -469 -161q-323 0 -475 172q-146 165 -146 438v903h381v-897q0 -119 62 -193q61 -73 182 -73q136 0 192 82q50 73 50 176v905h380z" />
    <glyph glyph-name="uring" unicode="&#x16f;" horiz-adv-x="1243" 
d="M614 1159q-121 0 -208 84q-91 85 -91 203t91 203q84 84 208 84q127 0 215 -82q89 -86 89 -205q0 -117 -89 -203q-90 -84 -215 -84zM539 1524q-31 -31 -31 -78q0 -42 31 -78q36 -31 77 -31q47 0 78 31q33 33 33 78q0 49 -33 78q-28 32 -78 32q-45 0 -77 -32zM109 1018h362
v-551q0 -69 39 -111q38 -47 100 -47q68 0 108 42.5t40 115.5v551h362v-1018h-360v127h-2q-54 -73 -131 -110t-162 -37q-94 0 -165.5 37.5t-111.5 100t-59.5 134t-19.5 149.5v617z" />
    <glyph glyph-name="Uhungarumlaut" unicode="&#x170;" horiz-adv-x="1525" 
d="M403 1624l213 375h367l-317 -375h-263zM860 1624l213 375h367l-316 -375h-264zM1386 1493v-899q0 -288 -157 -453q-154 -161 -469 -161q-323 0 -475 172q-146 165 -146 438v903h381v-897q0 -119 62 -193q61 -73 182 -73q136 0 192 82q50 73 50 176v905h380z" />
    <glyph glyph-name="uhungarumlaut" unicode="&#x171;" horiz-adv-x="1243" 
d="M258 1188l213 373h369l-318 -373h-264zM717 1188l213 373h366l-317 -373h-262zM109 1018h362v-551q0 -69 39 -111q38 -47 100 -47q68 0 108 42.5t40 115.5v551h362v-1018h-360v127h-2q-54 -73 -131 -110t-162 -37q-94 0 -165.5 37.5t-111.5 100t-59.5 134t-19.5 149.5
v617z" />
    <glyph glyph-name="Uogonek" unicode="&#x172;" horiz-adv-x="1523" 
d="M856 -217q0 -43 39 -62q42 -22 82 -22q31 0 90 12v-190q-68 -27 -178 -27q-183 0 -268 92q-48 54 -48 125q0 134 166 269q-249 3 -395 126q-65 54 -117 134q-88 140 -88 323v930h379v-918q0 -112 63.5 -175.5t172.5 -63.5q122 0 186 70q64 67 64 172v915h380v-932
q0 -289 -219 -457l-30 -22q-151 -113 -211 -176q-68 -68 -68 -123z" />
    <glyph glyph-name="uogonek" unicode="&#x173;" horiz-adv-x="1241" 
d="M109 1018h362v-551q0 -69 39 -111q38 -47 100 -47q68 0 108 42.5t40 115.5v551h362v-1018q-79 -42 -145 -100q-74 -62 -74 -117q0 -44 41 -62q39 -22 82 -22q28 0 90 12v-190q-70 -27 -180 -27q-61 0 -115 12.5t-99.5 37.5t-72 68t-26.5 99q0 151 208 289h-69v127h-2
q-54 -73 -131 -110t-162 -37q-94 0 -165.5 37.5t-111.5 100t-59.5 134t-19.5 149.5v617z" />
    <glyph glyph-name="Wcircumflex" unicode="&#x174;" horiz-adv-x="2283" 
d="M975 2028h336l237 -361h-291l-114 193l-119 -193h-289zM416 1493l252 -944h6l287 944h362l295 -946h4l258 946h381l-440 -1493h-379l-299 1010h-4l-305 -1010h-373l-438 1493h393z" />
    <glyph glyph-name="wcircumflex" unicode="&#x175;" horiz-adv-x="1736" 
d="M702 1550h336l240 -360h-291l-117 192l-114 -192h-293zM543 471l178 547h295l182 -551h2l170 551h346l-327 -1018h-345l-176 545h-2l-180 -545h-340l-323 1018h360l158 -547h2z" />
    <glyph glyph-name="Ycircumflex" unicode="&#x176;" horiz-adv-x="1464" 
d="M565 2028h336l238 -361h-291l-115 193l-119 -193h-288zM436 1493l299 -535l303 535h416l-532 -918v-575h-379v575l-533 918h426z" />
    <glyph glyph-name="ycircumflex" unicode="&#x177;" horiz-adv-x="1226" 
d="M463 1550h336l237 -360h-288l-117 192l-117 -192h-291zM637 498h2l192 520h383l-620 -1520h-387l244 600l-445 920h397z" />
    <glyph glyph-name="Ydieresis" unicode="&#x178;" horiz-adv-x="1464" 
d="M631 1839q0 -82 -53 -135q-55 -55 -138 -55q-81 0 -133 55q-55 55 -55 135q0 82 55 137q54 54 133 54q81 0 138 -54q53 -53 53 -137zM1182 1839q0 -81 -54 -135q-55 -55 -135 -55q-83 0 -135 55q-55 55 -55 135q0 82 55 137q54 54 135 54q78 0 135 -54q54 -54 54 -137z
M436 1493l299 -535l303 535h416l-532 -918v-575h-379v575l-533 918h426z" />
    <glyph glyph-name="Zacute" unicode="&#x179;" horiz-adv-x="1339" 
d="M551 1624l211 375h385l-324 -375h-272zM106 1161v332h1143v-315l-690 -842h692v-336h-1177v317l690 844h-658z" />
    <glyph glyph-name="zacute" unicode="&#x17a;" horiz-adv-x="1069" 
d="M391 1188l213 373h385l-323 -373h-275zM983 1018v-268l-446 -453h450v-297h-907v287l426 432h-410v299h887z" />
    <glyph glyph-name="Zdotaccent" unicode="&#x17b;" horiz-adv-x="1339" 
d="M664 1628q-88 0 -150 62q-63 60 -63 147q0 89 63 152q61 61 150 61t149 -63q61 -61 61 -150q0 -86 -61 -147q-62 -62 -149 -62zM106 1161v332h1143v-315l-690 -842h692v-336h-1177v317l690 844h-658z" />
    <glyph glyph-name="zdotaccent" unicode="&#x17c;" horiz-adv-x="1069" 
d="M532 1155q-84 0 -149 62q-61 61 -61 145q0 90 61 151q62 62 149 62q88 0 150 -62q61 -64 61 -151q0 -84 -61 -145q-62 -62 -150 -62zM983 1018v-268l-446 -453h450v-297h-907v287l426 432h-410v299h887z" />
    <glyph glyph-name="Zcaron" unicode="&#x17d;" horiz-adv-x="1339" 
d="M829 1626h-333l-240 361h289l119 -193l114 193h291zM74 317l690 844h-658v332h1143v-315l-690 -842h692v-336h-1177v317z" />
    <glyph glyph-name="zcaron" unicode="&#x17e;" horiz-adv-x="1069" 
d="M700 1190h-333l-242 360h291l116 -192l117 192h291zM96 719v299h887v-268l-446 -453h450v-297h-907v287l426 432h-410z" />
    <glyph glyph-name="florin" unicode="&#x192;" horiz-adv-x="1210" 
d="M817 723l-76 -375q-73 -371 -454 -371q-106 0 -201 31v289q94 -23 150 -23q57 0 97 35t52 92l66 322h-181v295h240l22 108q74 373 453 373q106 0 201 -31v-290q-86 24 -150 24q-57 0 -97.5 -36t-51.5 -93l-13 -55h226v-295h-283z" />
    <glyph glyph-name="uni01B5" unicode="&#x1b5;" horiz-adv-x="1339" 
d="M762 1161h-656v332h1143v-311l-266 -324h266v-211h-436l-256 -311h692v-336h-1175v313l274 334h-242v211h410z" />
    <glyph glyph-name="uni01B6" unicode="&#x1b6;" horiz-adv-x="1069" 
d="M983 1018v-232l-205 -206h205v-144h-334l-141 -149h479v-287h-907v250l176 186h-160v144h297l139 149h-436v289h887z" />
    <glyph glyph-name="uni01CD" unicode="&#x1cd;" horiz-adv-x="1540" 
d="M938 1636h-334l-239 361h288l117 -195l117 195h291zM559 1493h424l573 -1493h-399l-102 274h-576l-100 -274h-393zM946 594l-180 475l-178 -475h358z" />
    <glyph glyph-name="uni01CE" unicode="&#x1ce;" horiz-adv-x="1142" 
d="M721 1190h-334l-244 360h293l117 -192l117 192h291zM541 764q-57 0 -99.5 -31t-52.5 -80l-303 66q13 81 60.5 146.5t115.5 103.5q140 73 291 73q287 0 416 -186q65 -100 65 -233v-459q0 -101 8 -164h-346q-8 41 -8 119l-4 2q-120 -141 -307 -141q-127 0 -221 88
q-90 84 -90 213q0 198 221 278q117 43 262 43h53q34 0 54 16.5t20 45.5q0 43 -36.5 71.5t-98.5 28.5zM520 231q69 0 112.5 40t43.5 106v31h-127q-43 0 -84 -23q-37 -24 -37 -68q0 -35 27.5 -60.5t64.5 -25.5z" />
    <glyph glyph-name="uni01CF" unicode="&#x1cf;" horiz-adv-x="686" 
d="M512 1628h-336l-239 361h288l119 -193l115 193h291zM154 1493h378v-1493h-378v1493z" />
    <glyph glyph-name="uni01D0" unicode="&#x1d0;" horiz-adv-x="604" 
d="M471 1190h-336l-241 360h290l119 -192l115 192h291zM119 0v1018h364v-1018h-364z" />
    <glyph glyph-name="uni01D1" unicode="&#x1d1;" horiz-adv-x="1699" 
d="M1018 1636h-336l-240 361h291l117 -195l115 195h292zM70 748q0 214 106 389q104 176 285 280q180 101 393 101q214 0 391 -101q178 -100 281 -276q104 -174 104 -389q0 -160 -61 -303q-67 -150 -166 -246q-110 -107 -250 -164q-145 -62 -303 -62q-216 0 -391 103
q-176 96 -285 276q-104 177 -104 392zM455 750q0 -172 114 -295q116 -125 281 -125q167 0 283 125q114 126 114 295q2 108 -50 204.5t-145.5 155.5t-201.5 57q-111 0 -203 -59q-91 -58 -141 -154q-51 -92 -51 -204z" />
    <glyph glyph-name="uni01D2" unicode="&#x1d2;" horiz-adv-x="1249" 
d="M793 1190h-336l-240 360h291l117 -192l114 192h293zM63 508q0 110 46.5 211.5t126.5 171.5q77 70 180.5 109.5t212.5 39.5t211.5 -38.5t179.5 -106.5q77 -69 121.5 -169t44.5 -210q0 -112 -45 -213.5t-123 -173.5t-181.5 -112t-215.5 -40t-215 39t-179 109t-120 170.5
t-44 212.5zM483 655q-55 -61 -55 -143q0 -85 57 -145q55 -64 140 -64q83 0 141 64q55 61 55 145q0 82 -55 143q-59 62 -141 62q-83 0 -142 -62z" />
    <glyph glyph-name="uni01D3" unicode="&#x1d3;" horiz-adv-x="1523" 
d="M930 1636h-336l-240 361h291l117 -195l115 195h290zM1384 1493v-899q0 -288 -157 -453q-154 -161 -469 -161q-324 0 -473 172q-146 165 -146 438v903h379v-897q0 -119 62 -193q61 -73 182 -73q136 0 192 82q50 73 50 176v905h380z" />
    <glyph glyph-name="uni01D4" unicode="&#x1d4;" horiz-adv-x="1239" 
d="M782 1190h-333l-240 360h289l116 -192l117 192h291zM109 1018h362v-551q0 -69 39 -111q38 -47 100 -47q68 0 108 42.5t40 115.5v551h362v-1018h-360v127h-2q-54 -73 -131 -110t-162 -37q-94 0 -165.5 37.5t-111.5 100t-59.5 134t-19.5 149.5v617z" />
    <glyph glyph-name="uni01D5" unicode="&#x1d5;" horiz-adv-x="1523" 
d="M1384 1493v-899q0 -288 -157 -453q-154 -161 -469 -161q-324 0 -473 172q-146 165 -146 438v903h379v-897q0 -119 62 -193q61 -73 182 -73q136 0 192 82q50 73 50 176v905h380zM395 2265h733v-260h-733v260zM639 1890q55 -55 55 -137q0 -79 -53 -135q-56 -53 -135 -53
q-82 0 -135 53q-54 54 -54 135q0 83 54 137q53 56 135 56q80 0 133 -56zM1208 1753q0 -79 -53 -135q-56 -53 -137 -53q-79 0 -135 53q-54 57 -54 135q0 80 54 137q56 56 135 56q81 0 137 -56q53 -56 53 -137z" />
    <glyph glyph-name="uni01D6" unicode="&#x1d6;" horiz-adv-x="1239" 
d="M248 1837h735v-258h-735v258zM557 1298q0 -83 -55 -135q-50 -53 -135 -53q-86 0 -136 53q-55 52 -55 135q0 84 55 136q52 55 136 55q83 0 135 -55q55 -52 55 -136zM997 1434q56 -53 56 -136q0 -79 -56 -135q-50 -53 -135 -53t-135 53q-53 50 -53 135q0 86 53 136
q55 55 135 55t135 -55zM109 1018h362v-551q0 -69 39 -111q38 -47 100 -47q68 0 108 42.5t40 115.5v551h362v-1018h-360v127h-2q-54 -73 -131 -110t-162 -37q-94 0 -165.5 37.5t-111.5 100t-59.5 134t-19.5 149.5v617z" />
    <glyph glyph-name="uni01D7" unicode="&#x1d7;" horiz-adv-x="1523" 
d="M1384 1493v-899q0 -288 -157 -453q-154 -161 -469 -161q-324 0 -473 172q-146 165 -146 438v903h379v-897q0 -119 62 -193q61 -73 182 -73q136 0 192 82q50 73 50 176v905h380zM623 1976l196 348h379l-303 -348h-272zM705 1753q0 -78 -54 -135q-55 -55 -137 -55
q-83 0 -135 55q-55 55 -55 135q0 83 55 135q56 56 135 56q82 0 135 -56q56 -53 56 -135zM1198 1753q0 -82 -53 -135q-55 -55 -137 -55t-134 55q-53 56 -53 135q0 82 56 135q53 56 131 56q81 0 137 -56q53 -50 53 -135z" />
    <glyph glyph-name="uni01D8" unicode="&#x1d8;" horiz-adv-x="1239" 
d="M475 1540l211 375h387l-325 -375h-273zM557 1298q0 -83 -55 -135q-50 -53 -135 -53q-86 0 -136 53q-55 52 -55 135q0 84 55 136q55 55 136 55q83 0 135 -55q55 -52 55 -136zM997 1434q56 -53 56 -136q0 -79 -56 -135q-50 -53 -135 -53t-135 53q-51 51 -51 135
q0 86 53 136q52 55 133 55q83 0 135 -55zM109 1018h362v-551q0 -69 39 -111q38 -47 100 -47q68 0 108 42.5t40 115.5v551h362v-1018h-360v127h-2q-54 -73 -131 -110t-162 -37q-94 0 -165.5 37.5t-111.5 100t-59.5 134t-19.5 149.5v617z" />
    <glyph glyph-name="uni01D9" unicode="&#x1d9;" horiz-adv-x="1523" 
d="M1384 1493v-899q0 -288 -157 -453q-154 -161 -469 -161q-324 0 -473 172q-146 165 -146 438v903h379v-897q0 -119 62 -193q61 -73 182 -73q136 0 192 82q50 73 50 176v905h380zM922 1976h-320l-248 348h291l115 -180l117 180h290zM707 1753q0 -79 -56 -135
q-55 -55 -137 -55q-80 0 -135 55q-53 56 -53 135q0 82 53 135q56 56 135 56q81 0 137 -56q56 -53 56 -135zM1200 1753q0 -82 -53 -135q-55 -55 -137 -55q-81 0 -133 55q-56 56 -56 135q0 82 56 135q53 56 133 56q78 0 137 -56q53 -53 53 -135z" />
    <glyph glyph-name="uni01DA" unicode="&#x1da;" horiz-adv-x="1239" 
d="M784 1542h-335l-242 361h291l118 -193l113 193h293zM557 1298q0 -83 -55 -135q-50 -53 -135 -53q-86 0 -136 53q-55 52 -55 135q0 84 55 136q55 55 136 55q83 0 135 -55q55 -52 55 -136zM997 1434q56 -53 56 -136q0 -79 -56 -135q-50 -53 -135 -53t-135 53
q-51 51 -51 135q0 86 53 136q52 55 133 55q83 0 135 -55zM109 1018h362v-551q0 -69 39 -111q38 -47 100 -47q68 0 108 42.5t40 115.5v551h362v-1018h-360v127h-2q-54 -73 -131 -110t-162 -37q-94 0 -165.5 37.5t-111.5 100t-59.5 134t-19.5 149.5v617z" />
    <glyph glyph-name="uni01DB" unicode="&#x1db;" horiz-adv-x="1523" 
d="M1384 1493v-899q0 -288 -157 -453q-154 -161 -469 -161q-324 0 -473 172q-146 165 -146 438v903h379v-897q0 -119 62 -193q61 -73 182 -73q136 0 192 82q50 73 50 176v905h380zM629 1976l-303 348h379l196 -348h-272zM1198 1753q0 85 -53 135q-56 56 -137 56
q-78 0 -131 -56q-56 -53 -56 -135q0 -79 53 -135q52 -55 134 -55t137 55q53 53 53 135zM705 1753q0 82 -56 135q-53 56 -135 56q-79 0 -135 -56q-55 -52 -55 -135q0 -80 55 -135q52 -55 135 -55q82 0 137 55q54 57 54 135z" />
    <glyph glyph-name="uni01DC" unicode="&#x1dc;" horiz-adv-x="1239" 
d="M549 1915l211 -375h-273l-325 375h387zM557 1298q0 -83 -55 -135q-50 -53 -135 -53q-86 0 -136 53q-55 52 -55 135q0 84 55 136q55 55 136 55q83 0 135 -55q55 -52 55 -136zM997 1434q56 -53 56 -136q0 -79 -56 -135q-50 -53 -135 -53t-135 53q-51 51 -51 135
q0 86 53 136q52 55 133 55q83 0 135 -55zM109 1018h362v-551q0 -69 39 -111q38 -47 100 -47q68 0 108 42.5t40 115.5v551h362v-1018h-360v127h-2q-54 -73 -131 -110t-162 -37q-94 0 -165.5 37.5t-111.5 100t-59.5 134t-19.5 149.5v617z" />
    <glyph glyph-name="Gcaron" unicode="&#x1e6;" horiz-adv-x="1630" 
d="M1024 1628h-336l-239 361h288l119 -193l117 193h291zM1174 514h-429v303h822v-147q0 -141 -51 -268.5t-144 -221.5q-92 -95 -226 -149t-290 -54q-221 0 -401 101q-180 100 -281 274q-104 177 -104 396q0 155 63 296q62 139 166 246q100 100 250 166q145 62 305 62
q117 0 223 -28.5t183 -76.5q74 -48 133 -113q109 -118 145 -251l-364 -97q-19 71 -89 144q-89 82 -235 82q-168 0 -283 -121q-114 -120 -114 -307q0 -186 112 -310q116 -125 291 -125q111 0 205 58q92 56 113 141z" />
    <glyph glyph-name="gcaron" unicode="&#x1e7;" horiz-adv-x="1310" 
d="M797 1190h-336l-240 360h291l117 -192l114 192h291zM829 154h-6q-113 -146 -280 -146q-211 0 -342 146q-133 145 -133 364q0 112 38 210t105 163q67 67 153.5 104t180.5 37q173 0 282 -137h7v123h358v-967q0 -263 -162 -409q-166 -152 -426 -152q-114 0 -214 32.5
t-167 86.5q-133 111 -157 248l321 96q14 -68 69.5 -110t133.5 -42q115 0 177 57.5t62 172.5v123zM776 379q58 58 58 141q0 84 -58 142q-58 55 -141 55t-141 -58q-56 -56 -56 -141q0 -82 56 -141q58 -58 141 -58q84 0 141 60z" />
    <glyph glyph-name="uni01E8" unicode="&#x1e8;" horiz-adv-x="1458" 
d="M963 1628h-334l-240 361h289l119 -193l114 193h291zM154 1493h381v-641l460 641h443l-512 -709l549 -784h-469l-471 707v-707h-381v1493z" />
    <glyph glyph-name="uni01E9" unicode="&#x1e9;" horiz-adv-x="1218" 
d="M119 1554h362v-958l307 422h418l-342 -473l355 -545h-424l-306 496h-8v-496h-362v1554zM856 1550h-291l240 -360h336l239 360h-293l-114 -192z" />
    <glyph glyph-name="uni01F4" unicode="&#x1f4;" horiz-adv-x="1632" 
d="M707 1624l213 375h385l-324 -375h-274zM1569 817v-147q0 -141 -51 -268.5t-144 -221.5q-92 -95 -226 -149t-290 -54q-221 0 -401 101q-183 101 -283 274q-104 177 -104 396q0 155 63 296q62 139 166 246q99 99 252 166q145 62 305 62q117 0 223 -28.5t183 -76.5
q78 -53 133 -113q105 -113 145 -251l-364 -97q-19 72 -91 144q-38 37 -99.5 59.5t-133.5 22.5q-168 0 -283 -121q-114 -117 -114 -307q0 -186 112 -310q116 -125 291 -125q111 0 205 58q92 56 113 141h-428v303h821z" />
    <glyph glyph-name="uni01F5" unicode="&#x1f5;" horiz-adv-x="1310" 
d="M451 1188l213 373h385l-326 -373h-272zM829 154h-6q-113 -146 -280 -146q-211 0 -342 146q-133 145 -133 364q0 112 38 210t105 163q67 67 153.5 104t180.5 37q173 0 282 -137h7v123h358v-967q0 -263 -162 -409q-166 -152 -426 -152q-114 0 -214 32.5t-167 86.5
q-133 111 -157 248l321 96q14 -68 69.5 -110t133.5 -42q115 0 177 57.5t62 172.5v123zM776 379q58 58 58 141q0 84 -58 142q-58 55 -141 55t-141 -58q-56 -56 -56 -141q0 -82 56 -141q58 -58 141 -58q84 0 141 60z" />
    <glyph glyph-name="Aringacute" unicode="&#x1fa;" horiz-adv-x="1540" 
d="M1364 2062l-320 -370q23 -57 23 -113q0 -92 -53 -166l542 -1413h-399l-102 274h-576l-100 -274h-393l540 1409q-59 77 -59 170q0 119 90 203q87 84 211 84q46 0 92 -15l119 211h385zM846 1657q-36 31 -78 31q-47 0 -78 -31q-33 -33 -33 -80t33 -76q29 -33 78 -33
q45 0 78 33q31 31 31 76q0 44 -31 80zM946 594l-180 475l-178 -475h358z" />
    <glyph glyph-name="aringacute" unicode="&#x1fb;" horiz-adv-x="1142" 
d="M1163 1618l-323 -371q26 -53 26 -114q0 -80 -45 -150q102 -50 157.5 -142.5t55.5 -217.5v-459q0 -101 8 -164h-344q-10 52 -10 119l-2 2q-123 -141 -309 -141q-128 0 -219 88q-90 81 -90 213q0 198 219 278q119 43 262 43h55q34 0 53 16.5t19 45.5q0 43 -36.5 71.5
t-98.5 28.5q-57 0 -99.5 -31t-52.5 -80l-303 66q35 185 219 270q-41 65 -41 144q0 118 90 202q87 84 209 84q41 0 92 -14l123 213h385zM643 1210q-36 31 -80 31q-45 0 -76 -31q-32 -32 -32 -77q0 -50 32 -78q33 -33 76 -33q42 0 80 33q31 31 31 78q0 41 -31 77zM676 408
h-125q-43 0 -84 -23q-37 -22 -37 -68q0 -35 27 -60.5t65 -25.5q68 0 111 39.5t43 106.5v31z" />
    <glyph glyph-name="AEacute" unicode="&#x1fc;" horiz-adv-x="2048" 
d="M965 1624l213 375h385l-324 -375h-274zM1942 1159h-662v-244h600v-321h-600v-258h666v-336h-1031v236h-436l-106 -236h-396l701 1493h1264v-334zM897 1165l-272 -610h290v610h-18z" />
    <glyph glyph-name="aeacute" unicode="&#x1fd;" horiz-adv-x="1802" 
d="M758 1188l211 373h385l-324 -373h-272zM1733 418h-705q9 -71 66 -113q54 -45 141 -45q24 0 47 6q17 2 43 15q58 30 88 81l297 -104q-127 -281 -493 -281q-125 0 -229 48t-175 135q-157 -183 -410 -183h-12q-134 0 -229 86q-96 90 -96 218q0 198 221 278q117 43 262 43h53
q34 0 54 16.5t20 45.5q0 43 -36.5 71.5t-98.5 28.5q-57 0 -99.5 -31t-52.5 -80l-303 66q13 81 60.5 146.5t115.5 103.5q140 73 291 73q212 0 344 -108q135 106 322 106q145 0 264 -67q119 -65 186 -185q70 -119 70 -264q0 -76 -6 -106zM1212 764q-67 0 -116 -43
q-52 -46 -64 -103h354q-10 68 -57 107t-117 39zM520 231q69 0 112.5 40t43.5 106v31h-127q-43 0 -84 -23q-37 -24 -37 -68q0 -35 27.5 -60.5t64.5 -25.5z" />
    <glyph glyph-name="Oslashacute" unicode="&#x1fe;" horiz-adv-x="1703" 
d="M713 1624l211 375h387l-326 -375h-272zM1630 1409l-166 -176q168 -207 168 -481q0 -160 -61 -303q-62 -145 -166 -246q-105 -105 -250 -164q-145 -62 -303 -62q-245 0 -440 134l-164 -174l-176 159l164 174q-164 209 -164 478q0 214 106 389q104 176 285 280
q180 101 393 101q237 0 432 -125l168 178zM854 1171q-116 0 -205 -57q-93 -57 -145 -156q-51 -97 -51 -206q0 -105 47 -201l540 575q-83 45 -186 45zM854 328q110 0 205 59q87 56 143 156q51 96 51 209q0 110 -49 204l-545 -577q83 -51 195 -51z" />
    <glyph glyph-name="oslashacute" unicode="&#x1ff;" horiz-adv-x="1251" 
d="M485 1188l213 373h387l-325 -373h-275zM1186 987l-127 -131q129 -144 129 -340q0 -112 -45 -213.5t-123 -173.5t-181.5 -112t-215.5 -40q-176 0 -316 91l-133 -134l-108 105l122 129q-125 146 -125 344q0 146 80 270q80 123 209 191q128 67 277 67q170 0 313 -88l133 140
zM428 512q0 -44 14 -82l260 270q-43 17 -77 17q-84 0 -140 -62q-57 -60 -57 -143zM627 303q83 0 141 64q55 61 55 145q0 43 -16 82l-262 -272q43 -19 82 -19z" />
    <glyph glyph-name="Scommaaccent" unicode="&#x218;" horiz-adv-x="1323" 
d="M680 -20q-273 0 -428 129q-157 130 -197 348l338 80q10 -82 53.5 -139t106.5 -81q61 -22 129 -22q93 0 139 43q45 45 45 100q0 95 -127 119l-207 39q-191 41 -305 152q-114 117 -114 288q0 101 44.5 192.5t121.5 155.5q75 63 176 98.5t209 35.5q213 0 350 -95
q61 -43 106 -100q83 -107 99 -236l-330 -94q-14 97 -73 153t-154 56q-81 0 -127 -43q-48 -45 -48 -94q0 -102 111 -123l215 -41q208 -40 322 -160q112 -118 112 -288q0 -185 -149 -328q-72 -67 -181.5 -106t-236.5 -39zM473 -748v123q83 16 131 47.5t62 90.5q-36 -9 -56 -9
q-71 0 -116 45q-48 48 -48 119q0 73 56 123q54 51 131 51q96 0 145 -67q51 -63 51 -164q0 -160 -98 -248q-101 -96 -258 -111z" />
    <glyph glyph-name="scommaaccent" unicode="&#x219;" horiz-adv-x="1015" 
d="M504 1042q101 0 185.5 -27t135.5 -73q99 -88 105 -188l-295 -56q-14 90 -119 90q-44 0 -68 -19.5t-24 -45.5q0 -44 57 -53l144 -31q125 -23 223 -96q102 -83 102 -217q0 -135 -110 -242q-117 -107 -328 -107q-96 0 -177 21.5t-130 56.5q-52 32 -82 78q-59 75 -66 156
l293 57q6 -51 46 -80.5t100 -29.5q53 0 79.5 20.5t26.5 48.5q0 48 -92 66l-111 22q-135 28 -215 92q-98 76 -98 211q0 143 121 246q124 100 297 100zM324 -748v123q83 16 130 47.5t60 90.5q-31 -9 -53 -9q-72 0 -117 45q-47 47 -47 119q0 74 55 123q54 51 129 51
q96 0 148 -67q51 -63 51 -164q0 -157 -98 -248q-101 -96 -258 -111z" />
    <glyph glyph-name="uni021A" unicode="&#x21a;" horiz-adv-x="1290" 
d="M35 1493h1220v-342h-421v-1151h-377v1151h-422v342zM471 -748v123q83 16 131 47.5t62 90.5q-36 -9 -56 -9q-71 0 -116 45q-48 48 -48 119q0 74 58 123q51 51 129 51q95 0 147 -67q51 -66 51 -164q0 -158 -100 -248q-101 -96 -258 -111z" />
    <glyph glyph-name="uni021B" unicode="&#x21b;" horiz-adv-x="901" 
d="M813 293v-281q-74 -28 -192 -28q-181 0 -287 100q-109 97 -109 285v348h-192v301h200v330h355v-330h235v-301h-235v-311q0 -119 131 -119q23 0 94 6zM295 -748v123q82 16 129 47.5t61 90.5q-36 -9 -55 -9q-72 0 -117 45q-47 47 -47 119q0 71 58 123q51 51 129 51
q95 0 147 -67q51 -63 51 -164q0 -157 -98 -248q-104 -96 -258 -111z" />
    <glyph glyph-name="uni0237" unicode="&#x237;" horiz-adv-x="618" 
d="M133 -80v1098h367v-1108q0 -184 -103 -299q-104 -113 -301 -113q-73 0 -119 10q-54 9 -71 19v285q53 -11 88 -11q139 0 139 119z" />
    <glyph glyph-name="gravecomb" unicode="&#x300;" 
d="M86 1561l213 -373h-272l-326 373h385z" />
    <glyph glyph-name="acutecomb" unicode="&#x301;" 
d="M-299 1188l213 373h385l-326 -373h-272z" />
    <glyph glyph-name="uni0302" unicode="&#x302;" 
d="M-168 1550h336l240 -360h-291l-117 192l-115 -192h-293z" />
    <glyph glyph-name="tildecomb" unicode="&#x303;" 
d="M164 1190q-73 0 -170 51q-25 14 -66 35q-33 16 -65 16q-58 0 -64 -100h-190l-2 55q0 129 55 205q58 76 178 76q73 0 164 -49q19 -11 68 -35q42 -17 61 -17q58 0 70 64l4 33h184l2 -56q3 -129 -53 -202q-58 -76 -176 -76z" />
    <glyph glyph-name="uni0304" unicode="&#x304;" 
d="M-369 1458h738v-260h-738v260z" />
    <glyph glyph-name="brevecomb" unicode="&#x306;" 
d="M147 1550h246q-15 -164 -123 -266q-111 -102 -270 -102t-270 102q-111 105 -123 266h248q9 -67 47 -106t98 -39q61 0 99.5 39t47.5 106z" />
    <glyph glyph-name="uni0307" unicode="&#x307;" 
d="M-211 1155q-84 0 -149 62q-62 62 -62 145q0 89 62 151t149 62q88 0 150 -62q61 -64 61 -151q0 -84 -61 -145q-62 -62 -150 -62z" />
    <glyph glyph-name="uni0308" unicode="&#x308;" 
d="M-338 1364q0 -79 -53 -135q-53 -53 -137 -53q-83 0 -136 53q-53 56 -53 135q0 81 53 137q56 53 136 53q79 0 135 -53q55 -55 55 -137zM158 1364q0 -81 -54 -135q-53 -53 -137 -53q-85 0 -135 53q-53 56 -53 135q0 81 53 137q56 53 135 53q82 0 135 -53q56 -56 56 -137z
" />
    <glyph glyph-name="uni030A" unicode="&#x30a;" 
d="M0 1159q-123 0 -213 84q-88 85 -88 203t88 203q87 84 213 84q125 0 213 -82q88 -85 88 -205q0 -118 -88 -203q-90 -84 -213 -84zM-78 1524q-33 -29 -33 -78q0 -45 33 -78q31 -31 78 -31q42 0 78 31q31 36 31 78q0 47 -31 78q-32 32 -78 32q-50 0 -78 -32z" />
    <glyph glyph-name="uni030B" unicode="&#x30b;" 
d="M-518 1188l213 373h366l-317 -373h-262zM-61 1188l213 373h366l-315 -373h-264z" />
    <glyph glyph-name="uni030C" unicode="&#x30c;" 
d="M168 1190h-336l-240 360h291l117 -192l115 192h293z" />
    <glyph glyph-name="uni0312" unicode="&#x312;" 
d="M158 1765v-125q-167 -27 -191 -135q19 8 53 8q70 0 117 -47t47 -116q0 -73 -55 -125q-55 -49 -129 -49q-94 0 -147 65q-52 64 -52 164q0 159 99 250q100 95 258 110z" />
    <glyph glyph-name="uni0326" unicode="&#x326;" 
d="M-158 -748v123q82 16 129.5 47.5t61.5 90.5q-36 -9 -53 -9q-74 0 -119 45t-45 119q0 73 53 123q57 51 131 51q95 0 147 -67q52 -64 52 -164q0 -157 -99 -248q-104 -96 -258 -111z" />
    <glyph glyph-name="uni0327" unicode="&#x327;" 
d="M250 -193q0 -158 -96 -233q-101 -72 -265 -72q-76 0 -139 17v200q47 -8 100 -8q81 0 122.5 47t41.5 133q0 57 -24 109h217q43 -82 43 -193z" />
    <glyph glyph-name="uni0328" unicode="&#x328;" 
d="M33 -217q0 -45 39 -62q39 -22 82 -22q32 0 90 12v-190q-67 -27 -181 -27q-183 0 -268 92q-45 51 -45 125q0 151 209 289h291q-110 -58 -174 -131q-43 -49 -43 -86z" />
    <glyph glyph-name="Theta" unicode="&#x398;" horiz-adv-x="1699" 
d="M850 -23q-216 0 -391 103q-176 96 -285 276q-104 177 -104 392q0 214 106 389q104 176 285 280q180 101 393 101q214 0 391 -101q178 -100 281 -276q104 -174 104 -389q0 -160 -61 -303q-67 -150 -166 -246q-110 -107 -250 -164q-145 -62 -303 -62zM850 1171
q-110 2 -204 -57.5t-147 -157.5t-50 -206q-3 -108 50 -207t147.5 -159t203.5 -58q109 -2 203.5 58t147.5 159t50 207q0 114 -51 206q-48 96 -145 156q-92 59 -205 59zM604 604v297h496v-297h-496z" />
    <glyph glyph-name="uni03A9" unicode="&#x3a9;" horiz-adv-x="1720" 
d="M930 0v416q130 24 217 137q84 110 84 244q0 153 -109 262q-105 108 -262 108t-262 -108q-109 -109 -109 -262q0 -135 86 -244q87 -113 216 -137v-416h-676v332h225q-111 73 -172 211q-62 136 -62 276q-1 172 89 322t237 245q200 132 432 132q142 0 281 -54
q137 -57 239 -145q105 -91 166 -223q64 -131 64 -277q0 -140 -62 -276q-66 -141 -172 -211h226v-332h-676z" />
    <glyph glyph-name="theta" unicode="&#x3b8;" horiz-adv-x="1441" 
d="M954 20q-107 -43 -235 -43q-129 0 -236 43q-102 38 -182 115q-112 111 -170.5 273.5t-58.5 353.5q0 188 60.5 354.5t174.5 278.5q78 77 186.5 120.5t231.5 43.5q152 0 278.5 -64.5t206.5 -177.5q162 -229 162 -547q0 -257 -104 -455q-115 -216 -314 -295zM449 922h546
q-18 120 -82 208q-72 99 -192 99q-60 0 -110 -27t-82 -72t-52 -97.5t-28 -110.5zM997 627h-553q19 -131 82 -217q33 -48 84 -75.5t111 -27.5t112 28.5t85 76.5q63 88 79 215z" />
    <glyph glyph-name="pi" unicode="&#x3c0;" horiz-adv-x="1497" 
d="M1182 717v-311q0 -119 131 -119q23 0 94 6v-281q-74 -28 -193 -28q-178 0 -282 98q-105 102 -105 287v348h-219v-717h-360v717h-205v301h1364v-301h-225z" />
    <glyph glyph-name="uni0401" unicode="&#x401;" horiz-adv-x="1304" 
d="M606 1839q0 -79 -53 -135q-55 -55 -137 -55q-80 0 -135 55q-54 57 -54 135q0 80 54 137q57 54 135 54q80 0 137 -54q53 -56 53 -137zM1120 1839q0 -80 -55 -135q-52 -55 -135 -55t-135 55q-54 54 -54 135q0 83 54 137q57 54 135 54q81 0 135 -54q55 -55 55 -137zM526 915
h611v-321h-611v-258h676v-336h-1048v1493h1044v-334h-672v-244z" />
    <glyph glyph-name="uni0402" unicode="&#x402;" horiz-adv-x="1644" 
d="M754 1151v-279q160 86 340 86q228 0 362 -137q137 -137 137 -405q0 -277 -141 -418q-137 -137 -358 -137q-70 0 -179 16v338h66q225 0 225 193q0 93 -61.5 145.5t-171.5 52.5q-119 0 -219 -59v-547h-375v1151h-342v342h1257v-342h-540z" />
    <glyph glyph-name="uni0403" unicode="&#x403;" horiz-adv-x="1181" 
d="M492 1624l213 375h385l-324 -375h-274zM1149 1147h-619v-1147h-376v1493h995v-346z" />
    <glyph glyph-name="uni0404" unicode="&#x404;" horiz-adv-x="1611" 
d="M1227 602l342 -106q-50 -189 -207 -330q-141 -120 -307 -164q-106 -25 -213 -25q-156 0 -301 60q-141 57 -246 162q-102 100 -162 243q-61 143 -61 306q0 157 59 296q54 137 160 246q97 103 248 166q148 62 313 62q125 0 236.5 -33.5t191.5 -89.5q76 -54 135 -125
q101 -119 144 -269l-340 -104q-12 48 -50 105.5t-96 101.5q-91 67 -227 67q-128 0 -228 -71q-98 -73 -143 -193h529v-305h-533q44 -124 141 -199t234 -75q80 0 150.5 26t115.5 70q86 83 115 178z" />
    <glyph glyph-name="uni0405" unicode="&#x405;" horiz-adv-x="1323" 
d="M680 -20q-273 0 -428 129q-157 130 -197 348l338 80q10 -82 53.5 -139t106.5 -81q61 -22 129 -22q93 0 139 43q45 45 45 100q0 95 -127 119l-207 39q-191 41 -305 152q-114 117 -114 288q0 101 44.5 192.5t121.5 155.5q75 63 176 98.5t209 35.5q213 0 350 -95
q61 -43 106 -100q83 -107 99 -236l-330 -94q-14 97 -73 153t-154 56q-81 0 -127 -43q-48 -45 -48 -94q0 -102 111 -123l215 -41q208 -40 322 -160q112 -118 112 -288q0 -185 -149 -328q-72 -67 -181.5 -106t-236.5 -39z" />
    <glyph glyph-name="uni0406" unicode="&#x406;" horiz-adv-x="686" 
d="M154 1493h378v-1493h-378v1493z" />
    <glyph glyph-name="uni0407" unicode="&#x407;" horiz-adv-x="686" 
d="M242 1839q0 -79 -56 -135q-52 -55 -135 -55t-135 55q-53 53 -53 135q0 84 53 137q57 54 135 54q81 0 135 -54q56 -56 56 -137zM729 1839q0 -79 -53 -135q-55 -55 -137 -55q-81 0 -136 55q-53 56 -53 135q0 81 53 137q57 54 136 54q80 0 137 -54q53 -56 53 -137zM154 1493
h378v-1493h-378v1493z" />
    <glyph glyph-name="uni0408" unicode="&#x408;" horiz-adv-x="1243" 
d="M580 -20q-234 -5 -383 134.5t-148 374.5v164h361v-151q0 -83 44 -127.5t117 -44.5q69 0 110.5 46t41.5 120v997h381v-993q0 -239 -148 -381q-145 -139 -376 -139z" />
    <glyph glyph-name="uni0409" unicode="&#x409;" horiz-adv-x="2387" 
d="M1524 967h284q228 0 377 -113q158 -123 158 -362q0 -123 -44 -219t-121 -154.5t-176 -88.5t-214 -30h-641v1147h-404l-43 -469q-19 -222 -102 -387q-51 -96 -113 -156q-67 -67 -165 -105t-216 -38l-65 6v326q69 0 125.5 38t89.5 101q65 124 74 237l71 793h1125v-526z
M1524 332h250q194 0 194 164q0 76 -46.5 114.5t-149.5 38.5h-248v-317z" />
    <glyph glyph-name="uni040A" unicode="&#x40a;" horiz-adv-x="2344" 
d="M1460 946h312q225 0 368 -108q75 -57 117.5 -149.5t42.5 -209.5q0 -99 -28.5 -180t-79 -136t-120.5 -92t-150 -54t-171 -17h-668v598h-553v-598h-376v1493h376v-547h553v547h377v-547zM1460 332h277q95 0 141.5 37t46.5 116q0 150 -190 150h-275v-303z" />
    <glyph glyph-name="uni040B" unicode="&#x40b;" horiz-adv-x="1660" 
d="M1217 0v352q0 130 -55 192t-169 62q-150 0 -239 -59v-547h-375v1151h-342v342h1257v-342h-540v-279q160 86 340 86q217 0 358 -129q139 -130 139 -340v-489h-374z" />
    <glyph glyph-name="uni040C" unicode="&#x40c;" horiz-adv-x="1458" 
d="M608 1624l211 375h387l-325 -375h-273zM535 1493v-641l460 641h443l-512 -709l549 -784h-469l-471 707v-707h-381v1493h381z" />
    <glyph glyph-name="uni040E" unicode="&#x40e;" horiz-adv-x="1406" 
d="M324 1991l204 37q23 -77 70.5 -123.5t118.5 -46.5q135 0 186 170l207 -37q-21 -161 -127 -258q-107 -101 -266 -101t-268 103q-107 101 -125 256zM543 492l-547 1001h422l325 -621l289 621h408l-514 -1032q-16 -34 -47 -94q-13 -26 -54 -91q-38 -62 -63 -90
q-8 -10 -19 -21t-29 -26.5t-26 -23.5q-77 -69 -199 -99q-66 -16 -131 -16h-237v336h196q81 0 132 31q44 24 94 125z" />
    <glyph glyph-name="uni040F" unicode="&#x40f;" horiz-adv-x="1593" 
d="M616 0h-462v1493h376v-1147h533v1147h377v-1493h-463v-313h-361v313z" />
    <glyph glyph-name="uni0410" unicode="&#x410;" horiz-adv-x="1540" 
d="M559 1493h424l573 -1493h-399l-102 274h-576l-100 -274h-393zM946 594l-180 475l-178 -475h358z" />
    <glyph glyph-name="uni0411" unicode="&#x411;" horiz-adv-x="1433" 
d="M524 940h322q223 0 371 -111q153 -121 153 -354q0 -124 -44 -217t-121.5 -148.5t-176 -82.5t-215.5 -27h-659v1493h1124v-332h-754v-221zM524 332h287q94 0 140 37t46 116q0 146 -188 146h-285v-299z" />
    <glyph glyph-name="uni0412" unicode="&#x412;" horiz-adv-x="1411" 
d="M1341 422q0 -106 -44 -189t-119 -132.5t-169 -75t-200 -25.5h-655v1493h647q111 0 211.5 -36.5t165.5 -102.5q100 -105 100 -256q0 -108 -63 -190.5t-175 -129.5v-6q139 -21 222 -119q79 -94 79 -231zM903 1038q0 65 -44.5 99t-127.5 34h-211v-270h215q81 0 124.5 36
t43.5 101zM967 465q0 67 -49 104q-46 35 -121 35h-277v-280h277q77 0 123.5 37.5t46.5 103.5z" />
    <glyph glyph-name="uni0413" unicode="&#x413;" horiz-adv-x="1179" 
d="M1149 1147h-619v-1147h-376v1493h995v-346z" />
    <glyph glyph-name="uni0414" unicode="&#x414;" horiz-adv-x="1798" 
d="M27 338h6q73 0 137.5 44.5t108.5 121.5q86 156 104 352l57 637h1123v-1147h155v-659h-362v313h-967v-313h-362v651zM780 1147l-30 -334q-8 -121 -39 -233q-39 -137 -136 -234h613v801h-408z" />
    <glyph glyph-name="uni0415" unicode="&#x415;" horiz-adv-x="1304" 
d="M526 915h611v-321h-611v-258h676v-336h-1048v1493h1044v-334h-672v-244z" />
    <glyph glyph-name="uni0416" unicode="&#x416;" horiz-adv-x="2224" 
d="M10 1493h432l473 -700l7 2v698h378v-700h9l473 700h432l-496 -731l510 -762h-446l-473 725h-9v-725h-378v725h-4l-476 -725h-446l510 762z" />
    <glyph glyph-name="uni0417" unicode="&#x417;" horiz-adv-x="1329" 
d="M655 -23q-132 0 -245.5 42t-190.5 114q-152 145 -170 344l348 55q3 -96 74 -167q68 -68 174 -68q101 0 164 57q61 58 61 135q0 69 -55 127q-56 56 -149 56q-65 3 -154 -39l-166 241l393 293h-637v326h1100v-322l-332 -245q165 -29 271 -156q104 -122 104 -281
q0 -120 -50.5 -219.5t-143.5 -169.5q-163 -123 -396 -123z" />
    <glyph glyph-name="uni0418" unicode="&#x418;" horiz-adv-x="1636" 
d="M1061 1493h422v-1493h-373v903h-2l-533 -903h-421v1493h372v-901h2z" />
    <glyph glyph-name="uni0419" unicode="&#x419;" horiz-adv-x="1636" 
d="M426 1991l205 37q51 -170 188 -170q70 0 116.5 46.5t68.5 123.5l208 -37q-21 -161 -127 -258q-110 -101 -268 -101q-157 0 -266 103q-110 104 -125 256zM1061 1493h422v-1493h-373v903h-2l-533 -903h-421v1493h372v-901h2z" />
    <glyph glyph-name="uni041A" unicode="&#x41a;" horiz-adv-x="1456" 
d="M532 1493v-641l461 641h443l-512 -709l549 -784h-469l-472 707v-707h-378v1493h378z" />
    <glyph glyph-name="uni041B" unicode="&#x41b;" horiz-adv-x="1677" 
d="M41 -2v326q67 0 123.5 38t91.5 101q65 124 74 237l71 793h1123v-1493h-377v1147h-404l-41 -469q-10 -109 -34 -204.5t-70.5 -186t-112 -154.5t-163 -102.5t-218.5 -38.5z" />
    <glyph glyph-name="uni041C" unicode="&#x41c;" horiz-adv-x="2007" 
d="M518 938h-4v-938h-360v1493h483l367 -915l350 915h499v-1493h-368v950h-2l-365 -950h-231z" />
    <glyph glyph-name="uni041D" unicode="&#x41d;" horiz-adv-x="1613" 
d="M154 1493h376v-563h553v563h377v-1493h-377v582h-553v-582h-376v1493z" />
    <glyph glyph-name="uni041E" unicode="&#x41e;" horiz-adv-x="1701" 
d="M72 748q0 212 104 389t287 280q180 101 391 101q214 0 391 -101q179 -99 283 -276q102 -170 102 -389q0 -160 -61 -303q-62 -145 -166 -246q-104 -104 -248 -164q-145 -62 -305 -62q-216 0 -391 103q-179 99 -283 276t-104 392zM455 750q0 -169 114 -295
q116 -125 283 -125q164 0 283 125q112 127 112 295q3 107 -49 204t-145 156t-201 57q-111 0 -203 -59q-89 -57 -143 -154q-51 -92 -51 -204z" />
    <glyph glyph-name="uni041F" unicode="&#x41f;" horiz-adv-x="1593" 
d="M154 1493h1286v-1493h-377v1147h-533v-1147h-376v1493z" />
    <glyph glyph-name="uni0420" unicode="&#x420;" horiz-adv-x="1341" 
d="M154 1493h583q248 0 400 -119q159 -124 159 -366q0 -121 -44.5 -217.5t-125.5 -155.5q-160 -121 -409 -121h-187v-514h-376v1493zM530 836h179q103 0 157 40.5t54 116.5q0 170 -213 170h-177v-327z" />
    <glyph glyph-name="uni0421" unicode="&#x421;" horiz-adv-x="1607" 
d="M842 -23q-156 0 -301 60q-141 57 -246 162q-102 100 -162 243q-61 143 -61 306q0 157 59 296q54 137 160 246q97 103 248 166q145 62 313 62q126 0 238.5 -34t189.5 -91q77 -53 137 -125q102 -122 144 -271l-353 -108q-10 48 -46 106t-93 101q-90 69 -223 69
q-167 0 -279 -121q-110 -122 -110 -294q0 -173 108 -293q108 -123 281 -123q79 0 148.5 27t113.5 71q84 87 109 178l352 -110q-31 -137 -139 -264q-62 -71 -142 -127q-83 -60 -200 -96t-246 -36z" />
    <glyph glyph-name="uni0422" unicode="&#x422;" horiz-adv-x="1286" 
d="M33 1493h1220v-342h-422v-1151h-376v1151h-422v342z" />
    <glyph glyph-name="uni0423" unicode="&#x423;" horiz-adv-x="1406" 
d="M1440 1493l-514 -1032q-16 -34 -47 -94q-13 -26 -54 -91q-38 -62 -63 -90q-8 -10 -19 -21t-29 -26.5t-26 -23.5q-77 -69 -199 -99q-66 -16 -131 -16h-237v336h196q81 0 132 31q44 24 94 125l-547 1001h422l325 -621l289 621h408z" />
    <glyph glyph-name="uni0424" unicode="&#x424;" horiz-adv-x="1961" 
d="M793 -47v160q-146 0 -269.5 36.5t-208.5 100.5q-87 65 -141 149q-113 160 -113 367q0 151 58.5 274t161.5 203q210 162 512 162v135h376v-135q302 0 512 -162q103 -80 161.5 -203t58.5 -274q2 -147 -63 -284.5t-189 -231.5q-87 -64 -211 -100.5t-269 -36.5v-160h-376z
M793 451v616q-161 0 -254 -84q-97 -81 -97 -223q0 -146 99 -228q101 -81 252 -81zM1169 1067v-616q150 0 254 81q97 85 97 228q0 140 -95 223q-93 84 -256 84z" />
    <glyph glyph-name="uni0425" unicode="&#x425;" horiz-adv-x="1462" 
d="M16 1493h435l286 -440l285 440h422l-490 -727l519 -766h-435l-309 473l-311 -473h-428l522 764z" />
    <glyph glyph-name="uni0426" unicode="&#x426;" horiz-adv-x="1675" 
d="M154 0v1493h376v-1147h533v1147h377v-1147h155v-659h-362v313h-1079z" />
    <glyph glyph-name="uni0427" unicode="&#x427;" horiz-adv-x="1503" 
d="M973 0v573q-114 -51 -115 -51q-59 -25 -127 -41q-92 -18 -145 -18q-135 0 -248 53q-71 30 -123 82q-54 54 -88.5 147.5t-34.5 208.5v539h379v-446q0 -232 193 -232q79 0 165 25q82 23 144 69v584h377v-1493h-377z" />
    <glyph glyph-name="uni0428" unicode="&#x428;" horiz-adv-x="2375" 
d="M999 1493h377v-1147h469v1147h377v-1493h-2068v1493h376v-1147h469v1147z" />
    <glyph glyph-name="uni0429" unicode="&#x429;" horiz-adv-x="2457" 
d="M154 1493h376v-1147h469v1147h377v-1147h469v1147h377v-1147h156v-659h-361v313h-1863v1493z" />
    <glyph glyph-name="uni042A" unicode="&#x42a;" horiz-adv-x="1607" 
d="M723 967h303q228 0 377 -113q158 -123 158 -362q0 -123 -44 -219t-121 -154.5t-176 -88.5t-214 -30h-660v1161h-307v332h684v-526zM723 332h268q195 0 195 164q0 76 -47 114.5t-150 38.5h-266v-317z" />
    <glyph glyph-name="uni042B" unicode="&#x42b;" horiz-adv-x="2109" 
d="M530 967h304q227 0 376 -113q158 -120 158 -362q0 -99 -28.5 -180.5t-79.5 -139t-121 -96.5t-152 -57.5t-174 -18.5h-659v1493h376v-526zM1577 1493h379v-1493h-379v1493zM530 332h269q194 0 194 164q0 76 -46 114.5t-148 38.5h-269v-317z" />
    <glyph glyph-name="uni042C" unicode="&#x42c;" horiz-adv-x="1415" 
d="M530 967h304q227 0 376 -113q158 -120 158 -362q0 -99 -28.5 -180.5t-79.5 -139t-121 -96.5t-152 -57.5t-174 -18.5h-659v1493h376v-526zM530 332h269q194 0 194 164q0 76 -46 114.5t-148 38.5h-269v-317z" />
    <glyph glyph-name="uni042D" unicode="&#x42d;" horiz-adv-x="1611" 
d="M774 1518q164 0 309 -62q147 -64 244 -164q101 -106 157 -245.5t56 -294.5q0 -163 -59 -308q-63 -146 -164 -245q-105 -105 -246 -162q-148 -60 -307 -60q-127 0 -242 35t-196 94q-80 56 -142 127q-111 128 -141 263l342 106q29 -96 117 -178q103 -96 268 -96
q137 0 234 75q97 76 135 199h-531v305h529q-45 121 -142 193q-95 71 -225 71q-68 0 -128 -19.5t-101 -49t-73.5 -67.5t-50 -72t-26.5 -66l-340 104q44 150 152 269q68 78 139 125q80 57 193.5 90t238.5 33z" />
    <glyph glyph-name="uni042E" unicode="&#x42e;" horiz-adv-x="2332" 
d="M1507 1518q161 0 299 -60q139 -57 240 -162q102 -105 156 -243q57 -140 57 -303q0 -211 -96 -392q-97 -175 -271 -278t-385 -103q-281 0 -487 170q-202 167 -256 443h-232v-590h-378v1493h378v-580h234q26 130 93.5 242.5t164.5 192.5q98 81 223 125.5t260 44.5z
M1507 328q113 0 199 59q88 62 129 156q45 89 45 207q0 114 -44.5 208t-129.5 152q-86 59 -199 59q-169 0 -270 -116q-104 -119 -104 -303q-3 -170 103.5 -296.5t270.5 -125.5z" />
    <glyph glyph-name="uni042F" unicode="&#x42f;" horiz-adv-x="1415" 
d="M55 0l314 588q-134 54 -205.5 161.5t-71.5 266.5q0 231 152.5 355.5t404.5 121.5h613v-1493h-375v524h-158l-274 -524h-400zM887 1167h-207q-106 0 -158.5 -45t-52.5 -127q0 -72 54 -110.5t155 -38.5h209v321z" />
    <glyph glyph-name="uni0430" unicode="&#x430;" horiz-adv-x="1142" 
d="M541 764q-57 0 -99.5 -31t-52.5 -80l-303 66q13 81 60.5 146.5t115.5 103.5q140 73 291 73q287 0 416 -186q65 -100 65 -233v-459q0 -101 8 -164h-346q-8 41 -8 119l-4 2q-120 -141 -307 -141q-127 0 -221 88q-90 84 -90 213q0 198 221 278q117 43 262 43h53
q34 0 54 16.5t20 45.5q0 43 -36.5 71.5t-98.5 28.5zM520 231q69 0 112.5 40t43.5 106v31h-127q-43 0 -84 -23q-37 -24 -37 -68q0 -35 27.5 -60.5t64.5 -25.5z" />
    <glyph glyph-name="uni0431" unicode="&#x431;" horiz-adv-x="1277" 
d="M369 821l6 -2q141 178 375 178q197 0 329 -135q133 -136 133 -336q0 -245 -155 -397q-158 -152 -412 -152q-259 0 -407 164q-152 166 -152 473q0 136 14 248q9 68 25 125q38 141 111 232q91 117 225 186q157 80 381 119l250 39l47 -301l-269 -50q-218 -42 -325 -112
q-45 -31 -67.5 -50t-39.5 -46q-36 -50 -49 -97q-12 -39 -20 -86zM446 518q0 -88 56 -153q56 -62 145 -62q91 0 150 59q55 61 55 150q0 91 -55 152q-56 59 -150 59q-86 0 -145 -59q-56 -59 -56 -146z" />
    <glyph glyph-name="uni0432" unicode="&#x432;" horiz-adv-x="1216" 
d="M119 1018h655q195 0 291 -113q49 -58 49 -141q0 -79 -45 -140t-123 -89v-3q201 -53 201 -251q0 -144 -115 -218q-103 -63 -268 -63h-645v1018zM475 618h191q43 0 66.5 21t23.5 57q0 30 -22.5 49t-65.5 19h-193v-146zM475 258h205q50 0 77 22t27 60q0 36 -28 57t-82 21
h-199v-160z" />
    <glyph glyph-name="uni0433" unicode="&#x433;" horiz-adv-x="970" 
d="M938 717h-457v-717h-362v1018h819v-301z" />
    <glyph glyph-name="uni0434" unicode="&#x434;" horiz-adv-x="1431" 
d="M1022 -313v313h-641v-313h-330v610q94 0 137 88q42 83 54 223l39 410h940v-721h131v-610h-330zM868 719h-270q-6 -67 -12 -111q-6 -46 -21 -106q-27 -128 -98 -205h401v422z" />
    <glyph glyph-name="uni0435" unicode="&#x435;" horiz-adv-x="1189" 
d="M1122 418h-706q15 -75 73 -115q55 -43 134 -43q55 0 101.5 27t76.5 75l299 -104q-63 -139 -189.5 -210t-296.5 -71q-149 0 -274 70q-128 68 -201 191q-76 122 -76 274q0 144 74 268q75 122 199 193q125 67 270 67t264 -67q122 -65 189 -185q67 -119 67 -264
q0 -77 -4 -106zM600 764q-62 0 -115 -41q-49 -41 -65 -105h354q-9 67 -56 106.5t-118 39.5z" />
    <glyph glyph-name="uni0436" unicode="&#x436;" horiz-adv-x="1828" 
d="M1802 1018l-317 -494l330 -524h-414l-297 494h-8v-494h-365v494h-6l-297 -494h-414l328 524l-315 494h403l297 -471h4v471h365v-471h6l297 471h403z" />
    <glyph glyph-name="uni0437" unicode="&#x437;" horiz-adv-x="1044" 
d="M969 344q0 -177 -144 -278q-130 -89 -317 -89q-82 -2 -173 30t-161 95q-49 43 -82 110t-39 144l295 60q4 -43 21 -74t40 -45.5t42.5 -20.5t37.5 -6q49 0 85 25t36 65q0 80 -104 80q-54 0 -103 -16l-69 178l233 135l-2 6l-219 -6h-254v281h850v-258l-219 -125
q56 -12 100.5 -37.5t71 -56t44 -67.5t24 -68.5t6.5 -61.5z" />
    <glyph glyph-name="uni0438" unicode="&#x438;" horiz-adv-x="1265" 
d="M471 1018v-488l4 -2l324 490h348v-1018h-354v500l-5 2l-329 -502h-340v1018h352z" />
    <glyph glyph-name="uni0439" unicode="&#x439;" horiz-adv-x="1265" 
d="M240 1540l204 37q23 -78 70.5 -124t118.5 -46q70 0 116.5 46t69.5 124l207 -39q-21 -158 -127 -258q-104 -98 -268 -98q-158 0 -266 102q-110 104 -125 256zM471 1018v-488l4 -2l324 490h348v-1018h-354v500l-5 2l-329 -502h-340v1018h352z" />
    <glyph glyph-name="uni043A" unicode="&#x43a;" horiz-adv-x="1251" 
d="M119 1018h362v-465h6l347 465h413l-383 -492l391 -526h-426l-340 475h-8v-475h-362v1018z" />
    <glyph glyph-name="uni043B" unicode="&#x43b;" horiz-adv-x="1325" 
d="M45 -2v293q75 0 120 57.5t54 159.5l45 510h942v-1018h-362v717h-256l-21 -225q-24 -259 -168 -398q-114 -102 -299 -102z" />
    <glyph glyph-name="uni043C" unicode="&#x43c;" horiz-adv-x="1609" 
d="M473 580h-4v-580h-350v1018h456l234 -559l221 559h461v-1018h-352v600h-2l-236 -600h-190z" />
    <glyph glyph-name="uni043D" unicode="&#x43d;" horiz-adv-x="1251" 
d="M119 1018h362v-365h289v365h363v-1018h-363v362h-289v-362h-362v1018z" />
    <glyph glyph-name="uni043E" unicode="&#x43e;" horiz-adv-x="1249" 
d="M63 508q0 110 46.5 211.5t126.5 171.5q77 70 180.5 109.5t212.5 39.5t211.5 -38.5t179.5 -106.5q77 -69 121.5 -169t44.5 -210q0 -112 -45 -213.5t-123 -173.5t-181.5 -112t-215.5 -40t-215 39t-179 109t-120 170.5t-44 212.5zM483 655q-55 -61 -55 -143q0 -85 57 -145
q55 -64 140 -64q83 0 141 64q55 61 55 145q0 82 -55 143q-59 62 -141 62q-83 0 -142 -62z" />
    <glyph glyph-name="uni043F" unicode="&#x43f;" horiz-adv-x="1243" 
d="M119 0v1018h1005v-1018h-362v719h-283v-719h-360z" />
    <glyph glyph-name="uni0440" unicode="&#x440;" horiz-adv-x="1320" 
d="M772 -20q-178 0 -283 141h-8v-623h-362v1520h360v-123h6q51 67 129.5 105t163.5 38q138 0 248 -73q106 -70 170 -195q59 -121 59 -260q0 -100 -34.5 -195.5t-96.5 -171.5q-63 -75 -155.5 -119t-196.5 -44zM479 512q0 -87 60 -147q59 -62 143 -62q81 0 143 62
q60 63 60 147q0 80 -60 143q-62 62 -143 62q-84 0 -143 -62q-60 -60 -60 -143z" />
    <glyph glyph-name="uni0441" unicode="&#x441;" horiz-adv-x="1171" 
d="M623 -23q-152 0 -281 66q-130 68 -203 190q-76 124 -76 277q0 110 46 210t124 171q76 70 179.5 110.5t212.5 40.5q245 0 393 -161q75 -81 100 -195l-319 -96q-20 59 -66.5 92t-107.5 33q-86 0 -140 -60q-55 -61 -55 -143q0 -86 53 -145q51 -60 142 -60q60 0 108.5 34
t71.5 91l319 -96q-31 -112 -106 -195t-177 -124.5t-218 -39.5z" />
    <glyph glyph-name="uni0442" unicode="&#x442;" horiz-adv-x="1056" 
d="M35 1018h987v-301h-309v-717h-369v717h-309v301z" />
    <glyph glyph-name="uni0443" unicode="&#x443;" horiz-adv-x="1226" 
d="M637 498h2l192 520h383l-620 -1520h-387l244 600l-445 920h397z" />
    <glyph glyph-name="uni0444" unicode="&#x444;" horiz-adv-x="1785" 
d="M711 -465v516q-100 -63 -207 -63q-110 0 -196 44.5t-137 119.5t-76.5 167t-24.5 195q0 99 25 188.5t75.5 164t137 119t198.5 44.5q113 0 205 -69v532h364v-532q95 69 205 69q90 0 164 -29.5t124 -78.5t84 -116.5t49 -141.5t15 -154q0 -79 -15.5 -153.5t-49.5 -142
t-84 -117.5t-123 -79.5t-162 -29.5q-104 0 -207 63v-516h-364zM438 510q0 -84 47 -143q48 -60 136 -60q50 0 90 19v366q-43 21 -90 21q-81 0 -132 -60t-51 -143zM1348 512q0 82 -50 141q-51 60 -131 60q-49 0 -92 -21v-366q43 -19 92 -19q85 0 133 60t48 145z" />
    <glyph glyph-name="uni0445" unicode="&#x445;" horiz-adv-x="1200" 
d="M14 1018h406l184 -266l184 266h400l-377 -506l383 -512h-408l-188 274l-188 -274h-402l381 514z" />
    <glyph glyph-name="uni0446" unicode="&#x446;" horiz-adv-x="1333" 
d="M119 0v1018h362v-721h281v721h362v-721h131v-610h-331v313h-805z" />
    <glyph glyph-name="uni0447" unicode="&#x447;" horiz-adv-x="1187" 
d="M707 0v311q-109 -47 -271 -47q-158 0 -262 96q-102 92 -102 254v404h364v-307q0 -144 115 -144q97 0 156 41v410h362v-1018h-362z" />
    <glyph glyph-name="uni0448" unicode="&#x448;" horiz-adv-x="1851" 
d="M743 1018h363v-721h262v721h363v-1018h-1612v1018h362v-721h262v721z" />
    <glyph glyph-name="uni0449" unicode="&#x449;" horiz-adv-x="1941" 
d="M119 0v1018h362v-721h262v721h363v-721h262v721h363v-721h131v-610h-330v313h-1413z" />
    <glyph glyph-name="uni044A" unicode="&#x44a;" horiz-adv-x="1357" 
d="M651 735h230q213 0 325 -100q113 -101 113 -262q0 -163 -109 -269q-107 -104 -315 -104h-606v723h-252v295h614v-283zM651 262h174q40 0 67.5 11t40 30t17 36t4.5 36q0 45 -31.5 73.5t-99.5 28.5h-172v-215z" />
    <glyph glyph-name="uni044B" unicode="&#x44b;" horiz-adv-x="1792" 
d="M481 735h230q216 0 325 -100q113 -98 113 -262q0 -165 -107 -269t-315 -104h-608v1018h362v-283zM1307 0v1018h364v-1018h-364zM481 262h174q129 0 129 113q0 45 -31.5 73.5t-99.5 28.5h-172v-215z" />
    <glyph glyph-name="uni044C" unicode="&#x44c;" horiz-adv-x="1187" 
d="M481 735h230q216 0 325 -100q113 -98 113 -262q0 -165 -107 -269t-315 -104h-608v1018h362v-283zM481 262h174q129 0 129 113q0 45 -31.5 73.5t-99.5 28.5h-172v-215z" />
    <glyph glyph-name="uni044D" unicode="&#x44d;" horiz-adv-x="1161" 
d="M543 1042q154 0 280 -69q130 -69 201 -189q74 -121 74 -272q0 -154 -76 -276q-72 -121 -203 -191q-127 -68 -282 -68q-173 0 -306 89q-133 86 -186 243l289 90q63 -120 207 -120q71 0 123 36t77 99h-288v194h288q-27 63 -78.5 99t-119.5 36q-69 0 -122.5 -30t-82.5 -88
l-287 92q32 100 108.5 175t176 113t207.5 37z" />
    <glyph glyph-name="uni044E" unicode="&#x44e;" horiz-adv-x="1794" 
d="M1192 1040q148 0 270 -67t197 -189q72 -126 72 -272q0 -113 -42 -214t-116 -171q-74 -71 -175 -110.5t-214 -39.5q-190 0 -334 105q-142 106 -188 278h-179v-360h-364v1018h364v-361h179q50 174 196 279q143 104 334 104zM1188 303q81 0 131 62q47 58 47 147
q0 87 -47 145q-51 60 -131 60q-84 0 -133 -58t-49 -147q0 -87 51 -147q50 -62 131 -62z" />
    <glyph glyph-name="uni044F" unicode="&#x44f;" horiz-adv-x="1247" 
d="M39 0l260 383q-213 89 -213 293q0 152 119 246q122 96 295 96h626v-1018h-358v305h-133l-193 -305h-403zM768 745h-195q-124 0 -124 -96q0 -42 30 -68t94 -26h195v190z" />
    <glyph glyph-name="uni0451" unicode="&#x451;" horiz-adv-x="1189" 
d="M551 1364q0 -80 -55 -135q-50 -53 -136 -53q-85 0 -135 53q-53 53 -53 135q0 84 53 137q56 53 135 53q83 0 136 -53q55 -55 55 -137zM1047 1364q0 -78 -54 -135q-53 -53 -137 -53q-85 0 -135 53q-53 56 -53 135q0 81 53 137q56 53 135 53t135 -53q56 -56 56 -137z
M1122 418h-706q15 -75 73 -115q55 -43 134 -43q55 0 101.5 27t76.5 75l299 -104q-63 -139 -189.5 -210t-296.5 -71q-149 0 -274 70q-128 68 -201 191q-76 122 -76 274q0 144 74 268q75 122 199 193q125 67 270 67t264 -67q122 -65 189 -185q67 -119 67 -264q0 -77 -4 -106z
M600 764q-62 0 -115 -41q-49 -41 -65 -105h354q-9 67 -56 106.5t-118 39.5z" />
    <glyph glyph-name="uni0452" unicode="&#x452;" horiz-adv-x="1218" 
d="M594 -481v295q8 -2 31 -2q67 0 105 45t38 127v569q0 65 -37 111q-37 43 -102 43q-67 0 -107.5 -41.5t-40.5 -112.5v-553h-362v1159h-139v242h139v151h362v-151h289v-242h-289v-260h2q55 68 132.5 103.5t158.5 35.5q78 0 140 -25t101.5 -66.5t66 -97t37.5 -113.5t11 -120
v-739q0 -175 -92 -278q-93 -103 -258 -103q-82 0 -186 23z" />
    <glyph glyph-name="uni0453" unicode="&#x453;" horiz-adv-x="970" 
d="M338 1188l213 373h385l-326 -373h-272zM938 717h-457v-717h-362v1018h819v-301z" />
    <glyph glyph-name="uni0454" unicode="&#x454;" horiz-adv-x="1161" 
d="M827 399l289 -90q-53 -157 -186 -243q-136 -89 -307 -89q-114 0 -218 39t-180 109t-119 170t-43 215q0 144 78 272q76 123 207 191q123 69 277 69q170 0 303 -86q131 -82 182 -239l-289 -92q-58 118 -196 118q-68 0 -123 -37t-82 -98h289v-194h-289q25 -62 79.5 -98.5
t125.5 -36.5q139 0 202 120z" />
    <glyph glyph-name="uni0455" unicode="&#x455;" horiz-adv-x="1015" 
d="M504 1042q101 0 185.5 -27t135.5 -73q99 -88 105 -188l-295 -56q-14 90 -119 90q-44 0 -68 -19.5t-24 -45.5q0 -44 57 -53l144 -31q125 -23 223 -96q102 -83 102 -217q0 -135 -110 -242q-117 -107 -328 -107q-96 0 -177 21.5t-130 56.5q-52 32 -82 78q-59 75 -66 156
l293 57q6 -51 46 -80.5t100 -29.5q53 0 79.5 20.5t26.5 48.5q0 48 -92 66l-111 22q-135 28 -215 92q-98 76 -98 211q0 143 121 246q124 100 297 100z" />
    <glyph glyph-name="uni0456" unicode="&#x456;" horiz-adv-x="604" 
d="M301 1155q-85 0 -147 62q-64 61 -64 145q0 90 64 151q62 62 147 62q88 0 150 -62q61 -64 61 -151q0 -84 -61 -145q-62 -62 -150 -62zM119 0v1018h364v-1018h-364z" />
    <glyph glyph-name="uni0457" unicode="&#x457;" horiz-adv-x="606" 
d="M250 1364q0 -80 -55 -135q-50 -53 -136 -53q-85 0 -135 53q-53 53 -53 135q0 84 53 137q56 53 135 53q83 0 136 -53q55 -55 55 -137zM735 1364q0 -79 -53 -135q-53 -53 -137 -53q-82 0 -135 53q-54 57 -54 135q0 80 54 137q56 53 135 53q81 0 137 -53q53 -56 53 -137z
M119 0v1018h368v-1018h-368z" />
    <glyph glyph-name="uni0458" unicode="&#x458;" horiz-adv-x="618" 
d="M317 1155q-85 0 -147 62q-64 61 -64 145q0 90 64 151q62 62 147 62q90 0 152 -62q61 -64 61 -151q0 -84 -61 -145q-62 -62 -152 -62zM133 -80v1098h367v-1108q0 -184 -103 -299q-104 -113 -301 -113q-73 0 -119 10q-54 9 -71 19v285q53 -11 88 -11q139 0 139 119z" />
    <glyph glyph-name="uni0459" unicode="&#x459;" horiz-adv-x="1914" 
d="M588 717l-21 -225q-24 -259 -168 -398q-114 -102 -299 -102l-55 6v293q75 0 120 57.5t54 159.5l45 510h942v-283h230q216 0 325 -100q113 -98 113 -262q0 -165 -107 -269t-315 -104h-608v717h-256zM1206 262h174q129 0 129 113q0 45 -31.5 73.5t-99.5 28.5h-172v-215z
" />
    <glyph glyph-name="uni045A" unicode="&#x45a;" horiz-adv-x="1841" 
d="M119 0v1018h362v-295h291v295h363v-295h227q212 0 328 -96q112 -95 112 -258q0 -165 -108 -267t-316 -102h-606v432h-291v-432h-362zM1135 262h174q129 0 129 107q0 43 -31.5 69.5t-99.5 26.5h-172v-203z" />
    <glyph glyph-name="uni045B" unicode="&#x45b;" horiz-adv-x="1239" 
d="M774 1038q78 0 140 -25t101.5 -66.5t66 -97t37.5 -113.5t11 -120v-616h-362v553q0 65 -37 111q-37 43 -102 43q-67 0 -107.5 -41.5t-40.5 -112.5v-553h-362v1159h-139v242h139v151h362v-151h289v-242h-289v-260h2q55 68 132.5 103.5t158.5 35.5z" />
    <glyph glyph-name="uni045C" unicode="&#x45c;" horiz-adv-x="1251" 
d="M520 1188l211 373h385l-323 -373h-273zM119 1018h364v-465h6l345 465h413l-383 -492l393 -526h-428l-337 475h-9v-475h-364v1018z" />
    <glyph glyph-name="uni045E" unicode="&#x45e;" horiz-adv-x="1226" 
d="M225 1540l205 37q54 -170 188 -170q71 0 118.5 46t70.5 124l207 -39q-21 -155 -127 -258q-107 -98 -269 -98q-160 0 -268 102q-107 101 -125 256zM451 98l-445 920h397l234 -520h2l192 520h383l-620 -1520h-387z" />
    <glyph glyph-name="uni045F" unicode="&#x45f;" horiz-adv-x="1243" 
d="M457 0h-338v1018h362v-721h281v721h362v-1018h-338v-313h-329v313z" />
    <glyph glyph-name="uni0490" unicode="&#x490;" horiz-adv-x="1179" 
d="M786 1810h363v-663h-619v-1147h-376v1493h632v317z" />
    <glyph glyph-name="uni0491" unicode="&#x491;" horiz-adv-x="970" 
d="M119 1018h489v321h330v-622h-457v-717h-362v1018z" />
    <glyph glyph-name="uni0496" unicode="&#x496;" horiz-adv-x="2279" 
d="M2228 -313h-360v313h-86l-473 725h-9v-725h-378v725h-4l-476 -725h-446l510 762l-496 731h432l473 -700l7 2v698h378v-700h9l473 700h432l-496 -731l279 -416h231v-659z" />
    <glyph glyph-name="uni0497" unicode="&#x497;" horiz-adv-x="1873" 
d="M1815 -313h-330v313h-84l-297 494h-8v-494h-365v494h-6l-297 -494h-414l328 524l-315 494h403l297 -471h4v471h365v-471h6l297 471h403l-317 -494l143 -227h187v-610z" />
    <glyph glyph-name="uni0498" unicode="&#x498;" horiz-adv-x="1329" 
d="M836 -313h-361v313q-126 30 -221 104q-92 71 -145 172q-51 95 -60 201l348 55q3 -96 74 -167q68 -68 174 -68q101 0 164 57q61 58 61 135q0 69 -55 127q-56 56 -149 56q-65 3 -154 -39l-166 241l393 293h-637v326h1100v-322l-332 -245q165 -29 271 -156
q104 -122 104 -281q0 -120 -50.5 -219.5t-143.5 -169.5q-96 -71 -215 -100v-313z" />
    <glyph glyph-name="uni0499" unicode="&#x499;" horiz-adv-x="1044" 
d="M969 344q0 -177 -144 -278q-65 -44 -151 -68v-311h-328v317q-122 41 -199 127q-82 88 -94 225l295 60q4 -43 21 -74t40 -45.5t42.5 -20.5t37.5 -6q49 0 85 25t36 65q0 80 -104 80q-54 0 -103 -16l-69 178l233 135l-4 6l-215 -6h-256v281h850v-258l-219 -125
q56 -12 100.5 -37.5t71 -56t44 -67.5t24 -68.5t6.5 -61.5z" />
    <glyph glyph-name="uni049A" unicode="&#x49a;" horiz-adv-x="1515" 
d="M1473 -313h-361v313h-108l-472 707v-707h-378v1493h378v-641l461 641h443l-512 -709l305 -438h244v-659z" />
    <glyph glyph-name="uni049B" unicode="&#x49b;" horiz-adv-x="1298" 
d="M1255 -313h-331v313h-95l-340 475h-8v-475h-362v1018h362v-465h6l347 465h413l-383 -492l170 -229h221v-610z" />
    <glyph glyph-name="uni04A2" unicode="&#x4a2;" horiz-adv-x="1695" 
d="M1616 -313h-363v313h-170v582h-553v-582h-376v1493h376v-563h553v563h377v-1147h156v-659z" />
    <glyph glyph-name="uni04A3" unicode="&#x4a3;" horiz-adv-x="1341" 
d="M1264 -313h-332v313h-162v362h-289v-362h-362v1018h362v-365h289v365h363v-721h131v-610z" />
    <glyph glyph-name="uni04AA" unicode="&#x4aa;" horiz-adv-x="1607" 
d="M1014 -313h-361v313q-259 62 -417 266q-164 202 -164 482q0 157 59 296q54 137 160 246q97 103 248 166q145 62 313 62q126 0 238.5 -34t189.5 -91q77 -53 137 -125q102 -122 144 -271l-353 -108q-10 48 -46 106t-93 101q-90 69 -223 69q-167 0 -279 -121
q-110 -122 -110 -294q0 -173 108 -293q108 -123 281 -123q79 0 148.5 27t113.5 71q84 87 109 178l352 -110q-22 -106 -111 -228q-55 -68 -108 -116q-135 -121 -336 -162v-307z" />
    <glyph glyph-name="uni04AB" unicode="&#x4ab;" horiz-adv-x="1169" 
d="M786 -313h-331v313q-175 46 -283 184q-109 136 -109 326q0 110 45.5 210t122.5 171q78 70 181.5 110.5t212.5 40.5q245 0 393 -161q76 -86 100 -195l-319 -96q-20 58 -67 91.5t-109 33.5q-84 0 -138 -60q-55 -58 -55 -143q0 -86 53 -145q51 -60 142 -60q58 0 106.5 34
t71.5 91l321 -96q-36 -128 -124 -214t-214 -122v-313z" />
    <glyph glyph-name="uni04AC" unicode="&#x4ac;" horiz-adv-x="1296" 
d="M987 -313h-362v313h-170v1151h-422v342h1220v-342h-422v-805h156v-659z" />
    <glyph glyph-name="uni04AD" unicode="&#x4ad;" horiz-adv-x="1064" 
d="M842 -313h-330v313h-168v717h-309v301h987v-301h-309v-420h129v-610z" />
    <glyph glyph-name="uni04B2" unicode="&#x4b2;" horiz-adv-x="1519" 
d="M1473 -313h-363v313h-72l-309 473l-311 -473h-428l522 764l-496 729h435l286 -440l285 440h422l-490 -727l285 -420h234v-659z" />
    <glyph glyph-name="uni04B3" unicode="&#x4b3;" horiz-adv-x="1249" 
d="M1194 -313h-332v313h-76l-188 274l-188 -274h-402l381 514l-375 504h406l184 -266l184 266h400l-377 -506l160 -215h223v-610z" />
    <glyph glyph-name="uni04B6" unicode="&#x4b6;" horiz-adv-x="1585" 
d="M1505 -313h-360v313h-172v573q-114 -51 -115 -51q-59 -25 -127 -41q-92 -18 -145 -18q-135 0 -248 53q-71 30 -123 82q-54 54 -88.5 147.5t-34.5 208.5v539h379v-446q0 -232 193 -232q79 0 165 25q82 23 144 69v584h377v-1147h155v-659z" />
    <glyph glyph-name="uni04B7" unicode="&#x4b7;" horiz-adv-x="1277" 
d="M1198 -313h-330v313h-161v311q-109 -47 -271 -47q-158 0 -262 96q-102 92 -102 254v404h364v-307q0 -144 115 -144q97 0 156 41v410h362v-721h129v-610z" />
    <glyph glyph-name="uni04C0" unicode="&#x4c0;" horiz-adv-x="686" 
d="M154 1493h378v-1493h-378v1493z" />
    <glyph glyph-name="uni04C1" unicode="&#x4c1;" horiz-adv-x="2224" 
d="M719 1991l205 37q23 -78 70 -124t118 -46q70 0 116.5 46.5t69.5 123.5l207 -37q-21 -161 -127 -258q-107 -101 -268 -101q-157 0 -266 103q-110 104 -125 256zM10 1493h432l473 -700l7 2v698h378v-700h9l473 700h432l-496 -731l510 -762h-446l-473 725h-9v-725h-378v725
h-4l-476 -725h-446l510 762z" />
    <glyph glyph-name="uni04C2" unicode="&#x4c2;" horiz-adv-x="1828" 
d="M522 1540l205 37q50 -170 186 -170q71 0 118.5 46t70.5 124l207 -39q-21 -155 -127 -258q-107 -98 -269 -98q-160 0 -268 102t-123 256zM1802 1018l-317 -494l330 -524h-414l-297 494h-8v-494h-365v494h-6l-297 -494h-414l328 524l-315 494h403l297 -471h4v471h365v-471
h6l297 471h403z" />
    <glyph glyph-name="uni04CF" unicode="&#x4cf;" horiz-adv-x="604" 
d="M119 0v1018h364v-1018h-364z" />
    <glyph glyph-name="uni04D0" unicode="&#x4d0;" horiz-adv-x="1540" 
d="M377 1991l205 37q23 -78 70 -124t118 -46q135 0 186 170l207 -37q-21 -161 -127 -258q-107 -101 -268 -101q-157 0 -266 103q-107 101 -125 256zM559 1493h424l573 -1493h-399l-102 274h-576l-100 -274h-393zM946 594l-180 475l-178 -475h358z" />
    <glyph glyph-name="uni04D1" unicode="&#x4d1;" horiz-adv-x="1142" 
d="M164 1540l205 37q54 -170 188 -170q138 0 188 170l207 -39q-21 -155 -127 -258q-107 -98 -268 -98q-160 0 -268 102q-107 101 -125 256zM541 764q-57 0 -99.5 -31t-52.5 -80l-303 66q13 81 60.5 146.5t115.5 103.5q140 73 291 73q287 0 416 -186q65 -100 65 -233v-459
q0 -101 8 -164h-346q-8 41 -8 119l-4 2q-120 -141 -307 -141q-127 0 -221 88q-90 84 -90 213q0 198 221 278q117 43 262 43h53q34 0 54 16.5t20 45.5q0 43 -36.5 71.5t-98.5 28.5zM520 231q69 0 112.5 40t43.5 106v31h-127q-43 0 -84 -23q-37 -24 -37 -68q0 -35 27.5 -60.5
t64.5 -25.5z" />
    <glyph glyph-name="uni04D2" unicode="&#x4d2;" horiz-adv-x="1540" 
d="M702 1839q0 -82 -53 -135q-55 -55 -137 -55q-81 0 -133 55q-55 55 -55 135q0 82 55 137q54 54 133 54q80 0 137 -54q53 -53 53 -137zM1217 1839q0 -78 -54 -135q-55 -55 -137 -55q-80 0 -135 55q-53 56 -53 135q0 81 53 137q57 54 135 54q80 0 137 -54q54 -57 54 -137z
M559 1493h424l573 -1493h-399l-102 274h-576l-100 -274h-393zM946 594l-180 475l-178 -475h358z" />
    <glyph glyph-name="uni04D3" unicode="&#x4d3;" horiz-adv-x="1142" 
d="M498 1364q0 -79 -56 -135q-50 -53 -135 -53t-135 53q-53 53 -53 135q0 84 53 137q56 53 135 53q82 0 135 -53q56 -56 56 -137zM993 1364q0 -79 -53 -135q-53 -53 -137 -53q-85 0 -135 53q-54 57 -54 135q0 80 54 137q56 53 135 53t135 -53q55 -55 55 -137zM541 764
q-57 0 -99.5 -31t-52.5 -80l-303 66q13 81 60.5 146.5t115.5 103.5q140 73 291 73q287 0 416 -186q65 -100 65 -233v-459q0 -101 8 -164h-346q-8 41 -8 119l-4 2q-120 -141 -307 -141q-127 0 -221 88q-90 84 -90 213q0 198 221 278q117 43 262 43h53q34 0 54 16.5t20 45.5
q0 43 -36.5 71.5t-98.5 28.5zM520 231q69 0 112.5 40t43.5 106v31h-127q-43 0 -84 -23q-37 -24 -37 -68q0 -35 27.5 -60.5t64.5 -25.5z" />
    <glyph glyph-name="uni04D4" unicode="&#x4d4;" horiz-adv-x="2048" 
d="M1942 1159h-662v-244h600v-321h-600v-258h666v-336h-1031v236h-436l-106 -236h-396l701 1493h1264v-334zM897 1165l-272 -610h290v610h-18z" />
    <glyph glyph-name="uni04D5" unicode="&#x4d5;" horiz-adv-x="1802" 
d="M1733 418h-705q9 -71 66 -113q54 -45 141 -45q24 0 47 6q17 2 43 15q58 30 88 81l297 -104q-127 -281 -493 -281q-125 0 -229 48t-175 135q-157 -183 -410 -183h-12q-134 0 -229 86q-96 90 -96 218q0 198 221 278q117 43 262 43h53q34 0 54 16.5t20 45.5q0 43 -36.5 71.5
t-98.5 28.5q-57 0 -99.5 -31t-52.5 -80l-303 66q13 81 60.5 146.5t115.5 103.5q140 73 291 73q212 0 344 -108q135 106 322 106q145 0 264 -67q119 -65 186 -185q70 -119 70 -264q0 -72 -4 -96zM1212 764q-67 0 -116 -43q-52 -46 -64 -103h354q-10 68 -57 107t-117 39z
M520 231q69 0 112.5 40t43.5 106v31h-127q-43 0 -84 -23q-37 -24 -37 -68q0 -35 27.5 -60.5t64.5 -25.5z" />
    <glyph glyph-name="uni04D6" unicode="&#x4d6;" horiz-adv-x="1304" 
d="M285 1991l204 37q23 -77 70.5 -123.5t118.5 -46.5q135 0 186 170l207 -37q-21 -161 -127 -258q-107 -101 -268 -101q-157 0 -266 103q-107 101 -125 256zM526 915h611v-321h-611v-258h676v-336h-1048v1493h1044v-334h-672v-244z" />
    <glyph glyph-name="uni04D7" unicode="&#x4d7;" horiz-adv-x="1189" 
d="M207 1540l205 37q50 -170 188 -170q134 0 188 170l205 -39q-18 -154 -125 -258q-107 -98 -268 -98q-160 0 -268 102q-107 101 -125 256zM1122 418h-706q15 -75 73 -115q55 -43 134 -43q55 0 101.5 27t76.5 75l299 -104q-63 -139 -189.5 -210t-296.5 -71q-149 0 -274 70
q-128 68 -201 191q-76 122 -76 274q0 144 74 268q75 122 199 193q125 67 270 67t264 -67q122 -65 189 -185q67 -119 67 -264q0 -77 -4 -106zM600 764q-62 0 -115 -41q-49 -41 -65 -105h354q-9 67 -56 106.5t-118 39.5z" />
    <glyph glyph-name="uni04DC" unicode="&#x4dc;" horiz-adv-x="2224" 
d="M1047 1839q0 -78 -54 -135q-55 -55 -137 -55q-80 0 -135 55q-53 56 -53 135q0 81 53 137q57 54 135 54q80 0 137 -54q54 -57 54 -137zM1561 1839q0 -79 -56 -135q-52 -55 -135 -55t-135 55q-53 53 -53 135q0 84 53 137q57 54 135 54q81 0 135 -54q56 -56 56 -137z
M10 1493h432l473 -700l7 2v698h378v-700h9l473 700h432l-496 -731l510 -762h-446l-473 725h-9v-725h-378v725h-4l-476 -725h-446l510 762z" />
    <glyph glyph-name="uni04DD" unicode="&#x4dd;" horiz-adv-x="1828" 
d="M856 1364q0 -80 -55 -135q-50 -53 -135 -53q-86 0 -136 53q-53 53 -53 135q0 84 53 137q56 53 136 53q82 0 135 -53q55 -55 55 -137zM1352 1364q0 -78 -54 -135q-53 -53 -137 -53q-85 0 -135 53q-53 56 -53 135q0 81 53 137q56 53 135 53t135 -53q56 -56 56 -137z
M1802 1018l-317 -494l330 -524h-414l-297 494h-8v-494h-365v494h-6l-297 -494h-414l328 524l-315 494h403l297 -471h4v471h365v-471h6l297 471h403z" />
    <glyph glyph-name="uni04DE" unicode="&#x4de;" horiz-adv-x="1329" 
d="M592 1862q0 -85 -55 -140q-56 -53 -138 -53q-81 0 -137 53q-55 55 -55 140q0 82 55 137t137 55q83 0 138 -55t55 -137zM1112 1862q0 -85 -55 -140q-56 -53 -137 -53q-82 0 -138 53q-55 58 -55 140q0 79 55 137q55 55 138 55q82 0 137 -55t55 -137zM655 -23
q-132 0 -245.5 42t-190.5 114q-152 145 -170 344l348 55q3 -96 74 -167q68 -68 174 -68q101 0 164 57q61 58 61 135q0 69 -55 127q-56 56 -149 56q-65 3 -154 -39l-166 241l393 293h-637v326h1100v-322l-332 -245q165 -29 271 -156q104 -122 104 -281q0 -120 -50.5 -219.5
t-143.5 -169.5q-163 -123 -396 -123z" />
    <glyph glyph-name="uni04DF" unicode="&#x4df;" horiz-adv-x="1044" 
d="M453 1364q0 -78 -54 -135q-53 -53 -137 -53q-82 0 -135 53q-53 56 -53 135q0 81 53 137q56 53 135 53q81 0 137 -53q54 -57 54 -137zM948 1364q0 -82 -53 -135t-137 -53q-85 0 -135 53q-54 57 -54 135q0 81 56 137q53 53 133 53q82 0 135 -53q55 -55 55 -137zM969 344
q0 -177 -144 -278q-130 -89 -317 -89q-82 -2 -173 30t-161 95q-49 43 -82 110t-39 144l295 60q4 -43 21 -74t40 -45.5t42.5 -20.5t37.5 -6q49 0 85 25t36 65q0 80 -104 80q-54 0 -103 -16l-69 178l233 135l-2 6l-219 -6h-254v281h850v-258l-219 -125q56 -12 100.5 -37.5
t71 -56t44 -67.5t24 -68.5t6.5 -61.5z" />
    <glyph glyph-name="uni04E2" unicode="&#x4e2;" horiz-adv-x="1636" 
d="M451 1915h737v-260h-737v260zM1061 1493h422v-1493h-373v903h-2l-533 -903h-421v1493h372v-901h2z" />
    <glyph glyph-name="uni04E3" unicode="&#x4e3;" horiz-adv-x="1265" 
d="M266 1458h735v-260h-735v260zM471 1018v-488l4 -2l324 490h348v-1018h-354v500l-5 2l-329 -502h-340v1018h352z" />
    <glyph glyph-name="uni04E4" unicode="&#x4e4;" horiz-adv-x="1636" 
d="M750 1839q0 -81 -54 -135q-55 -55 -135 -55q-83 0 -135 55q-55 55 -55 135q0 82 55 137q54 54 135 54q78 0 135 -54q54 -54 54 -137zM1264 1839q0 -81 -54 -135q-55 -55 -135 -55q-83 0 -135 55q-55 55 -55 135q0 82 55 137q54 54 135 54q78 0 135 -54q54 -54 54 -137z
M1061 1493h422v-1493h-373v903h-2l-533 -903h-421v1493h372v-901h2z" />
    <glyph glyph-name="uni04E5" unicode="&#x4e5;" horiz-adv-x="1265" 
d="M573 1364q0 -79 -53 -135q-53 -53 -137 -53q-82 0 -135 53q-53 56 -53 135q0 81 53 137q56 53 135 53q81 0 137 -53q53 -56 53 -137zM1069 1364q0 -82 -53 -135t-137 -53q-86 0 -136 53q-53 56 -53 135q0 82 55 137q53 53 134 53q82 0 135 -53q55 -55 55 -137zM471 1018
v-488l4 -2l324 490h348v-1018h-354v500l-5 2l-329 -502h-340v1018h352z" />
    <glyph glyph-name="uni04E6" unicode="&#x4e6;" horiz-adv-x="1701" 
d="M782 1839q0 -80 -55 -135q-52 -55 -135 -55t-135 55q-54 54 -54 135q0 83 54 137q57 54 135 54q81 0 135 -54q55 -55 55 -137zM1296 1839q0 -80 -55 -135q-52 -55 -135 -55t-135 55q-53 53 -53 135q0 84 53 137q57 54 135 54q81 0 135 -54q55 -55 55 -137zM72 748
q0 212 104 389t287 280q180 101 391 101q214 0 391 -101q179 -99 283 -276q102 -170 102 -389q0 -160 -61 -303q-62 -145 -166 -246q-104 -104 -248 -164q-145 -62 -305 -62q-216 0 -391 103q-179 99 -283 276t-104 392zM455 750q0 -169 114 -295q116 -125 283 -125
q164 0 283 125q112 127 112 295q3 107 -49 204t-145 156t-201 57q-111 0 -203 -59q-89 -57 -143 -154q-51 -92 -51 -204z" />
    <glyph glyph-name="uni04E7" unicode="&#x4e7;" horiz-adv-x="1249" 
d="M569 1364q0 -80 -55 -135q-50 -53 -135 -53t-135 53q-54 54 -54 135q0 83 54 137q56 53 135 53q82 0 135 -53q55 -55 55 -137zM1065 1364q0 -79 -53 -135q-53 -53 -138 -53t-135 53q-53 56 -53 135q0 81 53 137q56 53 135 53q80 0 136 -53q55 -55 55 -137zM63 508
q0 110 46.5 211.5t126.5 171.5q77 70 180.5 109.5t212.5 39.5t211.5 -38.5t179.5 -106.5q77 -69 121.5 -169t44.5 -210q0 -112 -45 -213.5t-123 -173.5t-181.5 -112t-215.5 -40t-215 39t-179 109t-120 170.5t-44 212.5zM483 655q-55 -61 -55 -143q0 -85 57 -145
q55 -64 140 -64q83 0 141 64q55 61 55 145q0 82 -55 143q-59 62 -141 62q-83 0 -142 -62z" />
    <glyph glyph-name="uni04E8" unicode="&#x4e8;" horiz-adv-x="1701" 
d="M850 -23q-216 0 -391 103q-179 99 -283 276t-104 392q0 212 104 389t287 280q180 101 391 101q214 0 391 -101q179 -99 283 -276q102 -170 102 -389q0 -160 -61 -303q-62 -145 -166 -246q-104 -104 -248 -164q-145 -62 -305 -62zM1090 1096q-109 80 -238 80t-238 -80
q-101 -74 -143 -195h760q-34 116 -141 195zM1233 604h-764q35 -121 143 -201q103 -81 240 -81q134 0 240 81q107 81 141 201z" />
    <glyph glyph-name="uni04E9" unicode="&#x4e9;" horiz-adv-x="1247" 
d="M621 -23q-151 0 -281 68q-126 68 -203 191q-76 124 -76 272q0 110 46 210.5t126 172.5q77 70 181 109.5t213 39.5q148 0 278 -65q124 -64 203 -187q78 -125 78 -272q0 -148 -78 -276q-79 -128 -207 -193q-128 -70 -280 -70zM840 420h-432q21 -66 84 -111q58 -43 133 -43
t133 43q61 43 82 111zM625 756q-78 0 -136 -43q-61 -43 -83 -111h436q-21 66 -82 111q-61 43 -135 43z" />
    <glyph glyph-name="uni04EA" unicode="&#x4ea;" horiz-adv-x="1701" 
d="M782 1839q0 -80 -55 -135q-52 -55 -135 -55t-135 55q-54 54 -54 135q0 83 54 137q57 54 135 54q81 0 135 -54q55 -55 55 -137zM1296 1839q0 -80 -55 -135q-52 -55 -135 -55t-135 55q-53 53 -53 135q0 84 53 137q57 54 135 54q81 0 135 -54q55 -55 55 -137zM850 -23
q-216 0 -391 103q-179 99 -283 276t-104 392q0 212 104 389t287 280q180 101 391 101q214 0 391 -101q179 -99 283 -276q102 -170 102 -389q0 -160 -61 -303q-62 -145 -166 -246q-104 -104 -248 -164q-145 -62 -305 -62zM1090 1096q-109 80 -238 80t-238 -80
q-101 -74 -143 -195h760q-34 116 -141 195zM1233 604h-764q35 -121 143 -201q103 -81 240 -81q134 0 240 81q107 81 141 201z" />
    <glyph glyph-name="uni04EB" unicode="&#x4eb;" horiz-adv-x="1249" 
d="M569 1364q0 -80 -55 -135q-50 -53 -135 -53t-135 53q-54 54 -54 135q0 83 54 137q56 53 135 53q82 0 135 -53q55 -55 55 -137zM1065 1364q0 -79 -53 -135q-53 -53 -138 -53t-135 53q-53 56 -53 135q0 81 53 137q56 53 135 53q80 0 136 -53q55 -55 55 -137zM621 -23
q-152 0 -279 68q-129 68 -203 191q-76 119 -76 272q0 110 46 210.5t124 172.5q79 70 183 109.5t213 39.5q148 0 278 -65q124 -64 203 -187q78 -125 78 -272q0 -111 -45.5 -212.5t-122.5 -174.5q-77 -71 -181.5 -111.5t-217.5 -40.5zM408 420q25 -69 84 -111q61 -43 135 -43
q75 0 133 43q61 43 82 111h-434zM625 756q-75 0 -133 -43q-62 -44 -84 -111h434q-18 64 -82 109q-61 45 -135 45z" />
    <glyph glyph-name="uni04EC" unicode="&#x4ec;" horiz-adv-x="1611" 
d="M713 1839q0 -79 -56 -135q-52 -55 -135 -55t-135 55q-53 53 -53 135q0 84 53 137q57 54 135 54q81 0 135 -54q56 -56 56 -137zM1227 1839q0 -79 -56 -135q-52 -55 -135 -55t-135 55q-53 53 -53 135q0 84 53 137q57 54 135 54q81 0 135 -54q56 -56 56 -137zM774 1518
q164 0 309 -62q147 -64 244 -164q101 -106 157 -245.5t56 -294.5q0 -163 -59 -308q-63 -146 -164 -245q-105 -105 -246 -162q-148 -60 -307 -60q-127 0 -242 35t-196 94q-80 56 -142 127q-111 128 -141 263l342 106q29 -96 117 -178q103 -96 268 -96q137 0 234 75
q97 76 135 199h-531v305h529q-45 121 -142 193q-95 71 -225 71q-68 0 -128 -19.5t-101 -49t-73.5 -67.5t-50 -72t-26.5 -66l-340 104q44 150 152 269q68 78 139 125q80 57 193.5 90t238.5 33z" />
    <glyph glyph-name="uni04ED" unicode="&#x4ed;" horiz-adv-x="1161" 
d="M512 1364q0 -82 -53 -135t-135 -53q-86 0 -136 53q-55 55 -55 135q0 82 55 137q56 53 136 53q79 0 135 -53q53 -53 53 -137zM1010 1364q0 -79 -56 -135q-50 -53 -135 -53t-135 53q-53 53 -53 135q0 84 53 137t135 53q79 0 135 -53q56 -56 56 -137zM543 1042
q154 0 280 -69q130 -69 201 -189q74 -121 74 -272q0 -154 -76 -276q-72 -121 -203 -191q-127 -68 -282 -68q-173 0 -306 89q-133 86 -186 243l289 90q63 -120 207 -120q71 0 123 36t77 99h-288v194h288q-27 63 -78.5 99t-119.5 36q-69 0 -122.5 -30t-82.5 -88l-287 92
q32 100 108.5 175t176 113t207.5 37z" />
    <glyph glyph-name="uni04EE" unicode="&#x4ee;" horiz-adv-x="1406" 
d="M348 1915h737v-260h-737v260zM1440 1493l-514 -1032q-16 -34 -47 -94q-13 -26 -54 -91q-38 -62 -63 -90q-8 -10 -19 -21t-29 -26.5t-26 -23.5q-77 -69 -199 -99q-66 -16 -131 -16h-237v336h196q81 0 132 31q44 24 94 125l-547 1001h422l325 -621l289 621h408z" />
    <glyph glyph-name="uni04EF" unicode="&#x4ef;" horiz-adv-x="1226" 
d="M244 1458h735v-260h-735v260zM637 498h2l192 520h383l-620 -1520h-387l244 600l-445 920h397z" />
    <glyph glyph-name="uni04F0" unicode="&#x4f0;" horiz-adv-x="1406" 
d="M655 1839q0 -82 -53 -135q-55 -55 -135 -55q-83 0 -135 55q-56 56 -56 135q0 81 56 137q57 54 135 54t135 -54q53 -53 53 -137zM1169 1839q0 -82 -53 -135q-55 -55 -135 -55q-83 0 -135 55q-55 55 -55 135q0 82 55 137q54 54 135 54q78 0 135 -54q53 -53 53 -137z
M1440 1493l-514 -1032q-16 -34 -47 -94q-13 -26 -54 -91q-38 -62 -63 -90q-8 -10 -19 -21t-29 -26.5t-26 -23.5q-77 -69 -199 -99q-66 -16 -131 -16h-237v336h196q81 0 132 31q44 24 94 125l-547 1001h422l325 -621l289 621h408z" />
    <glyph glyph-name="uni04F1" unicode="&#x4f1;" horiz-adv-x="1226" 
d="M561 1364q0 -79 -53 -135q-53 -53 -137 -53q-82 0 -135 53q-54 57 -54 135q0 80 54 137q56 53 135 53q81 0 137 -53q53 -56 53 -137zM1057 1364q0 -82 -53 -135t-138 -53q-82 0 -135 53q-53 56 -53 135q0 82 55 137q53 53 133 53q82 0 138 -53q53 -56 53 -137zM637 498h2
l192 520h383l-620 -1520h-387l244 600l-445 920h397z" />
    <glyph glyph-name="uni04F2" unicode="&#x4f2;" horiz-adv-x="1406" 
d="M358 1624l215 375h367l-317 -375h-265zM817 1624l213 375h367l-318 -375h-262zM1440 1493l-514 -1032q-16 -34 -47 -94q-13 -26 -54 -91q-38 -62 -63 -90q-8 -10 -19 -21t-29 -26.5t-26 -23.5q-77 -69 -199 -99q-66 -16 -131 -16h-237v336h196q81 0 132 31q44 24 94 125
l-547 1001h422l325 -621l289 621h408z" />
    <glyph glyph-name="uni04F3" unicode="&#x4f3;" horiz-adv-x="1226" 
d="M240 1188l213 373h366l-317 -373h-262zM696 1188l213 373h367l-315 -373h-265zM637 498h2l192 520h383l-620 -1520h-387l244 600l-445 920h397z" />
    <glyph glyph-name="uni04F4" unicode="&#x4f4;" horiz-adv-x="1503" 
d="M653 1839q0 -80 -55 -135q-52 -55 -135 -55t-135 55q-54 54 -54 135q0 83 54 137q57 54 135 54q81 0 135 -54q55 -55 55 -137zM1167 1839q0 -80 -55 -135t-135 -55q-83 0 -135 55q-54 54 -54 135q0 83 54 137q57 54 135 54t135 -54q55 -55 55 -137zM973 0v573
q-114 -51 -115 -51q-59 -25 -127 -41q-92 -18 -145 -18q-135 0 -248 53q-71 30 -123 82q-54 54 -88.5 147.5t-34.5 208.5v539h379v-446q0 -232 193 -232q79 0 165 25q82 23 144 69v584h377v-1493h-377z" />
    <glyph glyph-name="uni04F5" unicode="&#x4f5;" horiz-adv-x="1187" 
d="M512 1364q0 -80 -55 -135q-53 -53 -135 -53q-86 0 -136 53q-53 53 -53 135q0 84 53 137q56 53 136 53q79 0 135 -53q55 -55 55 -137zM1008 1364q0 -79 -56 -135q-50 -53 -135 -53t-135 53q-53 53 -53 135q0 84 53 137t135 53q79 0 135 -53q56 -56 56 -137zM707 0v311
q-109 -47 -271 -47q-158 0 -262 96q-102 92 -102 254v404h364v-307q0 -144 115 -144q97 0 156 41v410h362v-1018h-362z" />
    <glyph glyph-name="uni04F8" unicode="&#x4f8;" horiz-adv-x="2109" 
d="M993 1839q0 -80 -55 -135t-135 -55q-83 0 -135 55q-54 54 -54 135q0 83 54 137q57 54 135 54t135 -54q55 -55 55 -137zM1505 1839q0 -82 -53 -135q-55 -55 -135 -55q-83 0 -135 55q-56 56 -56 135q0 81 56 137q57 54 135 54t135 -54q53 -53 53 -137zM530 967h304
q227 0 376 -113q158 -120 158 -362q0 -99 -28.5 -180.5t-79.5 -139t-121 -96.5t-152 -57.5t-174 -18.5h-659v1493h376v-526zM1577 1493h379v-1493h-379v1493zM530 332h269q194 0 194 164q0 76 -46 114.5t-148 38.5h-269v-317z" />
    <glyph glyph-name="uni04F9" unicode="&#x4f9;" horiz-adv-x="1792" 
d="M836 1364q0 -81 -54 -135q-53 -53 -137 -53q-83 0 -133 53q-55 55 -55 135q0 82 55 137q53 53 133 53q81 0 137 -53q54 -54 54 -137zM1331 1364q0 -82 -53 -135t-137 -53q-82 0 -135 53q-54 57 -54 135q0 81 56 137q53 53 133 53q81 0 137 -53q53 -56 53 -137zM481 735
h230q216 0 325 -100q113 -98 113 -262q0 -165 -107 -269t-315 -104h-608v1018h362v-283zM1307 0v1018h364v-1018h-364zM481 262h174q129 0 129 113q0 45 -31.5 73.5t-99.5 28.5h-172v-215z" />
    <glyph glyph-name="uni0E3F" unicode="&#xe3f;" horiz-adv-x="1421" 
d="M1040 778v-8q139 -21 220 -117q81 -93 81 -231q0 -106 -44 -189t-119 -132.5t-169 -75t-200 -25.5h-29v-195h-139v195h-487v1493h487v207h139v-207h21q112 0 212 -36t165 -103q100 -103 100 -254q0 -109 -63 -192t-175 -130zM518 901h127v279h-127v-279zM918 1042
q0 132 -140 138v-279q67 4 103.5 41.5t36.5 99.5zM518 317h127v291h-127v-291zM778 317h31q75 0 119.5 38.5t44.5 107.5q0 70 -45.5 107.5t-118.5 37.5h-31v-291z" />
    <glyph glyph-name="uni1E20" unicode="&#x1e20;" horiz-adv-x="1628" 
d="M487 1894h736v-258h-736v258zM1565 817v-147q0 -141 -50.5 -268t-142.5 -222q-94 -96 -228 -149.5t-290 -53.5q-222 0 -399 101q-181 99 -283 274q-102 178 -102 396q0 155 63 296q64 143 164 246q103 100 250 166q148 62 305 62q236 0 408 -105q73 -49 131 -113
q109 -118 145 -251l-365 -97q-19 73 -88 144q-38 37 -100 59.5t-133 22.5q-170 0 -285 -121q-114 -120 -114 -307q0 -186 112 -310q116 -125 291 -125q111 0 205 58q91 55 112 141h-428v303h822z" />
    <glyph glyph-name="uni1E21" unicode="&#x1e21;" horiz-adv-x="1310" 
d="M260 1458h735v-260h-735v260zM829 154h-6q-113 -146 -280 -146q-211 0 -342 146q-133 145 -133 364q0 112 38 210t105 163q67 67 153.5 104t180.5 37q173 0 282 -137h7v123h358v-967q0 -263 -162 -409q-166 -152 -426 -152q-114 0 -214 32.5t-167 86.5q-133 111 -157 248
l321 96q14 -68 69.5 -110t133.5 -42q115 0 177 57.5t62 172.5v123zM776 379q58 58 58 141q0 84 -58 142q-58 55 -141 55t-141 -58q-56 -56 -56 -141q0 -82 56 -141q58 -58 141 -58q84 0 141 60z" />
    <glyph glyph-name="uni1E30" unicode="&#x1e30;" horiz-adv-x="1458" 
d="M608 1624l211 375h387l-325 -375h-273zM535 1493v-641l460 641h443l-512 -709l549 -784h-469l-471 707v-707h-381v1493h381z" />
    <glyph glyph-name="uni1E31" unicode="&#x1e31;" horiz-adv-x="1218" 
d="M698 1188l213 373h385l-323 -373h-275zM119 1554h362v-958l307 422h418l-342 -473l355 -545h-424l-306 496h-8v-496h-362v1554z" />
    <glyph glyph-name="uni1E60" unicode="&#x1e60;" horiz-adv-x="1325" 
d="M670 1628q-86 0 -148 62q-63 60 -63 147q0 89 63 152q61 61 148 61q89 0 149 -63q62 -62 62 -150q0 -85 -62 -147t-149 -62zM682 -20q-275 0 -430 129q-157 130 -197 348l338 80q12 -82 55.5 -139t104.5 -81q61 -22 131 -22q91 0 137 43q47 47 47 100q0 95 -129 119
l-204 39q-196 42 -306 152q-116 116 -116 288q0 135 77 250q76 110 203 172q129 60 271 60q213 0 350 -95q61 -43 106 -100q82 -106 101 -236l-330 -94q-15 98 -74 153.5t-155 55.5q-81 0 -127 -43t-46 -94q0 -102 111 -123l213 -41q208 -40 322 -160q112 -115 112 -288
q0 -90 -38.5 -175t-108.5 -153q-72 -67 -181.5 -106t-236.5 -39z" />
    <glyph glyph-name="uni1E61" unicode="&#x1e61;" horiz-adv-x="1019" 
d="M512 1155q-82 0 -147 62q-62 62 -62 145q0 89 62 151t147 62q90 0 152 -62q61 -64 61 -151q0 -84 -61 -145q-62 -62 -152 -62zM508 1042q125 -1 215.5 -38t140.5 -97q61 -70 68 -153l-293 -56q-8 47 -41 68.5t-80 21.5q-43 0 -67.5 -19.5t-24.5 -45.5q0 -44 57 -53
l146 -31q127 -24 221 -96q102 -83 102 -217q0 -135 -110 -242q-55 -50 -140 -78.5t-186 -28.5q-197 0 -311 78q-46 30 -82 78q-59 75 -66 156l297 57q4 -52 44.5 -81t101.5 -29q52 0 78 20.5t26 48.5q0 48 -92 66l-111 22q-131 28 -217 92q-98 76 -98 211q-2 93 56 174
t156 127.5t210 44.5z" />
    <glyph glyph-name="Wgrave" unicode="&#x1e80;" horiz-adv-x="2283" 
d="M1065 2038l211 -375h-272l-326 375h387zM416 1493l252 -944h6l287 944h362l295 -946h4l258 946h381l-440 -1493h-379l-299 1010h-4l-305 -1010h-373l-438 1493h393z" />
    <glyph glyph-name="wgrave" unicode="&#x1e81;" horiz-adv-x="1736" 
d="M795 1561l213 -373h-273l-325 373h385zM543 471l178 547h295l182 -551h2l170 551h346l-327 -1018h-345l-176 545h-2l-180 -545h-340l-323 1018h360l158 -547h2z" />
    <glyph glyph-name="Wacute" unicode="&#x1e82;" horiz-adv-x="2283" 
d="M1012 1663l211 375h385l-324 -375h-272zM416 1493l252 -944h6l287 944h362l295 -946h4l258 946h381l-440 -1493h-379l-299 1010h-4l-305 -1010h-373l-438 1493h393z" />
    <glyph glyph-name="wacute" unicode="&#x1e83;" horiz-adv-x="1736" 
d="M737 1188l213 373h385l-323 -373h-275zM543 471l178 547h295l182 -551h2l170 551h346l-327 -1018h-345l-176 545h-2l-180 -545h-340l-323 1018h360l158 -547h2z" />
    <glyph glyph-name="Wdieresis" unicode="&#x1e84;" horiz-adv-x="2283" 
d="M1083 1841q0 -81 -53 -137q-56 -53 -137 -53q-79 0 -135 53q-53 56 -53 137q0 79 53 135q54 54 135 54q83 0 137 -54q53 -56 53 -135zM1579 1841q0 -84 -53 -137q-56 -53 -137 -53q-80 0 -136 53q-53 56 -53 137q0 80 55 135q51 54 134 54t137 -54q53 -56 53 -135z
M416 1493l252 -944h6l287 944h362l295 -946h4l258 946h381l-440 -1493h-379l-299 1010h-4l-305 -1010h-373l-438 1493h393z" />
    <glyph glyph-name="wdieresis" unicode="&#x1e85;" horiz-adv-x="1736" 
d="M811 1364q0 -82 -53 -135t-135 -53q-86 0 -136 53q-55 55 -55 135q0 82 55 137q53 53 136 53q79 0 135 -53q53 -53 53 -137zM1309 1364q0 -79 -56 -135q-50 -53 -137 -53q-83 0 -133 53q-53 53 -53 135q0 84 53 137t133 53q81 0 137 -53q56 -56 56 -137zM543 471l178 547
h295l182 -551h2l170 551h346l-327 -1018h-345l-176 545h-2l-180 -545h-340l-323 1018h360l158 -547h2z" />
    <glyph glyph-name="uni1E90" unicode="&#x1e90;" horiz-adv-x="1339" 
d="M496 1987h333l240 -359h-289l-116 193l-117 -193h-291zM74 317l690 844h-658v332h1143v-315l-690 -842h692v-336h-1177v317z" />
    <glyph glyph-name="uni1E91" unicode="&#x1e91;" horiz-adv-x="1069" 
d="M367 1550h333l240 -360h-289l-119 192l-114 -192h-293zM96 719v299h887v-268l-446 -453h450v-297h-907v287l426 432h-410z" />
    <glyph glyph-name="uni1EBC" unicode="&#x1ebc;" horiz-adv-x="1304" 
d="M526 915h611v-321h-611v-258h676v-336h-1048v1493h1044v-334h-672v-244zM840 1628q-76 0 -168 51q-67 35 -68 35q-39 17 -63 17q-58 0 -64 -101h-190l-2 53q0 129 55 205q60 78 178 78q75 0 164 -51q11 -5 26 -13t25 -12.5t17 -7.5q40 -16 61 -16q55 0 70 63l4 33h184
l2 -57q3 -124 -53 -201q-58 -76 -178 -76z" />
    <glyph glyph-name="uni1EBD" unicode="&#x1ebd;" horiz-adv-x="1189" 
d="M1122 418h-706q15 -74 71 -115q58 -43 136 -43q113 0 178 102l299 -104q-63 -139 -189.5 -210t-296.5 -71q-148 0 -276 70q-128 68 -201 191q-74 124 -74 274q0 144 74 268q75 122 199 193q125 67 270 67q108 0 204.5 -38.5t166.5 -108.5q70 -68 109.5 -165t39.5 -204
q0 -44 -4 -106zM760 1190q-68 0 -170 51q-44 26 -66 35q-31 16 -63 16q-61 0 -64 -100h-192v55q-3 129 55 205q55 76 178 76q70 0 164 -49q22 -13 66 -35q43 -17 63 -17q56 0 68 64l4 33h184l2 -56q6 -125 -53 -202q-55 -76 -176 -76zM600 764q-62 0 -115 -41
q-49 -41 -65 -105h354q-10 67 -57.5 106.5t-116.5 39.5z" />
    <glyph glyph-name="Ygrave" unicode="&#x1ef2;" horiz-adv-x="1464" 
d="M680 2038l211 -375h-273l-323 375h385zM436 1493l299 -535l303 535h416l-532 -918v-575h-379v575l-533 918h426z" />
    <glyph glyph-name="ygrave" unicode="&#x1ef3;" horiz-adv-x="1226" 
d="M565 1561l213 -373h-274l-324 373h385zM637 498h2l192 520h383l-620 -1520h-387l244 600l-445 920h397z" />
    <glyph glyph-name="uni2000" unicode="&#x2000;" horiz-adv-x="1161" 
 />
    <glyph glyph-name="uni2001" unicode="&#x2001;" horiz-adv-x="2324" 
 />
    <glyph glyph-name="uni2002" unicode="&#x2002;" horiz-adv-x="1161" 
 />
    <glyph glyph-name="uni2003" unicode="&#x2003;" horiz-adv-x="2324" 
 />
    <glyph glyph-name="uni2004" unicode="&#x2004;" horiz-adv-x="774" 
 />
    <glyph glyph-name="uni2005" unicode="&#x2005;" horiz-adv-x="581" 
 />
    <glyph glyph-name="uni2006" unicode="&#x2006;" horiz-adv-x="387" 
 />
    <glyph glyph-name="uni2007" unicode="&#x2007;" horiz-adv-x="387" 
 />
    <glyph glyph-name="uni2008" unicode="&#x2008;" horiz-adv-x="290" 
 />
    <glyph glyph-name="uni2009" unicode="&#x2009;" horiz-adv-x="464" 
 />
    <glyph glyph-name="uni200A" unicode="&#x200a;" horiz-adv-x="129" 
 />
    <glyph glyph-name="uni2010" unicode="&#x2010;" horiz-adv-x="851" 
d="M113 469v303h626v-303h-626z" />
    <glyph glyph-name="uni2011" unicode="&#x2011;" horiz-adv-x="851" 
d="M113 469v303h626v-303h-626z" />
    <glyph glyph-name="figuredash" unicode="&#x2012;" horiz-adv-x="851" 
d="M113 469v303h626v-303h-626z" />
    <glyph glyph-name="endash" unicode="&#x2013;" horiz-adv-x="1167" 
d="M111 770h944v-299h-944v299z" />
    <glyph glyph-name="emdash" unicode="&#x2014;" horiz-adv-x="1896" 
d="M111 770h1675v-299h-1675v299z" />
    <glyph glyph-name="quoteleft" unicode="&#x2018;" horiz-adv-x="600" 
d="M487 1507v-159q-92 -29 -141.5 -70.5t-66.5 -108.5q35 5 49 5q81 0 137 -56q53 -53 53 -135q0 -85 -63 -145q-66 -60 -152 -60q-77 0 -131 40t-77 99t-23 130q0 175 112 305q107 125 303 155z" />
    <glyph glyph-name="quoteright" unicode="&#x2019;" horiz-adv-x="606" 
d="M125 776v158q93 30 142.5 71.5t66.5 108.5q-14 -4 -49 -4q-83 0 -135 55q-56 53 -56 135q0 83 64 144q62 59 151 59q114 0 173 -78.5t59 -189.5q0 -170 -111 -303q-114 -129 -305 -156z" />
    <glyph glyph-name="quotesinglbase" unicode="&#x201a;" horiz-adv-x="614" 
d="M113 -354v159q92 29 142 70.5t67 108.5q-14 -4 -50 -4q-82 0 -137 55q-53 56 -53 135q0 88 63 145q61 58 152 58q77 0 130.5 -40t76 -99t22.5 -130q0 -175 -110 -303q-113 -129 -303 -155z" />
    <glyph glyph-name="quotedblleft" unicode="&#x201c;" horiz-adv-x="1122" 
d="M487 1507v-159q-92 -29 -141.5 -70.5t-66.5 -108.5q35 5 49 5q81 0 137 -56q53 -53 53 -135q0 -85 -63 -145q-66 -60 -152 -60q-77 0 -131 40t-77 99t-23 130q0 175 112 305q107 125 303 155zM1008 1507v-159q-92 -29 -142 -70.5t-67 -108.5q40 5 51 5q82 0 135 -56
q53 -50 53 -135q0 -88 -63 -145q-63 -60 -152 -60q-112 0 -170.5 79t-58.5 190q0 176 111 305q110 125 303 155z" />
    <glyph glyph-name="quotedblright" unicode="&#x201d;" horiz-adv-x="1128" 
d="M125 776v158q93 30 142.5 71.5t66.5 108.5q-14 -4 -49 -4q-83 0 -135 55q-56 53 -56 135q0 83 64 144q62 59 151 59q114 0 173 -78.5t59 -189.5q0 -170 -111 -303q-114 -129 -305 -156zM647 776v158q93 30 142.5 71.5t66.5 108.5q-16 -4 -49 -4q-82 0 -137 55
q-54 54 -54 135q0 86 64 144q59 59 151 59q59 0 104 -22.5t72 -61t40.5 -85.5t13.5 -99q0 -174 -111 -303q-114 -130 -303 -156z" />
    <glyph glyph-name="quotedblbase" unicode="&#x201e;" horiz-adv-x="1134" 
d="M113 -354v159q92 29 142 70.5t67 108.5q-14 -4 -50 -4q-82 0 -137 55q-53 56 -53 135q0 88 63 145q61 58 152 58q77 0 130.5 -40t76 -99t22.5 -130q0 -175 -110 -303q-113 -129 -303 -155zM635 -354v159q91 28 140.5 69.5t66.5 109.5q-14 -4 -49 -4q-84 0 -136 55
q-53 53 -53 135q0 86 62 145q64 58 153 58q76 0 130 -40t77 -99t23 -130q0 -174 -111 -303q-113 -128 -303 -155z" />
    <glyph glyph-name="dagger" unicode="&#x2020;" horiz-adv-x="1351" 
d="M147 1059h359v436h340v-436h358v-301h-358v-758h-340v758h-359v301z" />
    <glyph glyph-name="daggerdbl" unicode="&#x2021;" horiz-adv-x="1351" 
d="M102 303h404v414h-404v301h404v395h340v-395h405v-301h-405v-414h405v-303h-405v-391h-340v391h-404v303z" />
    <glyph glyph-name="bullet" unicode="&#x2022;" horiz-adv-x="892" 
d="M446 362q-138 0 -233 99q-98 94 -98 235q0 138 98 236q93 100 233 100q137 0 234 -100q98 -98 98 -236q0 -141 -98 -235q-94 -99 -234 -99z" />
    <glyph glyph-name="ellipsis" unicode="&#x2026;" horiz-adv-x="1976" 
d="M301 -20q-93 0 -156 63q-65 68 -65 156q0 96 63 159q69 66 158 66q91 0 160 -66q63 -66 63 -159q0 -87 -63 -156q-66 -63 -160 -63zM987 -20q-93 0 -156 63q-65 68 -65 156q0 96 63 159q69 66 158 66q94 0 160 -66q63 -66 63 -159q0 -87 -63 -156q-66 -63 -160 -63z
M1673 -20q-92 0 -155 63q-66 69 -66 156q0 95 64 159q69 66 157 66q94 0 160 -66q63 -63 63 -159q0 -90 -63 -156q-66 -63 -160 -63z" />
    <glyph glyph-name="uni202F" unicode="&#x202f;" horiz-adv-x="464" 
 />
    <glyph glyph-name="perthousand" unicode="&#x2030;" horiz-adv-x="2609" 
d="M424 782q-146 0 -256 107q-107 107 -107 256q0 151 107 258q107 104 256 104q151 0 258 -104q106 -109 106 -258q0 -147 -106 -256q-110 -107 -258 -107zM276 0l979 1493h304l-977 -1493h-306zM424 1257q-45 0 -76 -33t-31 -79q0 -45 31 -78t76 -33q46 0 77 33t31 78
q0 48 -30.5 80t-77.5 32zM1413 -10q-152 0 -256 104q-108 108 -108 256q0 150 108 258q107 107 256 107q146 0 256 -107q107 -107 107 -258q0 -149 -107 -256q-107 -104 -256 -104zM1413 463q-46 0 -77 -33t-31 -80q0 -45 30.5 -76.5t77.5 -31.5q45 0 76 31.5t31 76.5
q0 47 -30.5 80t-76.5 33zM2193 -10q-149 0 -256 104q-106 106 -106 256q0 152 106 258q110 107 256 107q148 0 258 -107q107 -110 107 -258q0 -146 -107 -256q-107 -104 -258 -104zM2193 463q-45 0 -75.5 -33.5t-30.5 -79.5q0 -45 30.5 -76.5t75.5 -31.5q47 0 78 31.5
t31 76.5q0 48 -31 80.5t-78 32.5z" />
    <glyph glyph-name="guilsinglleft" unicode="&#x2039;" horiz-adv-x="761" 
d="M676 836l-268 -261l268 -264l-184 -176l-445 438l445 441z" />
    <glyph glyph-name="guilsinglright" unicode="&#x203a;" horiz-adv-x="761" 
d="M354 573l-268 263l184 178l445 -441l-445 -438l-184 176z" />
    <glyph glyph-name="uni203D" unicode="&#x203d;" horiz-adv-x="1153" 
d="M635 950l14 -164q99 126 99 228q0 96 -45 152.5t-134 56.5q-88 0 -142.5 -53.5t-66.5 -145.5l-301 35q0 128 70 235q67 105 186 164q117 60 250 60q205 0 348 -121q70 -58 110 -147.5t40 -196.5q8 -121 -90 -271q-16 -26 -70 -92q-58 -70 -78 -90q-8 -9 -92 -102h-336
l-59 452h297zM563 393q87 0 148 -61q59 -62 59 -148t-59 -145q-62 -62 -148 -62q-85 0 -147 62q-62 59 -62 145t62 148q61 61 147 61z" />
    <glyph glyph-name="uni2042" unicode="&#x2042;" horiz-adv-x="1751" 
d="M584 905l125 176l-207 68l63 188l205 -65v221h207v-221l207 65l65 -188l-209 -68l127 -176l-161 -119l-132 177l-131 -177zM135 86l127 174l-207 68l64 190l205 -67v223h206v-223l207 67l64 -190l-207 -68l127 -174l-162 -119l-131 176l-131 -176zM1030 86l125 174
l-207 68l64 190l207 -67v223h204v-223l207 67l66 -190l-209 -68l127 -174l-162 -119l-131 176l-131 -176z" />
    <glyph glyph-name="fraction" unicode="&#x2044;" horiz-adv-x="1288" 
d="M-6 0l979 1493h321l-977 -1493h-323z" />
    <glyph glyph-name="uni2051" unicode="&#x2051;" horiz-adv-x="911" 
d="M164 905l125 176l-207 68l63 188l205 -65v221h207v-221l207 65l65 -188l-208 -68l127 -176l-162 -119l-131 177l-131 -177zM164 86l125 174l-207 68l63 190l205 -67v223h207v-223l207 67l65 -190l-208 -68l127 -174l-162 -119l-131 176l-131 -176z" />
    <glyph glyph-name="uni205F" unicode="&#x205f;" horiz-adv-x="581" 
 />
    <glyph glyph-name="lira" unicode="&#x20a4;" horiz-adv-x="1378" 
d="M993 524l318 -30q-18 -172 -84 -293q-42 -68 -90 -107q-115 -94 -308 -94h-718v283q66 28 131 90q62 56 86 127h-217v166h215q-2 10 -29 96h-186v168h133q-15 77 -15 119q0 131 70 243q72 110 182 168q119 58 250 58q196 0 342 -115q72 -58 117.5 -145.5t54.5 -192.5
l-352 -55q-2 89 -44 140.5t-114 51.5q-66 0 -108 -45q-43 -43 -43 -110q0 -50 16 -97l6 -20h297v-168h-239q18 -72 22 -96h217v-166h-229q-38 -112 -137 -178h233q76 3 117.5 22t64.5 62q21 38 25 53q14 56 16 65z" />
    <glyph glyph-name="uni20A9" unicode="&#x20a9;" horiz-adv-x="2418" 
d="M2087 678h233v-215h-297l-137 -463h-377l-301 1010h-2l-305 -1010h-373l-137 463h-291v215h228l-27 96h-201v215h138l-148 504h391l254 -944h4l289 944h363l295 -946h4l256 946h383l-150 -504h141v-215h-204z" />
    <glyph glyph-name="dong" unicode="&#x20ab;" horiz-adv-x="1404" 
d="M846 125h-8q-115 -145 -295 -145q-130 0 -242 71q-113 75 -170 195q-61 122 -61 266q0 112 39 211t106 168q68 70 156 108.5t182 38.5q52 0 121 -20q91 -23 160 -117h8v258h-252v242h252v151h362v-151h123v-242h-123v-1159h-358v125zM500 367q59 -62 143 -62q81 0 143 62
q60 63 60 145q0 83 -60 143q-62 62 -143 62q-83 0 -145 -62q-60 -60 -60 -143t62 -145zM141 -111h1063v-299h-1063v299z" />
    <glyph glyph-name="Euro" unicode="&#x20ac;" horiz-adv-x="1781" 
d="M1362 610l352 -110q-51 -191 -205 -330q-142 -125 -309 -166q-102 -27 -213 -27q-255 0 -457 146q-200 142 -274 379h-184v200h145v46q0 28 2 51h-147v200h186q77 234 277 375q197 144 462 144q126 0 238.5 -34t189.5 -91q80 -55 138 -125q100 -120 143 -271l-352 -108
q-10 47 -46.5 105t-93.5 102q-90 69 -223 69q-97 0 -178.5 -44t-134.5 -122h448l-65 -200h-457q0 -8 -1 -24.5t-1 -24.5q0 -5 1 -21t1 -27h432l-63 -200h-297q53 -79 135 -123.5t180 -44.5q79 0 148.5 27t113.5 71q84 87 109 178z" />
    <glyph glyph-name="uni20AE" unicode="&#x20ae;" horiz-adv-x="1374" 
d="M881 696v-102l336 113v-230l-336 -112v-365h-373v242l-334 -111v229l334 111v102l-334 -112v231l334 111v348h-424v342h1221v-342h-424v-225l336 112v-229z" />
    <glyph glyph-name="uni20B1" unicode="&#x20b1;" horiz-adv-x="1591" 
d="M1532 918h-150q-23 -131 -104 -224t-203 -135q-118 -41 -266 -41h-195v-518h-368v918h-160v167h160v408h583q232 0 379 -102q152 -106 176 -306h148v-167zM614 1085h398q-38 86 -178 86h-220v-86zM614 831h222q140 0 178 87h-400v-87z" />
    <glyph glyph-name="uni20B4" unicode="&#x20b4;" horiz-adv-x="1464" 
d="M92 1026h782q7 21 7 39q0 51 -43 94t-123 43q-62 0 -127 -41q-69 -41 -109 -117l-276 205q73 130 211 199q140 70 309 70q225 0 375 -125q73 -59 114 -147.5t41 -190.5q0 -21 -2 -29h117v-219h-1276v219zM1368 494h-795q-16 -26 -16 -56q0 -57 42 -100t134 -43
q66 0 156 33q108 43 174 149l274 -209q-130 -172 -272 -233q-73 -30 -154 -45q-64 -10 -188 -10q-129 0 -234 36t-172 101q-139 130 -139 317q0 44 4 60h-90v219h1276v-219z" />
    <glyph glyph-name="uni20B8" unicode="&#x20b8;" horiz-adv-x="1392" 
d="M1307 1493v-340h-1221v340h1221zM86 1044h1221v-339h-422v-705h-375v705h-424v339z" />
    <glyph glyph-name="uni20B9" unicode="&#x20b9;" horiz-adv-x="1259" 
d="M1188 1221h-244q46 -55 60 -125h184v-174h-182q-38 -243 -271 -334l299 -588h-407l-258 524h-271v303h318q148 0 198 95h-516v174h514q-55 94 -198 94h-316v303h1090v-272z" />
    <glyph glyph-name="uni20BA" unicode="&#x20ba;" horiz-adv-x="1417" 
d="M1354 657v-14q0 -296 -172 -465q-181 -178 -564 -178h-319v487l-197 -88v240l197 88v92l-197 -88v240l197 88v434h375v-264l391 174v-240l-391 -176v-92l391 176v-240l-391 -176v-311q160 0 233 82q75 81 84 227l2 41z" />
    <glyph glyph-name="uni20BD" unicode="&#x20bd;" horiz-adv-x="1466" 
d="M655 213v-213h-374v213h-177v186h177v117h-177v291h177v686h565q247 0 399 -119q160 -125 160 -366q0 -121 -44.5 -217.5t-125.5 -155.5q-165 -121 -412 -121h-168v-115h326v-186h-326zM655 834h162q102 0 156.5 41t54.5 118q0 170 -213 170h-160v-329z" />
    <glyph glyph-name="uni2113" unicode="&#x2113;" horiz-adv-x="911" 
d="M860 1090q0 -176 -112 -340q-108 -160 -277 -269v-47q0 -107 41.5 -154t142.5 -47q84 0 160 33v-239q-88 -45 -203 -45q-180 0 -288 102q-112 106 -115 281q-58 -18 -150 -37v254q73 15 150 49v442q0 156 88 254q86 100 240 100q152 0 239 -90q84 -90 84 -247zM604 1100
q0 82 -65 82q-68 0 -68 -97v-286q133 127 133 301z" />
    <glyph glyph-name="uni2116" unicode="&#x2116;" horiz-adv-x="2539" 
d="M154 1493h421l543 -872h2v872h375v-1493h-416l-549 885h-2v-885h-374v1493zM2445 934q0 -152 -108 -260q-109 -109 -269 -109q-159 0 -268 109q-108 108 -108 260t108 260q106 106 268 106q161 0 267 -106q110 -107 110 -260zM2181 934q0 49 -33 82q-41 33 -80 33
q-41 0 -79 -33q-35 -35 -35 -82q0 -44 33 -82q33 -33 81 -33q49 0 82 33q31 36 31 82zM1702 178v258h733v-258h-733z" />
    <glyph glyph-name="trademark" unicode="&#x2122;" horiz-adv-x="2013" 
d="M66 1493h702v-197h-242v-663h-217v663h-243v197zM1108 1184h-6v-551h-209v860h297l192 -528l185 528h307v-860h-213v557h-6l-199 -557h-147z" />
    <glyph glyph-name="estimated" unicode="&#x212e;" horiz-adv-x="1630" 
d="M827 -23q-168 0 -309 60.5t-235 167.5q-94 106 -144.5 248.5t-50.5 304.5q0 155 53.5 294.5t149.5 241.5q93 100 235 162q142 60 301 60q214 0 385 -101q174 -105 263 -272q92 -173 92 -381v-17h-1153v-483q73 -76 188 -123q110 -45 225 -45q193 0 334 82.5t217 235.5
l101 -56q-78 -173 -250 -276q-174 -103 -402 -103zM1243 862v377q-75 78 -188 121q-118 41 -230 41q-240 0 -411 -160v-379h829z" />
    <glyph glyph-name="uni2153" unicode="&#x2153;" horiz-adv-x="2156" 
d="M70 629v63q0 116 55 201q57 88 188 158l105 55q98 52 98 111q0 25 -23.5 44t-62.5 19q-32 0 -61 -20q-39 -34 -39 -117l-254 26q0 86 30 154t82 109q104 81 242 81q156 0 256 -83q96 -84 96 -207q0 -178 -213 -291l-96 -49q-53 -29 -53 -33h368v-221h-718zM1743 1493
l-977 -1493h-324l979 1493h322zM1716 209q43 0 71 20.5t28 57.5q0 32 -29 52.5t-66 20.5q-38 0 -82 -20l-102 156l184 133h-344v231h701v-203l-187 -137q80 -27 138 -94q57 -66 57 -147q0 -70 -30.5 -129t-82.5 -97q-105 -76 -248 -76q-139 0 -239 72q-103 71 -127 203
l231 70q11 -48 46 -80.5t81 -32.5z" />
    <glyph glyph-name="uni2154" unicode="&#x2154;" horiz-adv-x="2097" 
d="M170 1069l-119 211l379 213h252v-864h-303v559zM1659 1493l-977 -1493h-324l981 1493h320zM1632 209q44 0 72.5 20.5t28.5 57.5q0 34 -31 53q-29 20 -64 20q-37 0 -84 -20l-102 156l184 133h-344v231h701v-203l-187 -137q83 -28 140 -94q55 -67 55 -147q0 -70 -30.5 -129
t-82.5 -97q-105 -76 -246 -76q-142 0 -239 72q-101 68 -129 203l231 70q11 -48 46 -80.5t81 -32.5z" />
    <glyph glyph-name="oneeighth" unicode="&#x215b;" horiz-adv-x="2080" 
d="M170 1069l-119 211l379 213h252v-864h-303v559zM1659 1493l-977 -1493h-324l981 1493h320zM1626 885q-122 0 -233 -66q-54 -32 -86.5 -83.5t-32.5 -112.5q0 -57 33 -104t92 -79q-66 -28 -106 -80.5t-40 -115.5q0 -68 33.5 -122t91.5 -85q111 -60 248 -60q65 0 128 14.5
t119.5 44.5t91 84t34.5 124q0 63 -40.5 115t-105.5 81q123 68 123 183q0 61 -32 112.5t-86 83.5q-116 66 -232 66zM1565 553q-29 16 -29 47q0 30 29 49q28 17 61.5 17t61.5 -17q28 -19 28 -49q0 -31 -28 -47q-28 -19 -61.5 -19t-61.5 19zM1520 268q0 38 34 54q34 18 72 18
t72 -18q35 -18 35 -54q0 -35 -35 -53q-41 -18 -72 -18t-72 18q-34 16 -34 53z" />
    <glyph glyph-name="threeeighths" unicode="&#x215c;" horiz-adv-x="2113" 
d="M426 840q43 0 71.5 21t28.5 59q0 35 -30 53q-33 20 -66 20q-30 0 -82 -20l-102 153l184 136h-344v231h700v-203l-186 -139q82 -25 137 -92q58 -67 58 -148q0 -97 -54 -166q-54 -72 -133 -102q-81 -35 -174 -35q-135 0 -239 72q-103 71 -127 203l231 71q11 -49 46 -81.5
t81 -32.5zM1708 1493l-977 -1493h-323l978 1493h322zM1675 885q-122 0 -233 -66q-55 -32 -88 -83.5t-33 -112.5q0 -57 33.5 -104t91.5 -79q-65 -29 -105.5 -81t-40.5 -115q0 -67 34 -121t93 -86q111 -60 246 -60q66 0 129 14.5t120 44.5t91.5 84t34.5 124q0 63 -40 115
t-105 81q125 69 125 183q0 61 -33 112.5t-88 83.5q-116 66 -232 66zM1614 553q-29 16 -29 47q0 30 29 49q28 17 61.5 17t61.5 -17q26 -17 26 -49q0 -33 -26 -47q-28 -19 -61.5 -19t-61.5 19zM1569 268q0 37 35 54q34 18 71 18t72 -18t35 -54q0 -35 -35 -53q-41 -18 -72 -18
q-30 0 -71 18q-35 17 -35 53z" />
    <glyph glyph-name="fiveeighths" unicode="&#x215d;" horiz-adv-x="2115" 
d="M520 928q0 38 -27.5 60t-72.5 22q-42 0 -92 -35l-232 96l109 422h557v-231h-377l-25 -86q57 26 134 26q130 0 215 -76q86 -74 86 -198q0 -90 -54 -166q-57 -76 -137 -115q-86 -39 -176 -39q-147 0 -250 70q-101 72 -119 162l213 104q49 -104 152 -104q41 0 68.5 25.5
t27.5 62.5zM1704 1493l-977 -1493h-324l979 1493h322zM1669 885q-120 0 -231 -66q-54 -32 -86.5 -83.5t-32.5 -112.5q0 -57 33 -104t92 -79q-66 -28 -106 -80.5t-40 -115.5q0 -68 33.5 -122t91.5 -85q108 -60 246 -60q66 0 129 14.5t120 44.5t91.5 84t34.5 124q0 63 -41 115
t-107 81q127 68 127 183q0 62 -32.5 113.5t-87.5 82.5q-113 66 -234 66zM1610 553q-29 15 -29 47t29 49q28 17 61.5 17t61.5 -17q28 -19 28 -49q0 -31 -28 -47q-28 -19 -61.5 -19t-61.5 19zM1565 268q0 37 32 54q37 18 74 18t72 -18t35 -54q0 -35 -35 -53q-41 -18 -72 -18
q-29 0 -74 18q-32 17 -32 53z" />
    <glyph glyph-name="seveneighths" unicode="&#x215e;" horiz-adv-x="1947" 
d="M1544 1493l-977 -1493h-323l979 1493h321zM78 1231v262h694v-254l-336 -610h-338l340 602h-360zM1509 885q-120 0 -231 -66q-55 -32 -88 -83.5t-33 -112.5q0 -57 33.5 -104t91.5 -79q-65 -29 -105 -81t-40 -115q0 -67 34 -121t93 -86q108 -60 245 -60q66 0 129 14.5
t120 44.5t91.5 84t34.5 124q0 63 -40.5 115.5t-106.5 80.5q125 67 125 183q0 62 -33 113t-88 83q-113 66 -232 66zM1450 553q-29 15 -29 47t29 49q28 17 61.5 17t61.5 -17q26 -17 26 -49q0 -33 -26 -47q-28 -19 -61.5 -19t-61.5 19zM1403 268q0 36 35 54q38 18 73 18t72 -18
q35 -18 35 -54q0 -35 -35 -53q-45 -18 -72 -18q-28 0 -73 18q-35 18 -35 53z" />
    <glyph glyph-name="arrowleft" unicode="&#x2190;" horiz-adv-x="1265" 
d="M1198 528h-643q184 -181 254 -256l-215 -204l-557 602v49l557 602l215 -205q-70 -75 -254 -256h643v-332z" />
    <glyph glyph-name="arrowup" unicode="&#x2191;" horiz-adv-x="1265" 
d="M465 113v645q-201 -204 -254 -254l-205 215l600 557h49l605 -557l-205 -215q-59 53 -256 254v-645h-334z" />
    <glyph glyph-name="arrowright" unicode="&#x2192;" horiz-adv-x="1265" 
d="M66 860h645q-155 149 -254 256l217 205l555 -602v-49l-555 -602l-217 204q99 107 254 256h-645v332z" />
    <glyph glyph-name="arrowdown" unicode="&#x2193;" horiz-adv-x="1265" 
d="M799 1274v-643q122 125 256 254l205 -217l-603 -555h-49l-602 555l205 217q172 -168 256 -254v643h332z" />
    <glyph glyph-name="uni2196" unicode="&#x2196;" horiz-adv-x="1265" 
d="M930 154l-457 454q3 -180 0 -360l-297 8l31 819l35 35l819 33l8 -299q-168 -3 -360 0l456 -455z" />
    <glyph glyph-name="uni2197" unicode="&#x2197;" horiz-adv-x="1265" 
d="M100 389l455 455q-191 -3 -360 0l10 299l819 -33l35 -35l31 -819l-297 -8q-2 80 -2 360l-455 -454z" />
    <glyph glyph-name="uni2198" unicode="&#x2198;" horiz-adv-x="1265" 
d="M334 1143l454 -457q0 241 3 361l296 -9l-30 -819l-35 -35l-819 -30l-8 297q179 3 358 0l-455 456z" />
    <glyph glyph-name="uni2199" unicode="&#x2199;" horiz-adv-x="1265" 
d="M1167 907l-456 -456q179 3 360 0l-8 -297l-819 30l-35 35l-33 819l299 9q3 -181 0 -361l457 457z" />
    <glyph glyph-name="uni21A9" unicode="&#x21a9;" horiz-adv-x="2189" 
d="M606 1034l217 -205q-154 -158 -254 -254h846q151 0 256 82q103 83 103 213q0 134 -101 213q-100 80 -262 80h-369v330h385q148 0 276 -46.5t220 -131.5q89 -84 138.5 -200t49.5 -245q0 -131 -49 -246.5t-139 -199.5q-90 -86 -218.5 -133t-277.5 -47h-856q68 -68 252 -256
l-217 -205l-555 600v49z" />
    <glyph glyph-name="uni21B0" unicode="&#x21b0;" horiz-adv-x="1650" 
d="M573 1167h322q291 3 474.5 -151t182.5 -412v-604h-338v567q0 126 -88 199q-89 68 -241 68h-314q142 -139 254 -256l-217 -203l-557 602v49l557 600l217 -205q-168 -172 -252 -254z" />
    <glyph glyph-name="uni21B1" unicode="&#x21b1;" horiz-adv-x="1650" 
d="M756 1167h323q-120 117 -254 254l217 205l557 -600v-49l-557 -602l-217 203q177 181 254 256h-311q-156 0 -242 -68q-88 -70 -88 -199v-567h-338v604q-2 171 82 300.5t233.5 197t340.5 65.5z" />
    <glyph glyph-name="uni21B2" unicode="&#x21b2;" horiz-adv-x="1650" 
d="M895 328h-322q84 -84 252 -256l-217 -205l-557 602v49l557 602l217 -205q-174 -178 -254 -256h314q155 0 242 70t87 197v567h338v-602q1 -259 -182.5 -413.5t-474.5 -149.5z" />
    <glyph glyph-name="uni21B3" unicode="&#x21b3;" horiz-adv-x="1650" 
d="M1077 328h-321q-191 -3 -341 64.5t-234.5 197t-82.5 301.5v602h338v-567q0 -127 87.5 -197t242.5 -70h313q-130 126 -254 256l217 205l555 -602v-49l-555 -602l-217 205q50 52 137.5 140.5t114.5 115.5z" />
    <glyph glyph-name="uni21B4" unicode="&#x21b4;" horiz-adv-x="1753" 
d="M1243 838v-324q77 81 254 254l205 -217l-600 -557h-49l-602 557l204 217q134 -131 254 -254v311q0 158 -69 248q-68 92 -195 92h-569v328h604q259 1 412.5 -182t150.5 -473z" />
    <glyph glyph-name="partialdiff" unicode="&#x2202;" horiz-adv-x="1331" 
d="M623 -25q-158 0 -283.5 62t-200.5 178q-73 116 -73 270q0 105 44 198.5t119 156.5q74 61 169.5 95t195.5 34q147 0 270 -60q-27 125 -110 205t-211 80q-129 0 -293 -86l-137 283q112 66 225 94q118 33 221 33q347 0 537 -256q158 -218 161 -566q2 -173 -53.5 -323.5
t-163.5 -249.5q-73 -70 -180 -109t-237 -39zM672 659q-112 0 -175 -45t-63 -135q0 -78 58 -127t143 -49q118 0 180 80q65 80 68 205q-42 33 -99 53q-58 18 -112 18z" />
    <glyph glyph-name="uni2206" unicode="&#x2206;" horiz-adv-x="1679" 
d="M629 1493h424l573 -1493h-1571zM1122 326l-286 745l-283 -745h569z" />
    <glyph glyph-name="product" unicode="&#x220f;" horiz-adv-x="1558" 
d="M662 0h-365v1159h-227v334h1419v-334h-227v-1159h-363v1159h-237v-1159z" />
    <glyph glyph-name="summation" unicode="&#x2211;" horiz-adv-x="1331" 
d="M1229 1493v-338h-600l418 -389l-449 -428h633v-338h-1137v315l471 447l-446 418v313h1110z" />
    <glyph glyph-name="minus" unicode="&#x2212;" horiz-adv-x="1204" 
d="M117 846h970v-301h-970v301z" />
    <glyph glyph-name="radical" unicode="&#x221a;" horiz-adv-x="1533" 
d="M1249 1827h285l-573 -1827h-322l-344 942h-272v244h514l268 -740h6z" />
    <glyph glyph-name="infinity" unicode="&#x221e;" horiz-adv-x="1929" 
d="M1401 186q-123 0 -242 78q-65 44 -98 72q-14 11 -98 86q-63 -59 -82 -74q-20 -18 -78 -61q-51 -39 -90 -56q-99 -45 -207 -45q-186 0 -303 123q-121 124 -121 309q0 189 129 312q128 125 315 125q128 0 244 -78q40 -26 100 -74q25 -19 97 -88q48 48 102 94q44 37 98 72
q116 74 256 74q187 0 306 -125q118 -121 118 -312q0 -186 -129 -309q-132 -123 -317 -123zM537 772q-63 0 -109 -43q-47 -47 -47 -108q0 -59 45 -107q44 -47 106 -47q67 0 134 53q29 22 55 45q36 36 51 49q-93 93 -117 109q-64 49 -118 49zM1401 772q-68 0 -135 -53
q-32 -23 -56 -47q-34 -29 -53 -51l23 -23q7 -6 13 -12.5t9.5 -10t5.5 -4.5q1 -1 27 -24q19 -19 31 -27q3 -2 27.5 -18t35.5 -21q42 -14 66 -14q63 0 108 45t45 106q0 63 -43 109q-42 45 -104 45z" />
    <glyph glyph-name="integral" unicode="&#x222b;" horiz-adv-x="909" 
d="M637 967v-953q0 -265 -123.5 -392.5t-368.5 -127.5h-118v322q74 2 117 11.5t73 33.5q31 26 44 70t13 120v946q0 268 122 394.5t370 126.5h119v-318q-141 -3 -195 -51q-53 -50 -53 -182z" />
    <glyph glyph-name="uni2236" unicode="&#x2236;" horiz-adv-x="665" 
d="M334 764q-93 0 -158 65t-65 154q0 95 65 160q62 65 158 65t158 -65q63 -63 63 -160q0 -91 -63 -154q-65 -65 -158 -65zM334 145q-89 0 -158 66q-65 68 -65 156q0 91 65 159q66 66 158 66t158 -66q63 -66 63 -159t-63 -156q-69 -66 -158 -66z" />
    <glyph glyph-name="approxequal" unicode="&#x2248;" horiz-adv-x="1286" 
d="M848 735q-58 0 -117 23t-104 51q-45 31 -92 51q-52 25 -84 25q-81 0 -148 -99l-201 150q68 120 149 180t187 60q58 0 125 -25q55 -19 107 -51q38 -26 90 -53q51 -23 76 -23q40 0 79 26.5t68 69.5l201 -149q-66 -117 -148 -176.5t-188 -59.5zM848 219q-53 0 -117 25
q-49 17 -104 51q-47 29 -92 51q-47 23 -84 23q-82 0 -148 -97l-201 150q134 237 336 237q60 0 125 -24q55 -19 107 -51q48 -33 90 -52q46 -24 76 -24q78 0 147 96l201 -149q-66 -117 -148 -176.5t-188 -59.5z" />
    <glyph glyph-name="notequal" unicode="&#x2260;" horiz-adv-x="1204" 
d="M584 305l-121 -293l-238 119l70 174h-178v297h301l78 189h-379v301h501l121 294l242 -120l-72 -174h178v-301h-303l-77 -189h380v-297h-503z" />
    <glyph glyph-name="lessequal" unicode="&#x2264;" horiz-adv-x="1255" 
d="M1120 1382v-311l-649 -184v-2l649 -187v-313l-1011 346v307zM109 279h1024v-308h-1024v308z" />
    <glyph glyph-name="greaterequal" unicode="&#x2265;" horiz-adv-x="1255" 
d="M135 385v313l649 185v2l-649 186v311l1012 -344v-307zM123 279h1024v-308h-1024v308z" />
    <glyph glyph-name="filledbox" unicode="&#x25a0;" horiz-adv-x="1730" 
d="M1544 1356v-1356h-1351v1356h1351z" />
    <glyph glyph-name="uni25A1" unicode="&#x25a1;" horiz-adv-x="1730" 
d="M193 1356h1351v-1356h-1351v1356zM1321 211v932h-911v-932h911z" />
    <glyph glyph-name="triagup" unicode="&#x25b2;" horiz-adv-x="1597" 
d="M803 1393l794 -1393h-1597z" />
    </font>
</defs>
</svg>
